<?xml version="1.0" encoding="utf-8"?>
<svg version="1.1" xmlns:xlink="http://www.w3.org/1999/xlink" width="1103px" height="255px" xmlns="http://www.w3.org/2000/svg">
  <defs>
    <mask fill="white" id="clip9">
      <path d="M 0 255  L 99.9999999999982 0  L 203.267605633803 255  L 301.999999999998 159.999999999999  L 393.999999999999 148.000000000001  L 494.999999999998 124.999999999999  L 587.000000000001 139  L 698 148.000000000001  L 792 255  L 897.985915492958 255  L 988.478873239437 255  L 1103 114  L 1103 255  L 0 255  Z " fill-rule="evenodd" />
    </mask>
  </defs>
  <g transform="matrix(1 0 0 1 -72 -14 )">
    <path d="M 0 255  L 99.9999999999982 0  L 203.267605633803 255  L 301.999999999998 159.999999999999  L 393.999999999999 148.000000000001  L 494.999999999998 124.999999999999  L 587.000000000001 139  L 698 148.000000000001  L 792 255  L 897.985915492958 255  L 988.478873239437 255  L 1103 114  L 1103 255  L 0 255  Z " fill-rule="nonzero" fill="#0cb0b9" stroke="none" fill-opacity="0.133333333333333" transform="matrix(1 0 0 1 72 14 )" />
    <path d="M 0 255  L 99.9999999999982 0  L 203.267605633803 255  L 301.999999999998 159.999999999999  L 393.999999999999 148.000000000001  L 494.999999999998 124.999999999999  L 587.000000000001 139  L 698 148.000000000001  L 792 255  L 897.985915492958 255  L 988.478873239437 255  L 1103 114  L 1103 255  L 0 255  Z " stroke-width="2" stroke="#0cb0b9" fill="none" stroke-opacity="0.996078431372549" transform="matrix(1 0 0 1 72 14 )" mask="url(#clip9)" />
  </g>
</svg>