<?xml version="1.0" encoding="utf-8"?>
<svg version="1.1" xmlns:xlink="http://www.w3.org/1999/xlink" width="1103px" height="222px" xmlns="http://www.w3.org/2000/svg">
  <defs>
    <mask fill="white" id="clip10">
      <path d="M 0 222  L 87.6478873239437 45.0281690140867  L 196.450704225352 222  L 293.999999999999 179.999999999998  L 393 148  L 496.000000000002 66.0000000000028  L 578.999999999999 81.0000000000018  L 698 115.000000000002  L 789.760563380282 222  L 882.014084507042 222  L 987.647887323944 222  L 1103 0  L 1103 222  L 0 222  Z " fill-rule="evenodd" />
    </mask>
  </defs>
  <g transform="matrix(1 0 0 1 -76 -47 )">
    <path d="M 0 222  L 87.6478873239437 45.0281690140867  L 196.450704225352 222  L 293.999999999999 179.999999999998  L 393 148  L 496.000000000002 66.0000000000028  L 578.999999999999 81.0000000000018  L 698 115.000000000002  L 789.760563380282 222  L 882.014084507042 222  L 987.647887323944 222  L 1103 0  L 1103 222  L 0 222  Z " fill-rule="nonzero" fill="#3b81de" stroke="none" fill-opacity="0.211764705882353" transform="matrix(1 0 0 1 76 47 )" />
    <path d="M 0 222  L 87.6478873239437 45.0281690140867  L 196.450704225352 222  L 293.999999999999 179.999999999998  L 393 148  L 496.000000000002 66.0000000000028  L 578.999999999999 81.0000000000018  L 698 115.000000000002  L 789.760563380282 222  L 882.014084507042 222  L 987.647887323944 222  L 1103 0  L 1103 222  L 0 222  Z " stroke-width="2" stroke="#3b81de" fill="none" stroke-opacity="0.898039215686275" transform="matrix(1 0 0 1 76 47 )" mask="url(#clip10)" />
  </g>
</svg>