<?xml version="1.0" encoding="utf-8"?>
<svg version="1.1" xmlns:xlink="http://www.w3.org/1999/xlink" width="24px" height="24px" viewBox="100 569.5  24 24" xmlns="http://www.w3.org/2000/svg">
  <path d="M 112 569.5  C 118.72 569.5  124 574.78  124 581.5  C 124 588.22  118.72 593.5  112 593.5  C 105.28 593.5  100 588.22  100 581.5  C 100 574.78  105.28 569.5  112 569.5  Z " fill-rule="nonzero" fill="#f0f0f0" stroke="none" />
  <path d="M 112 570  C 118.44 570  123.5 575.06  123.5 581.5  C 123.5 587.94  118.44 593  112 593  C 105.56 593  100.5 587.94  100.5 581.5  C 100.5 575.06  105.56 570  112 570  Z " stroke-width="1" stroke="#7f7f7f" fill="none" />
  <path d="M 112 587.5  C 108.64 587.5  106 584.86  106 581.5  C 106 578.14  108.64 575.5  112 575.5  C 115.36 575.5  118 578.14  118 581.5  C 118 584.86  115.36 587.5  112 587.5  " fill-rule="nonzero" fill="#7f7f7f" stroke="none" />
</svg>