<?xml version="1.0" encoding="utf-8"?>
<svg version="1.1" xmlns:xlink="http://www.w3.org/1999/xlink" width="24px" height="24px" viewBox="0 400.5  24 24" xmlns="http://www.w3.org/2000/svg">
  <path d="M 12 400.5  C 18.72 400.5  24 405.78  24 412.5  C 24 419.22  18.72 424.5  12 424.5  C 5.28 424.5  0 419.22  0 412.5  C 0 405.78  5.28 400.5  12 400.5  Z " fill-rule="nonzero" fill="#ffffff" stroke="none" />
  <path d="M 12 401  C 18.44 401  23.5 406.06  23.5 412.5  C 23.5 418.94  18.44 424  12 424  C 5.56 424  0.5 418.94  0.5 412.5  C 0.5 406.06  5.56 401  12 401  Z " stroke-width="1" stroke="#7f7f7f" fill="none" />
  <path d="M 12 418.5  C 8.64 418.5  6 415.86  6 412.5  C 6 409.14  8.64 406.5  12 406.5  C 15.36 406.5  18 409.14  18 412.5  C 18 415.86  15.36 418.5  12 418.5  " fill-rule="nonzero" fill="#7f7f7f" stroke="none" />
</svg>