<?xml version="1.0" encoding="utf-8"?>
<svg version="1.1" xmlns:xlink="http://www.w3.org/1999/xlink" width="38px" height="32px" xmlns="http://www.w3.org/2000/svg">
  <g transform="matrix(1 0 0 1 -100 -213 )">
    <path d="M 37.5299479166667 26.075  C 37.8433159722222 26.3916666666667  38 26.7666666666667  38 27.2  L 38 30.4  C 38 30.8333333333333  37.8433159722222 31.2083333333333  37.5299479166667 31.525  C 37.2165798611111 31.8416666666667  36.8454861111111 32  36.4166666666667 32  L 1.58333333333333 32  C 1.15451388888889 32  0.783420138888889 31.8416666666667  0.470052083333333 31.525  C 0.156684027777778 31.2083333333333  0 30.8333333333333  0 30.4  L 0 27.2  C 0 26.7666666666667  0.156684027777778 26.3916666666667  0.470052083333333 26.075  C 0.783420138888889 25.7583333333333  1.15451388888889 25.6  1.58333333333333 25  L 36.4166666666667 25  C 36.8454861111111 25.6  37.2165798611111 25.7583333333333  37.5299479166667 26.075  Z M 37.5299479166667 13.275  C 37.8433159722222 13.5916666666667  38 13.9666666666667  38 14.4  L 38 17.6  C 38 18.0333333333333  37.8433159722222 18.4083333333333  37.5299479166667 18.725  C 37.2165798611111 19.0416666666667  36.8454861111111 19.2  36.4166666666667 19  L 1.58333333333333 19  C 1.15451388888889 19.2  0.783420138888889 19.0416666666667  0.470052083333333 18.725  C 0.156684027777778 18.4083333333333  0 18.0333333333333  0 17.6  L 0 14.4  C 0 13.9666666666667  0.156684027777778 13.5916666666667  0.470052083333333 13.275  C 0.783420138888889 12.9583333333333  1.15451388888889 12.8  1.58333333333333 13  L 36.4166666666667 13  C 36.8454861111111 12.8  37.2165798611111 12.9583333333333  37.5299479166667 13.275  Z M 37.5299479166667 0.475000000000001  C 37.8433159722222 0.791666666666664  38 1.16666666666666  38 1.6  L 38 4.8  C 38 5.23333333333333  37.8433159722222 5.60833333333333  37.5299479166667 5.925  C 37.2165798611111 6.24166666666666  36.8454861111111 6.4  36.4166666666667 7  L 1.58333333333333 7  C 1.15451388888889 6.4  0.783420138888889 6.24166666666666  0.470052083333333 5.925  C 0.156684027777778 5.60833333333333  0 5.23333333333333  0 4.8  L 0 1.6  C 0 1.16666666666666  0.156684027777778 0.791666666666664  0.470052083333333 0.475000000000001  C 0.783420138888889 0.158333333333331  1.15451388888889 0  1.58333333333333 0  L 36.4166666666667 0  C 36.8454861111111 0  37.2165798611111 0.158333333333331  37.5299479166667 0.475000000000001  Z " fill-rule="nonzero" fill="#000000" stroke="none" transform="matrix(1 0 0 1 100 213 )" />
  </g>
</svg>