<?xml version="1.0" encoding="utf-8"?>
<svg version="1.1" xmlns:xlink="http://www.w3.org/1999/xlink" width="30px" height="30px" xmlns="http://www.w3.org/2000/svg">
  <g transform="matrix(1 0 0 1 -375 -20 )">
    <path d="M 15.3112840466926 14.1233766233766  L 29.124513618677 0.292207792207791  C 29.3709468223087 0.0454545454545441  29.5784695201038 -0.0389610389610406  29.7470817120623 0.0389610389610373  C 29.9156939040208 0.116883116883115  30 0.324675324675322  30 0.662337662337661  L 30 29.3376623376623  C 30 29.6753246753247  29.9156939040208 29.8831168831169  29.7470817120623 29.961038961039  C 29.5784695201038 30.038961038961  29.3709468223087 29.9545454545455  29.124513618677 29.7077922077922  L 15.3112840466926 15.8766233766234  C 15.1945525291829 15.7597402597403  15.1102464332036 15.6363636363636  15 15.5064935064935  L 15 29.3376623376623  C 15.0583657587549 29.6753246753247  14.9740596627756 29.8831168831169  14.8054474708171 29.961038961039  C 14.6368352788586 30.038961038961  14.4293125810636 29.9545454545455  14.1828793774319 29.7077922077922  L 0.369649805447471 15.8766233766234  C 0.123216601815824 15.6298701298701  0 15.3376623376623  0 15  C 0 14.6623376623377  0.123216601815824 14.3701298701299  0.369649805447471 14.1233766233766  L 14.1828793774319 0.292207792207791  C 14.4293125810636 0.0454545454545441  14.6368352788586 -0.0389610389610406  14.8054474708171 0.0389610389610373  C 14.9740596627756 0.116883116883115  15.0583657587549 0.324675324675322  15 0.662337662337661  L 15 14.4935064935065  C 15.1102464332036 14.3636363636364  15.1945525291829 14.2402597402597  15.3112840466926 14.1233766233766  Z " fill-rule="nonzero" fill="#ffffff" stroke="none" transform="matrix(1 0 0 1 375 20 )" />
  </g>
</svg>