<?xml version="1.0" encoding="utf-8"?>
<svg version="1.1" xmlns:xlink="http://www.w3.org/1999/xlink" width="22px" height="12px" xmlns="http://www.w3.org/2000/svg">
  <g transform="matrix(1 0 0 1 -568 -41 )">
    <path d="M 21.591796875 9.72916666666667  C 21.8639322916667 9.99305555555555  22 10.3055555555556  22 10.6666666666667  C 22 11.0277777777778  21.8639322916667 11.3402777777778  21.591796875 11.6041666666667  C 21.3196614583333 11.8680555555556  20.9973958333333 12  20.625 12  L 1.375 12  C 1.00260416666667 12  0.680338541666667 11.8680555555556  0.408203125 11.6041666666667  C 0.136067708333333 11.3402777777778  0 11.0277777777778  0 10.6666666666667  C 0 10.3055555555556  0.136067708333333 9.99305555555555  0.408203125 9.72916666666667  L 10.033203125 0.395833333333334  C 10.3053385416667 0.131944444444443  10.6276041666667 0  11 0  C 11.3723958333333 0  11.6946614583333 0.131944444444443  11.966796875 0.395833333333334  L 21.591796875 9.72916666666667  Z " fill-rule="nonzero" fill="#69cc06" stroke="none" transform="matrix(1 0 0 1 568 41 )" />
  </g>
</svg>