<?xml version="1.0" encoding="utf-8"?>
<svg version="1.1" xmlns:xlink="http://www.w3.org/1999/xlink" width="24px" height="24px" viewBox="100 2426.5  24 24" xmlns="http://www.w3.org/2000/svg">
  <path d="M 112 2426.5  C 118.72 2426.5  124 2431.78  124 2438.5  C 124 2445.22  118.72 2450.5  112 2450.5  C 105.28 2450.5  100 2445.22  100 2438.5  C 100 2431.78  105.28 2426.5  112 2426.5  Z " fill-rule="nonzero" fill="#f0f0f0" stroke="none" />
  <path d="M 112 2427  C 118.44 2427  123.5 2432.06  123.5 2438.5  C 123.5 2444.94  118.44 2450  112 2450  C 105.56 2450  100.5 2444.94  100.5 2438.5  C 100.5 2432.06  105.56 2427  112 2427  Z " stroke-width="1" stroke="#797979" fill="none" />
  <path d="M 112 2444.5  C 108.64 2444.5  106 2441.86  106 2438.5  C 106 2435.14  108.64 2432.5  112 2432.5  C 115.36 2432.5  118 2435.14  118 2438.5  C 118 2441.86  115.36 2444.5  112 2444.5  " fill-rule="nonzero" fill="#797979" stroke="none" />
</svg>