<?xml version="1.0" encoding="utf-8"?>
<svg version="1.1" xmlns:xlink="http://www.w3.org/1999/xlink" width="19px" height="17px" xmlns="http://www.w3.org/2000/svg">
  <g transform="matrix(1 0 0 1 -153 -48 )">
    <path d="M 1.46153846153846 13.0535714285714  L 1.46153846153846 15.7857142857143  L 4.75 15.7857142857143  L 4.75 13.0535714285714  L 1.46153846153846 13.0535714285714  Z M 5.48076923076923 13.0535714285714  L 5.48076923076923 15.7857142857143  L 9.13461538461539 15.7857142857143  L 9.13461538461539 13.0535714285714  L 5.48076923076923 13.0535714285714  Z M 1.46153846153846 9.41071428571429  L 1.46153846153846 12.4464285714286  L 4.75 12.4464285714286  L 4.75 9.41071428571429  L 1.46153846153846 9.41071428571429  Z M 5.48076923076923 9.41071428571429  L 5.48076923076923 12.4464285714286  L 9.13461538461539 12.4464285714286  L 9.13461538461539 9.41071428571429  L 5.48076923076923 9.41071428571429  Z M 1.46153846153846 6.07142857142857  L 1.46153846153846 8.80357142857143  L 4.75 8.80357142857143  L 4.75 6.07142857142857  L 1.46153846153846 6.07142857142857  Z M 9.86538461538462 13.0535714285714  L 9.86538461538462 15.7857142857143  L 13.5192307692308 15.7857142857143  L 13.5192307692308 13.0535714285714  L 9.86538461538462 13.0535714285714  Z M 5.48076923076923 6.07142857142857  L 5.48076923076923 8.80357142857143  L 9.13461538461539 8.80357142857143  L 9.13461538461539 6.07142857142857  L 5.48076923076923 6.07142857142857  Z M 14.25 13.0535714285714  L 14.25 15.7857142857143  L 17.5384615384615 15.7857142857143  L 17.5384615384615 13.0535714285714  L 14.25 13.0535714285714  Z M 9.86538461538462 9.41071428571429  L 9.86538461538462 12.4464285714286  L 13.5192307692308 12.4464285714286  L 13.5192307692308 9.41071428571429  L 9.86538461538462 9.41071428571429  Z M 5.73768028846154 4.46344866071429  C 5.80999599358974 4.40336681547619  5.84615384615385 4.33221726190476  5.84615384615385 4.25  L 5.84615384615385 1.51785714285714  C 5.84615384615385 1.43563988095238  5.80999599358974 1.36449032738095  5.73768028846154 1.30440848214286  C 5.66536458333333 1.24432663690476  5.57972756410256 1.21428571428571  5.48076923076923 1.21428571428571  L 4.75 1.21428571428571  C 4.65104166666667 1.21428571428571  4.5654046474359 1.24432663690476  4.49308894230769 1.30440848214286  C 4.42077323717949 1.36449032738095  4.38461538461539 1.43563988095238  4.38461538461539 1.51785714285714  L 4.38461538461539 4.25  C 4.38461538461539 4.33221726190476  4.42077323717949 4.40336681547619  4.49308894230769 4.46344866071429  C 4.5654046474359 4.52353050595238  4.65104166666667 4.55357142857143  4.75 4.55357142857143  L 5.48076923076923 4.55357142857143  C 5.57972756410256 4.55357142857143  5.66536458333333 4.52353050595238  5.73768028846154 4.46344866071429  Z M 14.25 9.41071428571429  L 14.25 12.4464285714286  L 17.5384615384615 12.4464285714286  L 17.5384615384615 9.41071428571429  L 14.25 9.41071428571429  Z M 9.86538461538462 6.07142857142857  L 9.86538461538462 8.80357142857143  L 13.5192307692308 8.80357142857143  L 13.5192307692308 6.07142857142857  L 9.86538461538462 6.07142857142857  Z M 14.25 6.07142857142857  L 14.25 8.80357142857143  L 17.5384615384615 8.80357142857143  L 17.5384615384615 6.07142857142857  L 14.25 6.07142857142857  Z M 14.5069110576923 4.46344866071429  C 14.5792267628205 4.40336681547619  14.6153846153846 4.33221726190476  14.6153846153846 4.25  L 14.6153846153846 1.51785714285714  C 14.6153846153846 1.43563988095238  14.5792267628205 1.36449032738095  14.5069110576923 1.30440848214286  C 14.4345953525641 1.24432663690476  14.3489583333333 1.21428571428571  14.25 1.21428571428571  L 13.5192307692308 1.21428571428571  C 13.4202724358974 1.21428571428571  13.3346354166667 1.24432663690476  13.2623197115385 1.30440848214286  C 13.1900040064103 1.36449032738095  13.1538461538462 1.43563988095238  13.1538461538462 1.51785714285714  L 13.1538461538462 4.25  C 13.1538461538462 4.33221726190476  13.1900040064103 4.40336681547619  13.2623197115385 4.46344866071429  C 13.3346354166667 4.52353050595238  13.4202724358974 4.55357142857143  13.5192307692308 4.55357142857143  L 14.25 4.55357142857143  C 14.3489583333333 4.55357142857143  14.4345953525641 4.52353050595238  14.5069110576923 4.46344866071429  Z M 18.5661057692308 2.7890625  C 18.8553685897436 3.02938988095238  19 3.31398809523809  19 3.64285714285714  L 19 15.7857142857143  C 19 16.1145833333333  18.8553685897436 16.399181547619  18.5661057692308 16.6395089285714  C 18.2768429487179 16.8798363095238  17.9342948717949 17  17.5384615384615 17  L 1.46153846153846 17  C 1.06570512820513 17  0.723157051282051 16.8798363095238  0.433894230769231 16.6395089285714  C 0.14463141025641 16.399181547619  0 16.1145833333333  0 15.7857142857143  L 0 3.64285714285714  C 0 3.31398809523809  0.14463141025641 3.02938988095238  0.433894230769231 2.7890625  C 0.723157051282051 2.54873511904762  1.06570512820513 2.42857142857143  1.46153846153846 2.42857142857143  L 2.92307692307692 2.42857142857143  L 2.92307692307692 1.51785714285714  C 2.92307692307692 1.10044642857143  3.10196314102564 0.743117559523809  3.45973557692308 0.445870535714286  C 3.81750801282051 0.148623511904762  4.24759615384615 0  4.75 0  L 5.48076923076923 0  C 5.98317307692308 0  6.41326121794872 0.148623511904762  6.77103365384615 0.445870535714286  C 7.12880608974359 0.743117559523809  7.30769230769231 1.10044642857143  7.30769230769231 1.51785714285714  L 7.30769230769231 2.42857142857143  L 11.6923076923077 2.42857142857143  L 11.6923076923077 1.51785714285714  C 11.6923076923077 1.10044642857143  11.8711939102564 0.743117559523809  12.2289663461538 0.445870535714286  C 12.5867387820513 0.148623511904762  13.0168269230769 0  13.5192307692308 0  L 14.25 0  C 14.7524038461538 0  15.1824919871795 0.148623511904762  15.5402644230769 0.445870535714286  C 15.8980368589744 0.743117559523809  16.0769230769231 1.10044642857143  16.0769230769231 1.51785714285714  L 16.0769230769231 2.42857142857143  L 17.5384615384615 2.42857142857143  C 17.9342948717949 2.42857142857143  18.2768429487179 2.54873511904762  18.5661057692308 2.7890625  Z " fill-rule="nonzero" fill="#8c8c8c" stroke="none" transform="matrix(1 0 0 1 153 48 )" />
  </g>
</svg>