<?xml version="1.0" encoding="utf-8"?>
<svg version="1.1" xmlns:xlink="http://www.w3.org/1999/xlink" width="20px" height="17px" xmlns="http://www.w3.org/2000/svg">
  <g transform="matrix(1 0 0 1 -338 -48 )">
    <path d="M 1.53846153846154 13.0535714285714  L 1.53846153846154 15.7857142857143  L 5 15.7857142857143  L 5 13.0535714285714  L 1.53846153846154 13.0535714285714  Z M 5.76923076923077 13.0535714285714  L 5.76923076923077 15.7857142857143  L 9.61538461538461 15.7857142857143  L 9.61538461538461 13.0535714285714  L 5.76923076923077 13.0535714285714  Z M 1.53846153846154 9.41071428571429  L 1.53846153846154 12.4464285714286  L 5 12.4464285714286  L 5 9.41071428571429  L 1.53846153846154 9.41071428571429  Z M 5.76923076923077 9.41071428571429  L 5.76923076923077 12.4464285714286  L 9.61538461538461 12.4464285714286  L 9.61538461538461 9.41071428571429  L 5.76923076923077 9.41071428571429  Z M 1.53846153846154 6.07142857142857  L 1.53846153846154 8.80357142857143  L 5 8.80357142857143  L 5 6.07142857142857  L 1.53846153846154 6.07142857142857  Z M 10.3846153846154 13.0535714285714  L 10.3846153846154 15.7857142857143  L 14.2307692307692 15.7857142857143  L 14.2307692307692 13.0535714285714  L 10.3846153846154 13.0535714285714  Z M 5.76923076923077 6.07142857142857  L 5.76923076923077 8.80357142857143  L 9.61538461538461 8.80357142857143  L 9.61538461538461 6.07142857142857  L 5.76923076923077 6.07142857142857  Z M 15 13.0535714285714  L 15 15.7857142857143  L 18.4615384615385 15.7857142857143  L 18.4615384615385 13.0535714285714  L 15 13.0535714285714  Z M 10.3846153846154 9.41071428571429  L 10.3846153846154 12.4464285714286  L 14.2307692307692 12.4464285714286  L 14.2307692307692 9.41071428571429  L 10.3846153846154 9.41071428571429  Z M 6.03966346153846 4.46344866071429  C 6.11578525641026 4.40336681547619  6.15384615384615 4.33221726190476  6.15384615384615 4.25  L 6.15384615384615 1.51785714285714  C 6.15384615384615 1.43563988095238  6.11578525641026 1.36449032738095  6.03966346153846 1.30440848214286  C 5.96354166666667 1.24432663690476  5.87339743589744 1.21428571428571  5.76923076923077 1.21428571428571  L 5 1.21428571428571  C 4.89583333333333 1.21428571428571  4.8056891025641 1.24432663690476  4.72956730769231 1.30440848214286  C 4.65344551282051 1.36449032738095  4.61538461538462 1.43563988095238  4.61538461538462 1.51785714285714  L 4.61538461538462 4.25  C 4.61538461538462 4.33221726190476  4.65344551282051 4.40336681547619  4.72956730769231 4.46344866071429  C 4.8056891025641 4.52353050595238  4.89583333333333 4.55357142857143  5 4.55357142857143  L 5.76923076923077 4.55357142857143  C 5.87339743589744 4.55357142857143  5.96354166666667 4.52353050595238  6.03966346153846 4.46344866071429  Z M 15 9.41071428571429  L 15 12.4464285714286  L 18.4615384615385 12.4464285714286  L 18.4615384615385 9.41071428571429  L 15 9.41071428571429  Z M 10.3846153846154 6.07142857142857  L 10.3846153846154 8.80357142857143  L 14.2307692307692 8.80357142857143  L 14.2307692307692 6.07142857142857  L 10.3846153846154 6.07142857142857  Z M 15 6.07142857142857  L 15 8.80357142857143  L 18.4615384615385 8.80357142857143  L 18.4615384615385 6.07142857142857  L 15 6.07142857142857  Z M 15.2704326923077 4.46344866071429  C 15.3465544871795 4.40336681547619  15.3846153846154 4.33221726190476  15.3846153846154 4.25  L 15.3846153846154 1.51785714285714  C 15.3846153846154 1.43563988095238  15.3465544871795 1.36449032738095  15.2704326923077 1.30440848214286  C 15.1943108974359 1.24432663690476  15.1041666666667 1.21428571428571  15 1.21428571428571  L 14.2307692307692 1.21428571428571  C 14.1266025641026 1.21428571428571  14.0364583333333 1.24432663690476  13.9603365384615 1.30440848214286  C 13.8842147435897 1.36449032738095  13.8461538461538 1.43563988095238  13.8461538461538 1.51785714285714  L 13.8461538461538 4.25  C 13.8461538461538 4.33221726190476  13.8842147435897 4.40336681547619  13.9603365384615 4.46344866071429  C 14.0364583333333 4.52353050595238  14.1266025641026 4.55357142857143  14.2307692307692 4.55357142857143  L 15 4.55357142857143  C 15.1041666666667 4.55357142857143  15.1943108974359 4.52353050595238  15.2704326923077 4.46344866071429  Z M 19.5432692307692 2.7890625  C 19.8477564102564 3.02938988095238  20 3.31398809523809  20 3.64285714285714  L 20 15.7857142857143  C 20 16.1145833333333  19.8477564102564 16.399181547619  19.5432692307692 16.6395089285714  C 19.2387820512821 16.8798363095238  18.8782051282051 17  18.4615384615385 17  L 1.53846153846154 17  C 1.12179487179487 17  0.761217948717949 16.8798363095238  0.456730769230769 16.6395089285714  C 0.15224358974359 16.399181547619  0 16.1145833333333  0 15.7857142857143  L 0 3.64285714285714  C 0 3.31398809523809  0.15224358974359 3.02938988095238  0.456730769230769 2.7890625  C 0.761217948717949 2.54873511904762  1.12179487179487 2.42857142857143  1.53846153846154 2.42857142857143  L 3.07692307692308 2.42857142857143  L 3.07692307692308 1.51785714285714  C 3.07692307692308 1.10044642857143  3.26522435897436 0.743117559523809  3.64182692307692 0.445870535714286  C 4.01842948717949 0.148623511904762  4.47115384615385 0  5 0  L 5.76923076923077 0  C 6.29807692307692 0  6.75080128205128 0.148623511904762  7.12740384615385 0.445870535714286  C 7.50400641025641 0.743117559523809  7.69230769230769 1.10044642857143  7.69230769230769 1.51785714285714  L 7.69230769230769 2.42857142857143  L 12.3076923076923 2.42857142857143  L 12.3076923076923 1.51785714285714  C 12.3076923076923 1.10044642857143  12.4959935897436 0.743117559523809  12.8725961538462 0.445870535714286  C 13.2491987179487 0.148623511904762  13.7019230769231 0  14.2307692307692 0  L 15 0  C 15.5288461538462 0  15.9815705128205 0.148623511904762  16.3581730769231 0.445870535714286  C 16.7347756410256 0.743117559523809  16.9230769230769 1.10044642857143  16.9230769230769 1.51785714285714  L 16.9230769230769 2.42857142857143  L 18.4615384615385 2.42857142857143  C 18.8782051282051 2.42857142857143  19.2387820512821 2.54873511904762  19.5432692307692 2.7890625  Z " fill-rule="nonzero" fill="#8c8c8c" stroke="none" transform="matrix(1 0 0 1 338 48 )" />
  </g>
</svg>