<?xml version="1.0" encoding="utf-8"?>
<svg version="1.1" xmlns:xlink="http://www.w3.org/1999/xlink" width="24px" height="24px" viewBox="100 51.5  24 24" xmlns="http://www.w3.org/2000/svg">
  <path d="M 112 51.5  C 118.72 51.5  124 56.78  124 63.5  C 124 70.22  118.72 75.5  112 75.5  C 105.28 75.5  100 70.22  100 63.5  C 100 56.78  105.28 51.5  112 51.5  Z " fill-rule="nonzero" fill="#f0f0f0" stroke="none" />
  <path d="M 112 52  C 118.44 52  123.5 57.06  123.5 63.5  C 123.5 69.94  118.44 75  112 75  C 105.56 75  100.5 69.94  100.5 63.5  C 100.5 57.06  105.56 52  112 52  Z " stroke-width="1" stroke="#02a7f0" fill="none" />
  <path d="M 112 69.5  C 108.64 69.5  106 66.86  106 63.5  C 106 60.14  108.64 57.5  112 57.5  C 115.36 57.5  118 60.14  118 63.5  C 118 66.86  115.36 69.5  112 69.5  " fill-rule="nonzero" fill="#02a7f0" stroke="none" />
</svg>