<?xml version="1.0" encoding="utf-8"?>
<svg version="1.1" xmlns:xlink="http://www.w3.org/1999/xlink" width="24px" height="24px" viewBox="100 3452.5  24 24" xmlns="http://www.w3.org/2000/svg">
  <path d="M 112 3452.5  C 118.72 3452.5  124 3457.78  124 3464.5  C 124 3471.22  118.72 3476.5  112 3476.5  C 105.28 3476.5  100 3471.22  100 3464.5  C 100 3457.78  105.28 3452.5  112 3452.5  Z " fill-rule="nonzero" fill="#f0f0f0" stroke="none" />
  <path d="M 112 3453  C 118.44 3453  123.5 3458.06  123.5 3464.5  C 123.5 3470.94  118.44 3476  112 3476  C 105.56 3476  100.5 3470.94  100.5 3464.5  C 100.5 3458.06  105.56 3453  112 3453  Z " stroke-width="1" stroke="#797979" fill="none" />
  <path d="M 112 3470.5  C 108.64 3470.5  106 3467.86  106 3464.5  C 106 3461.14  108.64 3458.5  112 3458.5  C 115.36 3458.5  118 3461.14  118 3464.5  C 118 3467.86  115.36 3470.5  112 3470.5  " fill-rule="nonzero" fill="#797979" stroke="none" />
</svg>