<?xml version="1.0" encoding="utf-8"?>
<svg version="1.1" xmlns:xlink="http://www.w3.org/1999/xlink" width="16px" height="16px" viewBox="284 127  16 16" xmlns="http://www.w3.org/2000/svg">
  <path d="M 292 127  C 296.48 127  300 130.52  300 135  C 300 139.48  296.48 143  292 143  C 287.52 143  284 139.48  284 135  C 284 130.52  287.52 127  292 127  Z " fill-rule="nonzero" fill="#f0f0f0" stroke="none" />
  <path d="M 292 127.5  C 296.2 127.5  299.5 130.8  299.5 135  C 299.5 139.2  296.2 142.5  292 142.5  C 287.8 142.5  284.5 139.2  284.5 135  C 284.5 130.8  287.8 127.5  292 127.5  Z " stroke-width="1" stroke="#797979" fill="none" />
  <path d="M 292 139  C 289.76 139  288 137.24  288 135  C 288 132.76  289.76 131  292 131  C 294.24 131  296 132.76  296 135  C 296 137.24  294.24 139  292 139  " fill-rule="nonzero" fill="#797979" stroke="none" />
</svg>