<?xml version="1.0" encoding="utf-8"?>
<svg version="1.1" xmlns:xlink="http://www.w3.org/1999/xlink" width="16px" height="16px" viewBox="165 127  16 16" xmlns="http://www.w3.org/2000/svg">
  <path d="M 173 127  C 177.48 127  181 130.52  181 135  C 181 139.48  177.48 143  173 143  C 168.52 143  165 139.48  165 135  C 165 130.52  168.52 127  173 127  Z " fill-rule="nonzero" fill="#f0f0f0" stroke="none" />
  <path d="M 173 127.5  C 177.2 127.5  180.5 130.8  180.5 135  C 180.5 139.2  177.2 142.5  173 142.5  C 168.8 142.5  165.5 139.2  165.5 135  C 165.5 130.8  168.8 127.5  173 127.5  Z " stroke-width="1" stroke="#797979" fill="none" />
  <path d="M 173 139  C 170.76 139  169 137.24  169 135  C 169 132.76  170.76 131  173 131  C 175.24 131  177 132.76  177 135  C 177 137.24  175.24 139  173 139  " fill-rule="nonzero" fill="#797979" stroke="none" />
</svg>