<?xml version="1.0" encoding="utf-8"?>
<svg version="1.1" xmlns:xlink="http://www.w3.org/1999/xlink" width="16px" height="16px" viewBox="45 127  16 16" xmlns="http://www.w3.org/2000/svg">
  <path d="M 53 127  C 57.48 127  61 130.52  61 135  C 61 139.48  57.48 143  53 143  C 48.52 143  45 139.48  45 135  C 45 130.52  48.52 127  53 127  Z " fill-rule="nonzero" fill="#ffffff" stroke="none" />
  <path d="M 53 127.5  C 57.2 127.5  60.5 130.8  60.5 135  C 60.5 139.2  57.2 142.5  53 142.5  C 48.8 142.5  45.5 139.2  45.5 135  C 45.5 130.8  48.8 127.5  53 127.5  Z " stroke-width="1" stroke="#797979" fill="none" />
  <path d="M 53 139  C 50.76 139  49 137.24  49 135  C 49 132.76  50.76 131  53 131  C 55.24 131  57 132.76  57 135  C 57 137.24  55.24 139  53 139  " fill-rule="nonzero" fill="#797979" stroke="none" />
</svg>