<?xml version="1.0" encoding="utf-8"?>
<svg version="1.1" xmlns:xlink="http://www.w3.org/1999/xlink" width="70px" height="74px" xmlns="http://www.w3.org/2000/svg">
  <g transform="matrix(1 0 0 1 -384 -122 )">
    <path d="M 17.8575721153846 55.8211805555556  C 18.9092548076923 56.8917824074074  19.4350961538462 58.1836419753086  19.4350961538462 59.6967592592593  C 19.4350961538462 61.2098765432099  18.9092548076923 62.5017361111111  17.8575721153846 63.572337962963  C 16.8058894230769 64.6429398148148  15.536858974359 65.1782407407407  14.0504807692308 65.1782407407407  C 12.5921474358974 65.1782407407407  11.3301282051282 64.6358024691358  10.2644230769231 63.5509259259259  C 9.19871794871795 62.4660493827161  8.66586538461539 61.1813271604938  8.66586538461539 59.6967592592593  C 8.66586538461539 58.1836419753086  9.19170673076923 56.8917824074074  10.2433894230769 55.8211805555556  C 11.2950721153846 54.7505787037037  12.5641025641026 54.2152777777778  14.0504807692308 54.2152777777778  C 15.536858974359 54.2152777777778  16.8058894230769 54.7505787037037  17.8575721153846 55.8211805555556  Z M 38.8070913461538 64.6429398148148  C 39.8587740384615 65.7135416666667  40.3846153846154 67.0054012345679  40.3846153846154 68.5185185185185  C 40.3846153846154 70.0316358024691  39.8587740384615 71.3234953703704  38.8070913461538 72.3940972222222  C 37.7554086538462 73.4646990740741  36.4863782051282 74  35 74  C 33.5136217948718 74  32.2445913461538 73.4646990740741  31.1929086538462 72.3940972222222  C 30.1412259615385 71.3234953703704  29.6153846153846 70.0316358024691  29.6153846153846 68.5185185185185  C 29.6153846153846 67.0054012345679  30.1412259615385 65.7135416666667  31.1929086538462 64.6429398148148  C 32.2445913461538 63.572337962963  33.5136217948718 63.037037037037  35 63.037037037037  C 36.4863782051282 63.037037037037  37.7554086538462 63.572337962963  38.8070913461538 64.6429398148148  Z M 9.19170673076923 34.4947916666667  C 10.2433894230769 35.5653935185185  10.7692307692308 36.8572530864198  10.7692307692308 38.3703703703704  C 10.7692307692308 39.883487654321  10.2433894230769 41.1753472222222  9.19170673076923 42.2459490740741  C 8.14002403846154 43.3165509259259  6.87099358974359 43.8518518518518  5.38461538461539 43.8518518518518  C 3.89823717948718 43.8518518518518  2.62920673076923 43.3165509259259  1.57752403846154 42.2459490740741  C 0.525841346153846 41.1753472222222  0 39.883487654321  0 38.3703703703704  C 0 36.8572530864198  0.525841346153846 35.5653935185185  1.57752403846154 34.4947916666667  C 2.62920673076923 33.4241898148148  3.89823717948718 32.8888888888889  5.38461538461539 32.8888888888889  C 6.87099358974359 32.8888888888889  8.14002403846154 33.4241898148148  9.19170673076923 34.4947916666667  Z M 59.7566105769231 55.8211805555556  C 60.8082932692308 56.8917824074074  61.3341346153846 58.1836419753086  61.3341346153846 59.6967592592593  C 61.3341346153846 61.1813271604938  60.8012820512821 62.4660493827161  59.7355769230769 63.5509259259259  C 58.6698717948718 64.6358024691358  57.4078525641026 65.1782407407407  55.9495192307692 65.1782407407407  C 54.463141025641 65.1782407407407  53.1941105769231 64.6429398148148  52.1424278846154 63.572337962963  C 51.0907451923077 62.5017361111111  50.5649038461538 61.2098765432099  50.5649038461538 59.6967592592593  C 50.5649038461538 58.1836419753086  51.0907451923077 56.8917824074074  52.1424278846154 55.8211805555556  C 53.1941105769231 54.7505787037037  54.463141025641 54.2152777777778  55.9495192307692 54.2152777777778  C 57.4358974358974 54.2152777777778  58.7049278846154 54.7505787037037  59.7566105769231 55.8211805555556  Z M 18.8040865384615 12.2048611111111  C 20.1221955128205 13.5466820987654  20.78125 15.1597222222222  20.78125 17.0439814814815  C 20.78125 18.9282407407407  20.1221955128205 20.5412808641975  18.8040865384615 21.8831018518518  C 17.4859775641026 23.2249228395062  15.9014423076923 23.8958333333333  14.0504807692308 23.8958333333333  C 12.1995192307692 23.8958333333333  10.614983974359 23.2249228395062  9.296875 21.8831018518518  C 7.97876602564103 20.5412808641975  7.31971153846154 18.9282407407407  7.31971153846154 17.0439814814815  C 7.31971153846154 15.1597222222222  7.97876602564103 13.5466820987654  9.296875 12.2048611111111  C 10.614983974359 10.8630401234568  12.1995192307692 10.1921296296296  14.0504807692308 10.1921296296296  C 15.9014423076923 10.1921296296296  17.4859775641026 10.8630401234568  18.8040865384615 12.2048611111111  Z M 68.4224759615385 34.4947916666667  C 69.4741586538462 35.5653935185185  70 36.8572530864198  70 38.3703703703704  C 70 39.883487654321  69.4741586538462 41.1753472222222  68.4224759615385 42.2459490740741  C 67.3707932692308 43.3165509259259  66.1017628205128 43.8518518518518  64.6153846153846 43.8518518518518  C 63.1290064102564 43.8518518518518  61.8599759615385 43.3165509259259  60.8082932692308 42.2459490740741  C 59.7566105769231 41.1753472222222  59.2307692307692 39.883487654321  59.2307692307692 38.3703703703704  C 59.2307692307692 36.8572530864198  59.7566105769231 35.5653935185185  60.8082932692308 34.4947916666667  C 61.8599759615385 33.4241898148148  63.1290064102564 32.8888888888889  64.6153846153846 32.8888888888889  C 66.1017628205128 32.8888888888889  67.3707932692308 33.4241898148148  68.4224759615385 34.4947916666667  Z M 40.7211538461538 2.39814814814815  C 42.2916666666667 3.99691358024691  43.0769230769231 5.93827160493827  43.0769230769231 8.22222222222222  C 43.0769230769231 10.5061728395062  42.2916666666667 12.4475308641975  40.7211538461538 14.0462962962963  C 39.150641025641 15.6450617283951  37.2435897435897 16.4444444444444  35 16.4444444444444  C 32.7564102564103 16.4444444444444  30.849358974359 15.6450617283951  29.2788461538462 14.0462962962963  C 27.7083333333333 12.4475308641975  26.9230769230769 10.5061728395062  26.9230769230769 8.22222222222222  C 26.9230769230769 5.93827160493827  27.7083333333333 3.99691358024691  29.2788461538462 2.39814814814815  C 30.849358974359 0.799382716049386  32.7564102564103 0  35 0  C 37.2435897435897 0  39.150641025641 0.799382716049386  40.7211538461538 2.39814814814815  Z M 62.5961538461538 10.2777777777778  C 64.4471153846154 12.162037037037  65.3725961538461 14.4174382716049  65.3725961538461 17.0439814814815  C 65.3725961538461 19.6990740740741  64.4471153846154 21.961612654321  62.5961538461538 23.8315972222222  C 60.7451923076923 25.7015817901235  58.5296474358974 26.6365740740741  55.9495192307692 26.6365740740741  C 53.3413461538462 26.6365740740741  51.1187900641026 25.7015817901235  49.2818509615385 23.8315972222222  C 47.4449118589744 21.961612654321  46.5264423076923 19.6990740740741  46.5264423076923 17.0439814814815  C 46.5264423076923 14.4174382716049  47.4449118589744 12.162037037037  49.2818509615385 10.2777777777778  C 51.1187900641026 8.39351851851852  53.3413461538462 7.45138888888889  55.9495192307692 7.45138888888889  C 58.5296474358974 7.45138888888889  60.7451923076923 8.39351851851852  62.5961538461538 10.2777777777778  Z " fill-rule="nonzero" fill="#555555" stroke="none" transform="matrix(1 0 0 1 384 122 )" />
  </g>
</svg>