<?xml version="1.0" encoding="utf-8"?>
<svg version="1.1" xmlns:xlink="http://www.w3.org/1999/xlink" width="10px" height="10px" xmlns="http://www.w3.org/2000/svg">
  <g transform="matrix(1 0 0 1 -350 -137 )">
    <path d="M 355 138.5  C 356.96 138.5  358.5 140.04  358.5 142  C 358.5 143.96  356.96 145.5  355 145.5  C 353.04 145.5  351.5 143.96  351.5 142  C 351.5 140.04  353.04 138.5  355 138.5  Z " fill-rule="nonzero" fill="#ffffff" stroke="none" />
    <path d="M 355 138  C 357.24 138  359 139.76  359 142  C 359 144.24  357.24 146  355 146  C 352.76 146  351 144.24  351 142  C 351 139.76  352.76 138  355 138  Z " stroke-width="2" stroke="#ec808d" fill="none" stroke-opacity="0.819607843137255" />
  </g>
</svg>