<?xml version="1.0" encoding="utf-8"?>
<svg version="1.1" xmlns:xlink="http://www.w3.org/1999/xlink" width="10px" height="10px" xmlns="http://www.w3.org/2000/svg">
  <g transform="matrix(1 0 0 1 -206 -92 )">
    <path d="M 211 93  C 213.24 93  215 94.76  215 97  C 215 99.24  213.24 101  211 101  C 208.76 101  207 99.24  207 97  C 207 94.76  208.76 93  211 93  Z " fill-rule="nonzero" fill="#ffffff" stroke="none" />
    <path d="M 211 93  C 213.24 93  215 94.76  215 97  C 215 99.24  213.24 101  211 101  C 208.76 101  207 99.24  207 97  C 207 94.76  208.76 93  211 93  Z " stroke-width="2" stroke="#e8e8e8" fill="none" />
  </g>
</svg>