<?xml version="1.0" encoding="utf-8"?>
<svg version="1.1" xmlns:xlink="http://www.w3.org/1999/xlink" width="1103px" height="254px" xmlns="http://www.w3.org/2000/svg">
  <defs>
    <mask fill="white" id="clip8">
      <path d="M 0 254  L 0 243.383177570093  L 97.9439252336448 225.308411214953  L 203.267605633803 233  L 301.999999999998 183.999999999999  L 393.999999999999 175.000000000001  L 494.999999999998 123.999999999999  L 587.000000000001 57  L 697.943925233645 95.3364485981308  L 792 105  L 867.102803738318 64.5607476635514  L 964.766355140187 27.1775700934579  L 1103 0.542056074766435  L 1103 254  L 0 254  Z " fill-rule="evenodd" />
    </mask>
  </defs>
  <g transform="matrix(1 0 0 1 -83 -15 )">
    <path d="M 0 254  L 0 243.383177570093  L 97.9439252336448 225.308411214953  L 203.267605633803 233  L 301.999999999998 183.999999999999  L 393.999999999999 175.000000000001  L 494.999999999998 123.999999999999  L 587.000000000001 57  L 697.943925233645 95.3364485981308  L 792 105  L 867.102803738318 64.5607476635514  L 964.766355140187 27.1775700934579  L 1103 0.542056074766435  L 1103 254  L 0 254  Z " fill-rule="nonzero" fill="#facd91" stroke="none" fill-opacity="0.133333333333333" transform="matrix(1 0 0 1 83 15 )" />
    <path d="M 0 254  L 0 243.383177570093  L 97.9439252336448 225.308411214953  L 203.267605633803 233  L 301.999999999998 183.999999999999  L 393.999999999999 175.000000000001  L 494.999999999998 123.999999999999  L 587.000000000001 57  L 697.943925233645 95.3364485981308  L 792 105  L 867.102803738318 64.5607476635514  L 964.766355140187 27.1775700934579  L 1103 0.542056074766435  L 1103 254  L 0 254  Z " stroke-width="2" stroke="#f59a23" fill="none" stroke-opacity="0.996078431372549" transform="matrix(1 0 0 1 83 15 )" mask="url(#clip8)" />
  </g>
</svg>