<?xml version="1.0" encoding="utf-8"?>
<svg version="1.1" xmlns:xlink="http://www.w3.org/1999/xlink" width="1103px" height="234px" xmlns="http://www.w3.org/2000/svg">
  <defs>
    <mask fill="white" id="clip4">
      <path d="M 0 234  L 0 177.738317757009  L 94.2056074766355 165.588785046729  L 199.81308411215 220.728971962617  L 301.999999999998 138.999999999999  L 393.999999999999 127.000000000001  L 494.999999999998 103.999999999999  L 576.448598130841 47.8317757009345  L 690.467289719626 103.999999999999  L 776.448598130841 93.0000000000001  L 858.691588785047 66.5233644859811  L 976.448598130841 47.8317757009345  L 1103 0.635514018691595  L 1103 234  L 0 234  Z " fill-rule="evenodd" />
    </mask>
  </defs>
  <g transform="matrix(1 0 0 1 -83 -35 )">
    <path d="M 0 234  L 0 177.738317757009  L 94.2056074766355 165.588785046729  L 199.81308411215 220.728971962617  L 301.999999999998 138.999999999999  L 393.999999999999 127.000000000001  L 494.999999999998 103.999999999999  L 576.448598130841 47.8317757009345  L 690.467289719626 103.999999999999  L 776.448598130841 93.0000000000001  L 858.691588785047 66.5233644859811  L 976.448598130841 47.8317757009345  L 1103 0.635514018691595  L 1103 234  L 0 234  Z " fill-rule="nonzero" fill="#0cb0b9" stroke="none" fill-opacity="0.133333333333333" transform="matrix(1 0 0 1 83 35 )" />
    <path d="M 0 234  L 0 177.738317757009  L 94.2056074766355 165.588785046729  L 199.81308411215 220.728971962617  L 301.999999999998 138.999999999999  L 393.999999999999 127.000000000001  L 494.999999999998 103.999999999999  L 576.448598130841 47.8317757009345  L 690.467289719626 103.999999999999  L 776.448598130841 93.0000000000001  L 858.691588785047 66.5233644859811  L 976.448598130841 47.8317757009345  L 1103 0.635514018691595  L 1103 234  L 0 234  Z " stroke-width="2" stroke="#0cb0b9" fill="none" stroke-opacity="0.996078431372549" transform="matrix(1 0 0 1 83 35 )" mask="url(#clip4)" />
  </g>
</svg>