<?xml version="1.0" encoding="utf-8"?>
<svg version="1.1" xmlns:xlink="http://www.w3.org/1999/xlink" width="1103px" height="250px" xmlns="http://www.w3.org/2000/svg">
  <defs>
    <mask fill="white" id="clip5">
      <path d="M 0 250  L 0 153.551401869159  L 96.0654205607477 168.03738317757  L 195.598130841122 196.542056074766  L 292.327102803738 176  L 389.056074766355 168.03738317757  L 491.859813084112 153.551401869159  L 580.644859813084 74.5794392523364  L 676.439252336449 97.4766355140186  L 777.373831775701 121.775700934579  L 876.439252336449 82.9906542056073  L 983.448598130841 44.6728971962616  L 1103 0.747663551401729  L 1103 250  L 0 250  Z " fill-rule="evenodd" />
    </mask>
  </defs>
  <g transform="matrix(1 0 0 1 -76 -19 )">
    <path d="M 0 250  L 0 153.551401869159  L 96.0654205607477 168.03738317757  L 195.598130841122 196.542056074766  L 292.327102803738 176  L 389.056074766355 168.03738317757  L 491.859813084112 153.551401869159  L 580.644859813084 74.5794392523364  L 676.439252336449 97.4766355140186  L 777.373831775701 121.775700934579  L 876.439252336449 82.9906542056073  L 983.448598130841 44.6728971962616  L 1103 0.747663551401729  L 1103 250  L 0 250  Z " fill-rule="nonzero" fill="#3b81de" stroke="none" fill-opacity="0.211764705882353" transform="matrix(1 0 0 1 76 19 )" />
    <path d="M 0 250  L 0 153.551401869159  L 96.0654205607477 168.03738317757  L 195.598130841122 196.542056074766  L 292.327102803738 176  L 389.056074766355 168.03738317757  L 491.859813084112 153.551401869159  L 580.644859813084 74.5794392523364  L 676.439252336449 97.4766355140186  L 777.373831775701 121.775700934579  L 876.439252336449 82.9906542056073  L 983.448598130841 44.6728971962616  L 1103 0.747663551401729  L 1103 250  L 0 250  Z " stroke-width="2" stroke="#3b81de" fill="none" stroke-opacity="0.898039215686275" transform="matrix(1 0 0 1 76 19 )" mask="url(#clip5)" />
  </g>
</svg>