<?xml version="1.0" encoding="utf-8"?>
<svg version="1.1" xmlns:xlink="http://www.w3.org/1999/xlink" width="271px" height="29px" xmlns="http://www.w3.org/2000/svg">
  <defs>
    <mask fill="white" id="clip309">
      <path d="M 0 29  L 0 0  L 23.8518518518518 0  L 271 0  L 271 29  L 31.2592592592593 29  L 0 29  Z " fill-rule="evenodd" />
    </mask>
  </defs>
  <g transform="matrix(1 0 0 1 -9 -9546 )">
    <path d="M 0 29  L 0 0  L 23.8518518518518 0  L 271 0  L 271 29  L 31.2592592592593 29  L 0 29  Z " fill-rule="nonzero" fill="#ffffff" stroke="none" transform="matrix(1 0 0 1 9 9546 )" />
    <path d="M 0 29  L 0 0  L 23.8518518518518 0  L 271 0  L 271 29  L 31.2592592592593 29  L 0 29  Z " stroke-width="2" stroke="#d7d7d7" fill="none" transform="matrix(1 0 0 1 9 9546 )" mask="url(#clip309)" />
  </g>
</svg>