<?xml version="1.0" encoding="utf-8"?>
<svg version="1.1" xmlns:xlink="http://www.w3.org/1999/xlink" width="161px" height="221px" xmlns="http://www.w3.org/2000/svg">
  <g transform="matrix(1 0 0 1 -991 -438 )">
    <path d="M 11.9983217003061 62.7121367073036  L 5.60384741404399 56.3194433385962  L 0.36702764556208 43.3613649498077  L 7.6618998900965 44.6476477473404  L 24.0929418322245 19.7146729186142  L 30.8352434604699 31.6432604750976  L 40.7002372608347 27.9081622038672  L 33.3080182755595 14.3766924669757  L 53.0116124157476 0.744443247714023  L 79.9180748123942 14.5147928515339  L 100.771884390418 12.9791161813334  L 123.034946883339 30.1979708766293  L 134.723086142312 79.0866488549271  L 160.124729800876 71.5309582157762  L 150.091723980119 128.430961723148  L 135.33106875723 131.09343497901  L 126.748132797608 124.314856771043  L 122.894577728815 146.169453573585  L 133.78752940019 139.847281672452  L 135.376913046406 152.162218662474  L 144.946592789988 157.610450701288  L 141.859514075909 175.118144088172  L 131.64669293356 173.317348171626  L 128.045101100468 193.742990456324  L 113.628048262773 198.722553665299  L 106.248611110106 205.853469585908  L 98.5696349438662 220.136720651512  L 90.9598499431921 211.42250520232  L 83.9798904547963 217.564155056446  L 81.547609135746 201.498016487295  L 71.3803887037453 207.97011791807  L 66.5401971717881 207.116661559189  L 64.5797125730157 182.552330117789  L 56.5553531040275 181.137419040502  L 53.1633926237116 166.248135537859  L 55.3500733795174 153.84685272215  L 45.2950684503857 146.82978154791  L 20.5019937280362 142.458093539638  L 17.7934895540629 127.637296026557  C 18.4448668034685 131.552863933145  31.6593179767028 121.839322506993  31.6593179767028 121.839322506993  C 31.6593179767028 121.839322506993  50.7010598115569 116.170881024289  50.7010598115569 116.170881024289  C 50.7010598115569 116.170881024289  53.530881966129 100.122162086313  53.530881966129 100.122162086313  C 53.530881966129 100.122162086313  42.6385660449075 80.9016921119105  42.6385660449075 80.9016921119105  C 42.6385660449075 80.9016921119105  33.8829384339108 66.5709850999021  33.8829384339108 66.5709850999021  C 33.8829384339108 66.5709850999021  16.3752450470272 63.4839063858233  16.3752450470272 63.4839063858233  L 11.9983217003061 62.7121367073036  Z " fill-rule="nonzero" fill="#f8c5cd" stroke="none" fill-opacity="0.556862745098039" transform="matrix(1 0 0 1 991 438 )" />
  </g>
</svg>