<?xml version="1.0" encoding="utf-8"?>
<svg version="1.1" xmlns:xlink="http://www.w3.org/1999/xlink" width="176px" height="106px" xmlns="http://www.w3.org/2000/svg">
  <g transform="matrix(1 0 0 1 -851 -693 )">
    <path d="M 69.1367231065537 21.768467708769  L 58.307022358134 18.5033111923129  C 64.4153690647691 16.923744089391  70.1603064235917 15.9634382519873  70.1603064235917 15.9634382519873  C 70.1603064235917 15.9634382519873  76.4720968876002 5.76203122485856  76.4720968876002 5.76203122485856  L 85.3122894067291 11.0816349839189  L 89.4424762193689 17.5184729958494  L 91.06184137667 8.33459681992422  L 99.9002529782439 0.867032924015331  L 104.998993521856 6.07668568359922  L 114.810891361886 12.5221950985117  L 125.134234956722 14.3424791054053  L 131.990020826635 10.8359320344707  L 130.540497322846 19.0565883286224  L 123.514869799421 23.5263552813304  L 122.407603737361 29.8059731685692  L 111.919660704317 28.9191789631025  L 121.771367636591 33.4142473998522  L 133.19118456813 31.7074094176844  L 144.753590191107 31.119529447892  L 153.66521314449 36.5506107125032  L 154.087274334189 31.0257806058693  L 163.040304863777 32.3406879451521  L 170.535447305589 39.6477985944752  L 175.191465436925 65.6503011977395  L 143.597387960204 105.007596123494  L 111.885522142134 89.4796632241145  L 97.5092836223261 86.9447444919721  L 99.1814512591188 77.4614105740767  L 93.5164641973102 71.1973454851229  L 89.786244084465 92.352474994274  L 45.2123751678412 92.7667457369278  L 22.2893155130392 95.4943025853016  L 13.9231345764119 104.549469209871  L 0.0628773117957324 102.105531894558  L 8.12773831729563 86.2277236904012  L 9.54264939458172 78.203364221413  L 18.2964960880235 79.7469035784523  L 26.0195356258844 74.3391730761504  L 34.9865755072118 66.1421219557878  L 43.8394187439357 56.0138657215715  L 53.7689094351093 44.2402285080347  L 63.0876321230404 30.4800319481445  L 69.1367231065537 21.768467708769  Z " fill-rule="nonzero" fill="#f8c5cd" stroke="none" fill-opacity="0.556862745098039" transform="matrix(1 0 0 1 851 693 )" />
  </g>
</svg>