<?xml version="1.0" encoding="utf-8"?>
<svg version="1.1" xmlns:xlink="http://www.w3.org/1999/xlink" width="193px" height="270px" xmlns="http://www.w3.org/2000/svg">
  <g transform="matrix(1 0 0 1 -884 -207 )">
    <path d="M 10.1458055526278 140.730559409429  L 8.44338673662503 134.377045892348  L 13.1206119563461 124.122908885265  L 21.3809732718073 123.359339179752  L 21.3080864716901 116.680390480168  L 23.6498270301732 110.348416596884  L 24.7870544106458 104.743018929945  L 29.5604951507366 96.8750857456299  L 36.765643791977 100.432785705429  L 39.4702052868895 95.3955853414632  L 45.242310282305 91.8262935605279  L 50.1095830352304 94.5891444937713  L 56.8138966115367 85.8026510578648  L 61.3221554236691 85.3735447290232  L 61.6077506196452 77.0947418791533  L 53.7331727136723 68.46853124332  L 54.4162131229661 64.1864589832225  L 52.333468753227 63.2447649473825  L 51.0306156228334 57.5553153910701  L 55.3766945098914 53.8401238927396  L 54.2910048405847 45.5626681505167  L 59.440801648444 38.4324590370367  L 59.3053467675212 34.1853002818587  L 66.0823111149689 33.7021114026084  L 71.4074995669344 42.7157799669352  L 72.7670347624036 48.7756792946538  L 79.5789931003535 45.5335163783316  L 83.1938013390747 42.2895656514223  L 89.9146186295535 30.7304052543955  L 95.7875487530041 34.7693686462617  L 97.8810177781557 29.6159080817077  L 99.5539131719602 26.496951786071  L 104.064778597255 27.5412809051762  L 112.024858080629 25.5714706502555  L 110.452035720232 17.8985325809837  L 109.985248303205 9.55752861574964  L 120.186428958623 6.71472321593533  L 120.043562077342 0.989030062133678  L 126.988262107905 0.16347947767821  L 135.200351447424 5.94931805176915  L 135.578321314358 10.9942858555212  L 140.593432502137 16.0623840425529  L 143.337184383136 15.7970576851815  L 145.37722370654 20.4079781371317  L 143.296203891722 25.6636175962697  L 149.747148328805 29.7048528544237  L 150.705737384741 33.2823559147536  L 156.680167495491 31.6815121913419  L 162.852783881436 33.2443595908493  L 172.002746475671 30.6816680688708  L 171.077413331825 34.9556843724222  L 168.458276396548 41.2939836479967  L 165.957834258751 49.1342212379351  L 171.075224519251 51.0605670026963  L 175.362306411856 50.947123052097  L 177.543391218977 51.3596357575786  L 183.780362447536 53.8295490753107  L 190.059710173649 61.8095806069309  L 192.59235260322 71.2615308314953  L 182.887394746024 79.0311350466592  L 182.712495658305 94.4914541551008  L 169.302365069885 102.685915285154  L 168.152058202763 98.3929116127573  L 156.233467124047 96.9852609987274  L 160.076068939308 88.2869264980111  L 157.031972183541 80.7899060474923  L 153.379710267303 74.7437855014402  L 143.944134841768 70.8686654231873  L 137.782066922573 67.1900313948417  L 139.985162040756 56.0935777840249  L 126.864119640225 60.6446266795117  L 119.567043954236 56.4649022586971  L 110.524602131112 51.1807612330875  L 83.594397917706 59.4319638844853  L 80.3474828655233 101.337453032248  L 112.721197288104 125.571400622227  L 126.907799693264 138.081708959867  L 143.200777308497 144.667195909335  L 137.111261207477 155.909945299881  L 132.007647584905 158.271436696779  L 134.061655356883 164.122399419597  L 125.751707552722 167.885738630784  L 128.738792220984 174.978700418084  L 118.249360654999 187.347534511724  L 122.100980010435 199.686803471918  L 116.659858096692 197.34886163505  L 113.600043424458 202.478404427849  L 102.920468227561 204.923183930456  L 89.375821871607 203.491724030555  L 86.7923510031887 211.784909239456  L 86.5875047646717 222.999195132328  L 84.9568625256385 230.942633063981  L 80.359490790865 236.05409604004  L 72.4489329706496 240.346992937333  L 66.4102936207294 241.626450186567  L 58.3335010689918 242.965523177856  L 56.9348170309291 249.142200239173  L 51.7284733221833 250.389208836329  L 48.01114655279 259.164043724814  L 41.9867936646577 260.859029058619  L 31.8257207957454 269  L 18.6977980225201 269  L 22.3267362802235 240.217816152739  L 14.8898467508045 232.944802576798  L 12.3629615505199 219.357014420144  L 8.55872289676252 216.309192262046  L 5.86763672611063 210.107899690603  L 12.1272029643074 196.852030994003  L 12.4014442979317 190.702551377787  L 9.10165006891839 181.656718708063  L 0.683867974090624 170.909073967086  L 6.27693886804795 160.847913311033  L 6.37924071178742 154.065642008396  L 4.70143434601788 147.80398340608  L 10.1458055526278 140.730559409429  Z " fill-rule="nonzero" fill="#caf982" stroke="none" fill-opacity="0.486274509803922" transform="matrix(1 0 0 1 884 207 )" />
  </g>
</svg>