<?xml version="1.0" encoding="utf-8"?>
<svg version="1.1" xmlns:xlink="http://www.w3.org/1999/xlink" width="115px" height="121px" xmlns="http://www.w3.org/2000/svg">
  <g transform="matrix(1 0 0 1 -998 -623 )">
    <path d="M 18.4803111843466 48.5614472200395  L 24.0148890488466 42.7678318784779  L 21.0528767794122 33.9717027309699  L 26.973339483172 25.9896257160474  L 38.9621266861294 28.1035723659012  L 36.7625219385858 13.1299723621368  L 46.2458558564809 14.8021399989294  L 47.7390223179538 6.33397219231478  L 52.1159456646749 7.10574187083449  L 61.4926859471744 8.75911417373506  L 70.5277309799716 0.799704554600895  L 80.0927372487588 3.50169984231941  L 82.5531222055185 30.7127079324825  L 96.5804743437719 23.6774913019058  L 99.9220619285208 38.8524536913757  L 107.60830859294 33.6533859433168  L 114.51180641759 41.4250192864413  L 88.5551481035021 69.1913781048493  L 86.6257239072032 80.1336864716514  L 74.2244410914939 77.9470057158456  L 64.1232050648628 94.0694173846509  L 45.2855226982612 100.674504454875  L 27.544382396689 120.863466431512  L 20.376357514353 106.060528754557  L 16.4512149468273 85.6635593027738  L 8.44374352848111 79.8871154174734  L 0.419384059492634 78.4722043401873  L 2.73469309505177 65.341434300024  L 9.04104063807198 55.1708956117416  L 18.4803111843466 48.5614472200395  Z " fill-rule="nonzero" fill="#f8c5cd" stroke="none" fill-opacity="0.556862745098039" transform="matrix(1 0 0 1 998 623 )" />
  </g>
</svg>