<?xml version="1.0" encoding="utf-8"?>
<svg version="1.1" xmlns:xlink="http://www.w3.org/1999/xlink" width="186px" height="100px" xmlns="http://www.w3.org/2000/svg">
  <g transform="matrix(1 0 0 1 -973 -350 )">
    <path d="M 14.88516025088 54.2782748142585  L 16.5573278876727 44.7949408963631  L 18.100867244712 36.0410942029214  L 23.351434362545 33.2060715465354  L 31.9170611377072 30.2034154897386  L 33.7423424072667 19.8517310099971  L 42.7879597764803 23.252291419681  L 42.771242761268 15.5696076290482  L 46.4186788835354 16.2127490278147  L 58.5609242221836 7.0712365775584  L 71.6916942623458 9.38654561311738  L 82.2463368723337 0.717263827807701  L 101.320520793997 9.55389451182738  L 105.153664242408 15.2867937482591  L 105.290136300022 32.4675374834582  L 120.613182589905 39.0734240400511  L 131.768684144593 31.2622577589486  L 137.303262009093 25.468642417387  L 148.658095700452 24.480117715872  L 156.269929844884 28.8129776909723  L 160.948173122733 36.4073889490799  L 174.808430387349 38.8513262643922  L 185.021251529698 40.6521221809382  L 183.349083892905 50.1354560988333  L 182.191429375125 56.7008411189146  L 171.978608232777 54.9000452023689  L 165.413223212695 53.7423906845891  L 157.346581289641 56.8330312337774  L 146.490618748526 58.679671439499  L 134.734258249138 65.6327222163948  L 105.387420372288 91.2969651871292  L 91.4090493371731 93.2363783779653  L 85.5734287350475 98.8600914175968  L 73.0345068543827 99.8834629818609  L 44.8163093169485 85.0208212072646  L 33.46581111238 89.6721125302807  L 28.622131988407 95.8132023189317  L 20.5977725194185 94.3982912416456  L 12.8039154227759 93.0240239517213  L 9.39273270541491 85.4273792984224  L 0.317588625285384 77.1744961423144  L 7.67841474958678 69.5552240737155  L 18.4635597319203 60.9265860757681  L 13.8561340128537 60.1141726098866  L 14.88516025088 54.2782748142585  Z " fill-rule="nonzero" fill="#f8c5cd" stroke="none" fill-opacity="0.556862745098039" transform="matrix(1 0 0 1 973 350 )" />
  </g>
</svg>