<?xml version="1.0" encoding="utf-8"?>
<svg version="1.1" xmlns:xlink="http://www.w3.org/1999/xlink" width="387px" height="454px" xmlns="http://www.w3.org/2000/svg">
  <g transform="matrix(1 0 0 1 -600 -406 )">
    <path d="M 58.6698234692915 346.298845462342  L 62.0888109359296 285.049133727293  L 37.8466812379757 259.529011789846  L 25.0050245125361 249.496009969726  L 16.2677776226015 234.209603125558  L 17.3217116610595 224.43849224372  L 16.7606794601482 216.734443886236  L 0.775570628461276 211.511230080803  L 4.30052011292473 206.999500484267  L 3.94342538892495 200.094031943633  L 6.29072571233217 191.634176645241  L 12.6569350840876 191.907937059498  L 19.0777634468112 196.924437969559  L 24.5503098941476 189.919897937498  L 38.6692933996359 180.270559973003  L 42.7552750850111 183.462878733951  L 49.5775299940477 183.15292747887  L 57.7494933647811 189.537565000765  L 60.6680517114753 191.817792687157  L 65.0506049944865 186.781697140758  L 71.3163761053136 183.216932614809  L 71.804510715714 178.137092028254  L 74.8054633670975 173.722730937667  L 71.886905020407 171.442503251277  L 74.6231782440762 167.940233235248  L 77.5417365907693 170.220460921639  L 77.3594514677437 164.437963219216  L 81.9199068405281 158.600846525835  L 84.83846518722 160.881074212227  L 91.802565596519 156.995805800016  L 91.6791482463939 152.125399172152  L 97.6077402310101 144.537147470753  L 106.802380236702 146.178828990198  L 106.801106757123 139.812835125084  L 110.465025752904 140.112196494898  L 124.25842920686 138.098556417341  L 123.237100150379 129.780498764409  L 131.555157803312 128.759169707928  L 135.659567638816 123.505764683883  L 145.017382498365 122.356769495343  L 153.335440151298 121.335440438863  L 157.439849986803 116.082035414818  L 168.485033334281 112.773307049726  L 177.935639218813 119.921926215929  L 187.408987755679 107.796593027319  L 195.884611635531 102.548749721287  L 209.782197396887 105.635518828817  L 216.341440517904 97.2400704825525  L 222.816232647859 95.3896333373547  L 217.654012265393 115.59270928532  L 226.848250565993 105.448890153561  L 239.197670913332 102.877139362224  L 239.569911876181 97.5278849202173  L 245.126262897949 95.2888876608262  L 245.04245832352 90.5233448881575  L 257.961723259878 91.2168459615021  L 252.932179210324 74.4091506384481  L 266.474965740928 90.0660079579482  L 266.466972530117 80.3306233283427  L 272.023323551886 78.0916260689513  L 272.671280257667 66.0486852029483  L 278.488525261568 61.8514896287535  L 277.629576365656 52.0622743238035  L 282.043149140625 48.0374280278895  L 281.117669502107 35.9872015023021  L 286.74055126648 36.0092154635482  L 287.95835256128 27.2315264622276  L 290.854241722998 23.524957361929  L 298.460788482642 27.0238079317102  L 314.901230101524 5.98100225206425  L 323.748380432833 0.672978237057407  L 330.148991681604 6.94270202165194  L 347.112511133981 11.7359345109445  L 348.781318379887 24.0379074895432  L 340.1164531716 35.1284292069714  L 346.712395035121 40.2817437782141  L 342.050661618252 47.8727597021322  L 355.376727875851 53.2551515414126  L 348.216812940582 62.419424750024  L 354.099401095804 72.9374913260292  L 362.605305589771 73.6609472439329  L 365.537385592319 83.1428424244355  L 365.800109004726 90.22042959759  L 371.113751507926 101.928784074563  L 382.441501323237 110.836219511538  L 385.984235121256 116.648923706595  L 378.448659776893 120.819631373902  L 372.965481528852 133.0657978894  L 369.858594766721 142.906733994529  L 365.712334335641 146.5894360927  L 367.582797692078 140.201689564395  L 363.35088808938 136.895359419131  L 363.915206015917 128.532984145363  L 355.478250832571 121.941312329134  L 354.275868140505 129.978788986121  L 348.271887812141 137.663533367262  L 339.226099515545 144.367386657979  L 330.543717452164 145.198075638455  L 332.596444501756 160.197034047654  L 335.106404679902 162.158029857943  L 323.189383261836 169.76767518087  L 328.987856855462 180.878033703773  L 325.953058722408 194.863224315114  L 336.371809472596 186.647009750346  L 344.356581226018 202.896540848915  L 357.064859398805 233.505632761179  L 361.354839485429 255.657602393783  L 354.52292351667 264.420127035587  L 362.724072470874 270.827566834345  L 345.212056931277 287.22611256678  L 333.81091849933 301.818904300237  L 320.355708923536 313.024975185872  L 314.474720810621 320.552296710024  L 300.647925869524 315.389701517768  L 296.904266428336 306.824753249952  L 283.884144431599 316.392602424112  L 279.323689058816 322.229719117494  L 273.085145819116 322.995715909856  L 262.17690922471 320.113348403988  L 261.501722264136 331.806009940892  L 260.315870775321 339.339642651328  L 267.261306505248 344.766011756944  L 260.420623446075 353.521686797018  L 263.708237349985 362.670346734171  L 252.174385824815 367.759316708987  L 247.195302865006 370.449325207829  L 249.114780157081 381.349120152996  L 242.500248087934 380.141648353994  L 234.426027821215 386.793251949302  L 237.381011001613 396.367659797624  L 232.241095277786 402.946451918514  L 232.91435404044 411.932580746512  L 246.250175341906 413.891544813192  L 256.173273720658 421.644318946923  L 248.876545124206 430.983705656336  L 232.386524100536 425.62039719092  L 231.839003272023 438.35281593444  L 225.728126164385 440.158569933416  L 218.70515798219 443.131747271069  L 212.39230486292 438.199605866737  L 206.919758415581 445.204145898796  L 200.755525055452 453.094004806979  L 198.949771056473 445.557403780211  L 192.469838391617 440.494725528426  L 195.662157152565 436.408743843057  L 188.71672142264 430.982374737441  L 180.507901751631 441.489184785532  L 176.358020454288 440.784978606353  L 171.104615430243 436.680568770849  L 162.394411852009 435.797496914898  L 162.348940390168 429.839885711675  L 156.479873890798 426.523486629778  L 155.371443669812 438.770674252552  L 144.882396312412 452.196042647333  L 131.766979172713 448.529250198969  L 126.787334562925 438.058630991706  L 122.519067754534 429.083814528337  L 121.485605115509 421.438241209419  L 117.522597221641 416.228406712431  L 120.932455178851 411.863987553134  L 125.036865014355 406.610582529089  L 117.448613312956 400.681990544471  L 99.3535515634681 386.544578888845  L 88.2630298460397 377.879713680559  L 81.4223467868652 386.635388720633  L 72.5450306486521 381.088080433707  L 65.6621317147306 374.322159214121  L 71.9006749544302 373.55616242176  L 72.5028147739042 365.566484174046  L 59.2934781554284 355.246219338341  L 67.8515495693333 353.472396090828  L 58.6698234692915 346.298845462342  Z " fill-rule="nonzero" fill="#caf982" stroke="none" fill-opacity="0.486274509803922" transform="matrix(1 0 0 1 600 406 )" />
  </g>
</svg>