<?xml version="1.0" encoding="utf-8"?>
<svg version="1.1" xmlns:xlink="http://www.w3.org/1999/xlink" width="144px" height="128px" xmlns="http://www.w3.org/2000/svg">
  <g transform="matrix(1 0 0 1 -861 -479 )">
    <path d="M 83.8221515861284 106.583173616217  L 78.7882612302764 109.537248992672  L 69.6944595708991 118.45320188031  L 66.3446959605008 111.856119863341  L 66.1088287099347 104.904850003999  L 59.0498237159662 110.569837065808  L 56.1741572722186 105.54977232032  L 50.2959770225242 109.026297708768  L 42.9708670167337 99.3799899500337  L 32.7580458743848 97.5791940334878  L 53.1257991770966 92.9775787707917  L 45.4009787216813 85.5981416181243  L 35.1881575793325 83.7973457015784  L 31.8385562522334 71.9546393765036  L 22.5701197406288 65.7769201132363  L 13.8162730471869 64.2333807561969  L 7.98037525155888 63.2043545181706  L 9.90979944785824 52.2620461513688  L 0.531691380630241 41.4616012338547  L 2.5690829141481 29.9069796703718  L 4.49850711044731 18.9646713035696  L 15.4408154772493 20.8940954998687  L 5.91341818773341 10.9403118345812  L 0.116566864677556 1.28606718286636  L 9.0445602734328 0.992403876506006  L 20.9660554324224 6.30028262437385  L 27.8152370866776 6.17009007275109  L 31.9183609048708 8.18930112184192  L 37.6180023296996 6.0306726427358  L 46.7647027571277 18.1434955007648  L 51.1856894754704 27.1968812077796  L 63.5446898371122 33.8891135900594  L 78.1759166355911 36.4689936354959  L 83.9703321218097 37.4907054231512  L 95.642127713067 39.5487578992039  L 98.9475063908377 58.8149647485674  L 105.577851701932 59.9840735183272  L 113.410639494566 66.7511974743138  L 128.000383983636 69.3237630693794  C 128.000383983636 69.3237630693794  136.073888460523 77.5198299369188  132.764973087171 80.6942387295076  C 130.949071832003 83.1725867665177  140.787495745318 78.9463560959227  138.600870882799 81.7232649675341  C 137.105472957962 83.6223487268239  145.365632736507 85.0832775547654  143.664998999907 87.1292145522811  C 142.108742323284 89.0014596123494  139.580288091674 84.1243929668746  137.829101204279 86.100188314255  C 136.761117445381 87.3051524200831  137.801363268649 91.4144325359983  136.671446686499 92.6655733343361  C 134.417348291238 95.1615049016143  143.44354675924 99.8274706219712  140.963805125088 102.448446265804  C 139.301287130399 104.205653190711  135.866050159764 105.469043485231  134.098881091433 107.255317823406  C 133.180536393256 108.183590956606  139.482388430169 115.295272802912  138.53369342014 116.230294597714  C 137.136154011187 117.607691751331  132.040828615381 118.927113414662  132.040828615381 118.927113414662  C 132.040828615381 118.927113414662  131.887627367605 110.606523816991  126.861897828884 114.172242121661  C 125.228837335978 115.330886582594  120.901541223637 119.589665299256  118.867776121152 121.117356005577  C 115.861956716542 123.375218707464  114.439949938113 116.904697401076  110.843416652163 119.702444928291  C 108.86908211695 121.238282114997  104.701400867176 124.625870142921  104.701400867176 124.625870142921  C 104.701400867176 124.625870142921  99.0139354670604 118.638340138533  94.4970252023174 122.826563391921  C 92.3544222268547 124.813253203906  87.0930437109998 126.044963426061  87.0930437109998 126.044963426061  C 87.0930437109998 126.044963426061  84.4722294281654 120.024807081569  80.5926189819316 124.898763160262  C 78.9529580886034 126.958669763975  78.2399688831998 121.305414394982  76.2156956352108 124.126993481742  C 74.1665023232355 126.983307963763  83.6689426350862 116.872219119222  81.3662551621549 120.511254356362  C 68.6040951764355 140.679840165771  83.1651845769972 110.309018671192  83.1651845769972 110.309018671192  L 83.8221515861284 106.583173616217  Z " fill-rule="nonzero" fill="#f8c5cd" stroke="none" fill-opacity="0.556862745098039" transform="matrix(1 0 0 1 861 479 )" />
  </g>
</svg>