<?xml version="1.0" encoding="utf-8"?>
<svg version="1.1" xmlns:xlink="http://www.w3.org/1999/xlink" width="246px" height="440px" xmlns="http://www.w3.org/2000/svg">
  <g transform="matrix(1 0 0 1 -1120 76 )">
    <path d="M 28.0905564807341 283.063449225818  L 29.1997132599179 275.05878526971  L 23.6645918133069 272.561604068196  L 39.613778100071 271.540227606483  L 37.2140785037018 265.505337876434  L 47.334576485545 263.819429221007  L 37.906486069729 254.391338805191  L 44.3278233079851 247.970001566935  L 34.8997328921647 238.541911151114  L 40.6613437018327 225.447341129141  L 35.9472984939225 220.733295921231  L 31.2332532860121 234.875431544962  L 15.3838256319354 231.868678367397  L 2.49152051225955 230.782779884991  L 5.56789604294482 209.210074301894  L 6 190.88314984454  L 6 168.878798634218  L 19.186248865797 171.497712638612  L 13.948420857007 176.735540647402  L 4.93619942606016 157.247663198875  L 1.37763363591348 146.356138196423  L 5.04411324206533 142.689658590272  L 0.853850835033959 138.49939618324  L 74.7072257589627 64.6460212593116  L 95.9504353064822 66.2334273184528  L 101.943931404667 57.3130620470062  L 106.657976612577 68.3125008654637  L 113.583104941753 68.9522355840925  L 117.657415431035 73.0265460733739  L 121.323895037187 76.6930256795264  L 133.370899457402 81.4070708874371  L 139.327504815404 72.8018128162787  L 146.939617833906 67.8383525109328  L 158.512473899591 56.2654964452486  L 156.417342696075 46.8374060294278  L 157.430535627764 39.5497666340079  L 164.83326954752 33.1836511691936  L 164.047595346202 26.6363661582068  L 170.151647436677 12.3836930891687  L 182.198651856892 0.33668866895371  L 184.177831142658 19.0769175828448  L 193.605921558479 21.1720487863604  L 196.224835562874 31.1239220030602  L 192.902213367985 40.3720870292658  L 199.891315169026 47.3611888303067  L 209.319405584846 56.7892792461273  L 208.795622783968 64.6460212593114  L 216.652364797151 72.5027632724951  L 212.985885190999 76.1692428786477  L 217.246951672795 79.8357224848003  L 217.246951672795 85.5973332944682  L 224.020726046839 92.3711076685121  L 219.690305042249 99.5299557978473  L 230.951635261146 110.89604257692  L 204.329957320108 125.228691997134  L 203.714929615442 138.132748222624  L 200.914890718832 148.951062148867  L 223.461541208577 164.164753426307  L 237.079894031428 177.783106249158  L 244.936636044612 192.972807474648  L 240.222590836702 208.162508700136  L 234.984762827913 202.924680691347  L 225.556672412092 207.114943098378  L 229.223152018245 219.161947518594  L 234.480971736992 224.419767237341  L 226.624229723808 232.276509250525  L 230.270717620003 235.92299714672  L 229.746934819123 244.82730476166  L 214.033450792755 260.540788788028  L 225.032889611213 263.159702792424  L 231.318283221755 263.159702792419  L 233.413414425276 271.540227606487  L 223.40327957667 282.443280405692  L 215.484848935648 289.468793096111  L 207.104324121581 281.088268282045  L 199.891315169018 294.586670845153  L 205.575602153115 300.270957829249  L 205.064277964444 310.235289658157  L 206.700491580451 317.109331282953  L 204.081577576052 328.108770101406  L 201.986446372535 339.631991720741  L 205.129143177808 367.916262968203  L 188.891876350564 384.15352979545  L 182.082699939136 414.009149445548  L 177.368654731228 438.626941086853  L 176.844871930347 425.532371064883  L 170.559478319801 419.246977454335  L 164.274084709252 425.532371064883  L 162.178953505738 410.866452640273  L 158.512473899584 397.7718826183  L 154.845994293431 386.772443799843  L 146.465469479369 385.724878198085  L 140.337210709087 389.024709843622  L 131 392.534054609511  L 131 410.342669839394  L 134.814300916306 421.470055601578  L 129.180637050365 439.389087296518  L 123.037953135865 433.246403382018  L 112.419587422239 429.198850671035  L 95.2918898335008 434.070030719206  L 91.4682753870822 413.485366644668  L 67.8980493475302 398.295665419179  L 71.060737862762 387.840001111558  L 77.992632260277 388.201082506432  L 95.6585377941143 398.819448220057  L 93.959242447749 380.614997133023  L 98.8212263093443 360.079512664976  L 115.950123400683 332.434976136145  L 118.704981032787 313.966634477674  L 117.657415431031 302.44341285834  L 109.800673417845 305.062326862733  L 110.324456218725 295.110453646034  L 96.182320594994 291.443974039882  L 82.040184971263 285.682363230213  L 79.8091101400384 296.2939628755  L 72.0883117545639 304.014761260976  L 64.7553525422589 296.681802048671  L 58.9697516806418 290.896201187054  L 45.1496202992595 284.409029017976  L 38.5662124983125 277.825621217029  L 28.0905564807341 283.063449225818  Z " fill-rule="nonzero" fill="#caf982" stroke="none" fill-opacity="0.317647058823529" transform="matrix(1 0 0 1 1120 -76 )" />
  </g>
</svg>