<?xml version="1.0" encoding="utf-8"?>
<svg version="1.1" xmlns:xlink="http://www.w3.org/1999/xlink" width="17px" height="14px" xmlns="http://www.w3.org/2000/svg">
  <g transform="matrix(1 0 0 1 -418 -512 )">
    <path d="M 0.00570776255707983 6.00273972602739  C 0.00570776255707983 4.33093805641868  0.897503347916015 3.29749574323813  1.71803652968037 2.27366818873668  C 1.87652889266316 2.07590793722448  3.54626767890259 0.661794375224836  4.45776255707763 0.462404870624047  C 8.1107305936073 -0.336681887366818  7.53995433789955 0.161415525114156  9.30936073059361 0.427777777777778  C 11.0787671232877 0.694140030441399  11.8207762557078 2.48675799086758  12.8524883169419 3.36060356652929  C 13.8842003781761 4.23444914219099  16.5399543378995 7.27648401826484  16.8824200913242 8.39520547945205  C 17.3559128171938 9.94194838395942  15.8335139988401 13.2325813583094  15.0171232876712 13.6739726027397  C 13.592137764923 14.4444077933612  11.5495246803279 13.5919989917393  9.76598173515982 12.9814307458143  C 8.88316834686786 12.6792132839759  5.25684931506849 10.9038051750381  4.45776255707763 10.4776255707763  C 3.65867579908677 10.0514459665145  0.00570776255707983 7.00862071459775  0.00570776255707983 6.00273972602739  Z " fill-rule="nonzero" fill="#ec808d" stroke="none" fill-opacity="0.411764705882353" transform="matrix(1 0 0 1 418 512 )" />
  </g>
</svg>