<?xml version="1.0" encoding="utf-8"?>
<svg version="1.1" xmlns:xlink="http://www.w3.org/1999/xlink" width="11px" height="10px" xmlns="http://www.w3.org/2000/svg">
  <g transform="matrix(1 0 0 1 -819 -574 )">
    <path d="M 0.0036932581251693 4.28767123287671  C 0.0036932581251693 3.0935271831562  0.580737460416245 2.35535410231295  1.11167069567553 1.62404870624049  C 1.21422457760557 1.48279138373177  2.29464379223109 0.47271026801774  2.88443459575611 0.33028919330289  C 5.24811979586355 -0.24048706240487  4.87879398334677 0.115296803652969  6.02370400214881 0.305555555555556  C 7.16861402095085 0.495814307458142  7.64873757722267 1.77625570776256  8.31631596978595 2.40043111894949  C 8.98389436234924 3.02460653013642  10.7023233951115 5.19748858447489  10.9239188826215 5.99657534246575  C 11.2302965287725 7.10139170282816  10.2452149404259 9.45184382736387  9.71696212731668 9.76712328767123  C 8.79491267142078 10.3174341381152  7.47322185197686 9.70857070838522  6.31916465216224 9.27245053272451  C 5.74793245973803 9.05658091712563  3.40149073327961 7.78843226788432  2.88443459575611 7.48401826484018  C 2.36737845823261 7.17960426179605  0.0036932581251693 5.00615765328411  0.0036932581251693 4.28767123287671  Z " fill-rule="nonzero" fill="#ec808d" stroke="none" fill-opacity="0.411764705882353" transform="matrix(1 0 0 1 819 574 )" />
  </g>
</svg>