<?xml version="1.0" encoding="utf-8"?>
<svg version="1.1" xmlns:xlink="http://www.w3.org/1999/xlink" width="14px" height="10px" xmlns="http://www.w3.org/2000/svg">
  <g transform="matrix(1 0 0 1 -785 -543 )">
    <path d="M 0.120689655172414 2.01101928374655  C 0.597072673470136 -0.434951750799519  2.32346840913747 0.916983633430952  2.91525365645958 0.0524181429630668  C 3.02956157759054 -0.114579402758348  10.2015553688931 0.232360642540281  10.9456471264132 0.970274684210153  C 11.6897388839334 1.70818872588004  13.6051227450738 4.27701817678685  13.8521160234614 5.22171629956715  C 14.1936086237746 6.52785475226228  13.0956235803116 9.30661148615782  12.5068259671771 9.67934187034343  C 11.4790973770953 10.3299315868683  10.0059232065501 9.61011970994306  8.71959569856757 9.0945287467175  C 8.08289269746985 8.83932289005396  5.08336777379461 7.90897054405339  4.89119988356016 7.74104683195591  C 4.35086318951446 7.26887979439346  2.11170555479662 7.37623945826499  1.50313479623824 6.62767236106195  C 1.04672828945764 6.0662735604777  -0.355693363125309 4.45699031829263  0.120689655172414 2.01101928374655  Z " fill-rule="nonzero" fill="#ec808d" stroke="none" fill-opacity="0.411764705882353" transform="matrix(1 0 0 1 785 543 )" />
  </g>
</svg>