<?xml version="1.0" encoding="utf-8"?>
<svg version="1.1" xmlns:xlink="http://www.w3.org/1999/xlink" width="335px" height="161px" xmlns="http://www.w3.org/2000/svg">
  <g transform="matrix(1 0 0 1 -529 -470 )">
    <path d="M 0.0975784575869253 64.6547970293621  C 0.0975784575869253 57.522168248375  0.063316067706454 51.8038706318757  1.48201061239834 46.9564683003828  C 5.59781933127043 32.8935533096353  16.7766354335986 26.1605460451545  28.7828103054942 13.4881725410802  C 44.3990250325889 -2.9945547099451  65.5676644975263 13.0755677293455  97.0218052174376 12.5406468356432  C 104.840730078942 12.407675271996  114.76421571334 15.0095729403071  125.832891621024 21.237683977732  C 127.537871923456 22.1970405194477  132.39050605042 27.5564562881896  135.365434883704 28.9113665827805  C 137.787377072504 30.0144230215752  138.335308999838 35.0623356250716  141.431598778136 39.3475749256463  C 142.514619128236 40.8464660824425  144.999649514136 41.5346390090315  146.920032777861 43.0309425760695  C 149.699975954873 45.1969887870008  156.453340568889 46.6556978448334  157.002147438599 46.8203491576132  C 167.791189301084 50.0572435996061  174.534827988438 50.4734966520802  182.718455168686 50.4734966520802  C 190.113239513492 50.4734966520802  196.9227692846 40.047822680832  201.780344729899 28.9494563841828  C 206.365919213343 18.472545449724  209.852150208386 9.57368641805841  214.482601515897 3.9249731591018  C 216.774382179413 1.12921720338778  219.425134563695 0.0583199877983799  223.46924382665 0.0583199877983718  C 227.513353089605 0.0583199877983637  232.858437236613 4.6698675458486  235.500238376594 8.70211587577031  C 244.436873625318 22.3423297478303  246.818618444117 36.1015634897519  258.293343943927 45.1342987870244  C 283.605238428803 65.0594501780666  293.792098047513 60.4899487923876  311.216681213892 67.264500265342  C 335.307888285214 76.6309867282837  336.095560358996 89.8463385085232  334.395601025692 106.105262043614  C 332.695641692386 122.364185578704  323.61752933497 121.912548813841  332.542315834822 136.364925289477  C 334.192731031272 139.03752947565  334.284425498814 141.182992498681  333.797921014469 142.938718583043  C 333.18355164401 145.155891011779  331.008038130782 146.7515407543  322.768767386986 148.002379948143  C 316.632459254969 148.933959326427  318.495899173833 155.29985873289  314.872060087949 158.012490727718  C 313.225304957324 159.24517257399  310.445426230445 159.72345437901  305.266823547323 158.594571935525  C 298.554886233163 157.131438217927  293.080817004822 156.778435734591  287.327151570118 152.555349848056  C 278.872590856896 146.349855901623  272.354653947406 137.388638891265  266.653288847963 137.388638891265  C 249.323906593354 137.388638891265  245.489228553393 156.406009395054  227.918673881937 160.848303162034  C 226.253376539264 161.269333695438  218.00963349863 158.235919290194  212.619039882191 158.02364994971  C 206.777310334366 157.793615900283  200.364942288122 159.814391427916  198.594375382423 160.281833774028  C 181.159005386584 164.884896346786  184.525033800061 144.226605371465  171.39502604954 142.476261690526  C 158.427508438681 140.74757935165  141.142733830782 158.7500762602  129.395751555147 147.989022154714  C 124.342787105456 143.360154709412  79.6133517384583 132.226759296188  58.816223834914 121.581827194387  C 50.2967921912223 117.221187984318  44.0871329832408 109.287161596594  39.4050974245108 105.426610546476  C 28.6647749696057 96.5707266874634  23.8622989682106 92.7773229428058  19.7694603739267 89.2261700123976  C 12.9068701562173 83.2718410545332  5.60489870597832 77.5126764123582  5.60489870597832 77.5126764123582  C 5.60489870597832 77.5126764123582  0.0975784575869253 72.2609415829476  0.0975784575869253 64.6547970293621  Z " fill-rule="nonzero" fill="#caf982" stroke="none" fill-opacity="0.486274509803922" transform="matrix(1 0 0 1 529 470 )" />
  </g>
</svg>