<?xml version="1.0" encoding="utf-8"?>
<svg version="1.1" xmlns:xlink="http://www.w3.org/1999/xlink" width="342px" height="163px" xmlns="http://www.w3.org/2000/svg">
  <g transform="matrix(1 0 0 1 -526 -470 )">
    <path d="M 0.099758005272029 63.2751596590774  C 0.099758005272029 56.1047805464265  0.886262187455082 50.3562181231913  2.33344243359659 45.4831603073965  C 6.53189170312717 31.3458155767364  16.2909343862881 24.5771730275472  28.538178989672 11.8377293986373  C 44.4679487608412 -4.73223475193194  66.0616293638792 11.4229408242301  98.147331870825 10.8851887946631  C 106.123251456878 10.7515134623516  116.635788394646 11.3504023650934  127.9267101681 17.6114764606728  C 129.66592444997 18.5759105171094  136.475061131581 25.4014807915397  139.509723002463 26.7635621186582  C 142.844451645916 28.2603257811395  141.597251631304 34.2516322024643  149.156691586362 40.056337693787  C 151.992452720582 42.2338479757322  158.772181864281 45.1807979865194  159.332008124109 45.3463207370057  C 170.337681132862 48.6003468484711  177.216724075523 49.018802972389  185.564668769716 49.018802972389  C 200.228807839147 49.018802972389  210.289875113435 8.91989743833242  217.144486064144 2.22391558549719  C 220.30186513288 -0.860395559045642  235.141348779812 -1.44996848060895  240.776439802304 7.02634192865143  C 249.892512072628 20.7387483419817  252.048041037011 34.5708045527499  263.753165396129 43.6513467335395  C 289.573292658891 63.6819544852814  298.868538473484 59.088268440882  316.642986574367 65.8986750764743  C 341.217916470143 75.3147348428022  343.11755790979 88.6000305284485  341.383465412142 104.94500645387  C 339.649372914495 121.289982379291  329.292828997017 120.835955270252  338.396814609665 135.364822759516  C 342.20639945774 141.444462579013  344.035293645153 147.967348640514  328.975101840284 150.22056024618  C 319.871116227637 151.582641573298  327.481064684662 163.353142285411  310.573662832602 159.720925413095  C 303.726957789057 158.25004787694  296.224706521487 159.330036238654  290.355514318581 155.08459914084  C 281.731196067863 148.84626184004  277.000655957466 139.263672803689  271.184814218435 139.263672803689  C 253.507478550557 139.263672803689  249.595804730067 157.8077514621  231.672454189657 162.273556625537  C 229.973719654245 162.696815515801  221.56445204459 159.934318215664  216.065621710832 159.720925413095  C 210.106597172009 159.489673879635  203.565476391476 161.521144614985  201.759358605243 161.991060958292  C 183.973907088175 166.618485816559  187.407521354305 150.442407543189  174.013878642888 148.682799948971  C 160.785988680147 146.944968342183  138.033513268564 159.868806527386  131.171308599906 151.068047247913  C 128.219531247764 147.282400625997  79.3108160084229 133.958388141686  58.0961064776803 123.257116402745  C 49.405614765258 118.873397963193  44.1497942895818 109.57860576391  39.3737490177662 105.697622263567  C 28.4177736444314 96.7948675294362  22.6967542442958 94.9901895369831  18.5217363121732 91.4202416846704  C 5.69296661200543 80.4506986591047  0.099758005272029 80.1055315628225  0.099758005272029 63.2751596590774  Z " fill-rule="nonzero" fill="#ffff80" stroke="none" fill-opacity="0.486274509803922" transform="matrix(1 0 0 1 526 470 )" />
  </g>
</svg>