<?xml version="1.0" encoding="utf-8"?>
<svg version="1.1" xmlns:xlink="http://www.w3.org/1999/xlink" width="141px" height="103px" xmlns="http://www.w3.org/2000/svg">
  <g transform="matrix(1 0 0 1 -556 -491 )">
    <path d="M 0.0383235485975201 44.1630136986301  C 0.0383235485975201 31.8633299865088  6.02609390743609 24.2601472538234  11.5353881278539 16.727701674277  C 12.5995511364526 15.2727512524373  23.8106544154888 4.86891576058272  29.9306914546641 3.40197869101977  C 54.4577625570776 -2.47701674277016  50.6254076973255 1.18755707762558  62.5057077625571 3.14722222222222  C 74.3860078277887 5.10688736681887  79.3680691454664 18.2954337899543  86.2952786994672 24.7244405251798  C 93.2224882534681 31.1534472604052  101.288689785831 35.1101601083432  106.889956791389 37.2161311491288  C 117.996222246971 41.3918780645184  124.649571173267 39.6485125862435  129.388747061094 46.2936195561367  C 135.941125764843 55.4811362097168  131.358314814201 60.2071362445014  136.405266343826 66.098697498202  C 141.452217873451 71.9902587519026  145.936841260738 82.517422781529  126.506033920417 86.4917808219178  C 118.841324200913 88.0595129375951  106.310736849355 97.3539914218479  100.829256360078 100.601369863014  C 91.261496421626 106.269571622586  77.5468085679157 99.9982782963678  65.5715916503588 95.5062404870624  C 59.6441303289699 93.282783446394  35.295988258317 80.2208523592085  29.9306914546641 77.0853881278539  C 24.5653946510111 73.9499238964993  0.0383235485975201 51.5634238288263  0.0383235485975201 44.1630136986301  Z " fill-rule="nonzero" fill="#ec808d" stroke="none" fill-opacity="0.411764705882353" transform="matrix(1 0 0 1 556 491 )" />
  </g>
</svg>