<?xml version="1.0" encoding="utf-8"?>
<svg version="1.1" xmlns:xlink="http://www.w3.org/1999/xlink" width="331px" height="155px" xmlns="http://www.w3.org/2000/svg">
  <g transform="matrix(1 0 0 1 -532 -473 )">
    <path d="M 0 61.194313622885  C 0 35.4737651293427  11.730965098986 29.3245149787086  26.8136340781251 13.5730016603001  C 41.402644750897 -1.66296196340648  72.6051591539125 14.0674608085883  101.990308031859 13.5730016603001  C 109.294919312349 13.4500881475141  117.171107069406 18.7404014625333  127.511707129834 24.4974143503555  C 128.726400338504 25.1736811449514  131.525099258486 29.0165270778163  134.688574046347 33.6303878769632  C 135.67337111577 35.0666934897528  136.279406012605 41.2858249333347  143.934590717111 43.7012497306615  C 157.618695389841 48.0189673340358  170.752602518101 49.9800689506572  184.176518568276 49.9800689506572  C 196.693673721162 49.9800689506572  206.847558115315 9.77774445510369  215.628133141796 2.12792562354214  C 216.268411310422 1.57010202121295  216.901387175965 1.18536998007051  217.527444583053 1.00193923723335  C 221.770508905761 -0.241250974731699  225.834063170539 -1.66537851325742  230.994866135688 6.12852833441067  C 239.343667000734 18.7369880394851  242.937673927646 35.3517560870502  253.657614432396 43.7012497306615  C 277.304542016404 62.119250415098  285.817435946646 57.8953889248007  302.095864120526 64.1575091575092  C 324.60239872098 72.8155088233377  332.27051146723 85.0312432665373  330.682372133193 100.060331825038  C 329.094232799156 115.089420383538  317.834324920833 114.671945701357  326.172056424527 128.031135531136  C 329.661000383277 133.621320898671  333.358019169983 140.398326259948  319.565396794933 142.470138229394  C 311.227665291239 143.722562275936  312.021734958257 155.584464555053  296.537376451396 152.244667097608  C 281.053017944535 148.904869640164  274.108175470213 131.875853031934  265.157048105941 131.875853031934  C 248.967558714099 131.875853031934  240.691834711632 150.225764574393  224.277036752711 154.332040508511  C 222.721279411372 154.721224033404  215.019793660493 152.440880254617  209.983782746378 152.244667097608  C 204.526310739874 152.032032965168  198.535735719022 153.899955788969  196.881633240572 154.332040508511  C 180.593127773771 158.586924597054  183.737745423263 137.998575783074  171.471403895979 136.380629174747  C 159.356864224856 134.782705431246  138.519393791836 150.562373494638  132.234759513505 142.470138229394  C 125.883689135846 134.292358360907  53.3139024790425 118.762922065268  47.958693164561 107.770015698587  C 41.3768731733633 94.2591841630342  0 76.6697203147036  0 61.194313622885  Z " fill-rule="nonzero" fill="#f8c5cd" stroke="none" fill-opacity="0.56078431372549" transform="matrix(1 0 0 1 532 473 )" />
  </g>
</svg>