<?xml version="1.0" encoding="utf-8"?>
<svg version="1.1" xmlns:xlink="http://www.w3.org/1999/xlink" width="44px" height="39px" xmlns="http://www.w3.org/2000/svg">
  <g transform="matrix(1 0 0 1 -686 -522 )">
    <path d="M 0.0147730325006772 16.7219178082192  C 0.0147730325006772 12.0647560143092  2.32294984166498 9.18588099902051  4.44668278270212 6.3337899543379  C 4.85689831042228 5.78288639655392  9.17857516892435 1.84357004526919  11.5377383830245 1.28812785388127  C 20.9924791834542 -0.937899543378994  19.5151759333871 0.449657534246578  24.0948160085952 1.19166666666667  C 28.6744560838034 1.93367579908676  30.5949503088907 6.92739726027397  33.2652638791438 9.36168136390301  C 35.9355774493969 11.7959654675321  42.8092935804459 20.2702054794521  43.6956755304862 23.3866438356164  C 44.9211861150899 27.6954276410298  40.9808597617037 36.8621909267191  38.8678485092667 38.0917808219178  C 35.1796506856831 40.2379931386491  29.8928874079074 37.8634257627024  25.2766586086489 36.1625570776256  C 22.9917298389521 35.32066557679  13.6059629331185 30.3748858447489  11.5377383830245 29.1876712328767  C 9.46951383293045 28.0004566210046  0.0147730325006772 19.524014847808  0.0147730325006772 16.7219178082192  Z " fill-rule="nonzero" fill="#ec808d" stroke="none" fill-opacity="0.411764705882353" transform="matrix(1 0 0 1 686 522 )" />
  </g>
</svg>