<?xml version="1.0" encoding="utf-8"?>
<svg version="1.1" xmlns:xlink="http://www.w3.org/1999/xlink" width="64px" height="56px" xmlns="http://www.w3.org/2000/svg">
  <g transform="matrix(1 0 0 1 -749 -514 )">
    <path d="M 0.0214880472737123 24.0109589041096  C 0.0214880472737123 17.3237522256747  3.37883613333088 13.1899829729525  6.46790222938491 9.09467275494673  C 7.06457936061423 8.30363174889794  13.3506547911627 2.64717750089934  16.7821649207628 1.84961948249619  C 30.5345151759334 -1.34672754946727  28.385710448563 0.645662100456625  35.0470051034112 1.71111111111111  C 41.7082997582595 2.7765601217656  44.501745903841 9.94703196347032  48.3858383696637 13.4424142661171  C 52.2699308354865 16.937796568764  62.2680633897394 29.1059360730594  63.5573462261617 33.5808219178082  C 65.3399070764944 39.7677935358377  59.6085232897509 52.9303254332377  56.5350523771152 54.6958904109589  C 51.1704009973573 57.7776311734449  43.4805635024108 54.3679959669572  36.7660488853075 51.9257229832572  C 33.4425161293849 50.7168531359035  19.7904915390814 43.6152207001522  16.7821649207628 41.910502283105  C 13.7738383024443 40.2057838660579  0.0214880472737123 28.034482858391  0.0214880472737123 24.0109589041096  Z " fill-rule="nonzero" fill="#ec808d" stroke="none" fill-opacity="0.411764705882353" transform="matrix(1 0 0 1 749 514 )" />
  </g>
</svg>