<?xml version="1.0" encoding="utf-8"?>
<svg version="1.1" xmlns:xlink="http://www.w3.org/1999/xlink" width="45px" height="39px" xmlns="http://www.w3.org/2000/svg">
  <g transform="matrix(1 0 0 1 -973 -512 )">
    <path d="M 0.015108783239329 16.7219178082192  C 0.015108783239329 12.0647560143092  2.37574415624827 9.18588099902051  4.54774375503626 6.3337899543379  C 4.96728236293188 5.78288639655392  9.38717915003627 1.84357004526919  11.7999597099114 1.28812785388127  C 21.4695809830782 -0.937899543378994  19.9587026591459 0.449657534246578  24.642425463336 1.19166666666667  C 29.3261482675262 1.93367579908676  31.2902900886382 6.92739726027397  34.0212926036698 9.36168136390301  C 36.7522951187014 11.7959654675321  43.7822320709105 20.2702054794521  44.68875906527 23.3866438356164  C 45.9421221631601 27.6954276410298  41.9122429381061 36.8621909267191  39.7512087026591 38.0917808219178  C 35.9791882012668 40.2379931386491  30.5722712126326 37.8634257627024  25.8511281224819 36.1625570776256  C 23.5142691534737 35.32066557679  13.9151893634166 30.3748858447489  11.7999597099114 29.1876712328767  C 9.68473005640614 28.0004566210046  0.015108783239329 19.524014847808  0.015108783239329 16.7219178082192  Z " fill-rule="nonzero" fill="#ec808d" stroke="none" fill-opacity="0.411764705882353" transform="matrix(1 0 0 1 973 512 )" />
  </g>
</svg>