<?xml version="1.0" encoding="utf-8"?>
<svg version="1.1" xmlns:xlink="http://www.w3.org/1999/xlink" width="1219px" height="573px" xmlns="http://www.w3.org/2000/svg">
  <g transform="matrix(1 0 0 1 -27 -206 )">
    <path d="M 0.355570200077788 222.433536715653  C 0.355570200077788 197.22723468161  3.15892867399925 177.019098064961  8.31715300162058 159.88865555913  C 23.2818011289825 110.191118561166  58.0662251955708 86.3970561029728  101.719415755585 41.6136131620808  C 158.498331986741 -16.6354019193681  235.465281270669 40.1554913637046  349.829232603906 38.2651115297052  C 378.258022005656 37.795197631457  415.728146354015 39.900494203672  455.972689166415 61.9102822819971  C 462.171818434251 65.300593412906  486.441811460224 89.2947760340629  497.258340175446 94.0829514968781  C 509.14440513559 99.3445808134536  504.698975843741 120.406044490872  531.643295449635 140.811542935828  C 541.750876802309 148.466226319599  565.916051732629 158.825749977151  567.911455857569 159.407618296345  C 607.139278657775 170.846618062417  631.658440491412 172.31763253484  661.413249211357 172.31763253484  C 713.681043145966 172.31763253484  749.541981763969 31.3564492770827  773.97405997717 7.81781368398705  C 785.227992973629 -3.02458070756535  838.120772405236 -5.09712846250876  858.206082219323 24.6999627307808  C 890.698749171152 72.9036981592361  898.381760304432 121.528042998317  940.10265677743 153.449212750418  C 1032.13404605611 223.863557791817  1065.26534619642 207.71520132899  1128.61930009986 231.656078643066  C 1216.21239817867 264.756705919789  1222.98334237437 311.459003023319  1216.80246882281 368.917108577101  C 1210.62159527126 426.375214130883  1173.70748113264 424.779155643278  1206.15706727831 475.85302724664  C 1219.73567526019 497.225012624382  1226.25445308024 520.155158104383  1172.57499749505 528.075957184423  C 1140.12541134938 532.864132647238  1167.24975979709 574.241414291659  1106.98624266942 561.472946390819  C 1082.58234369842 556.302315542864  1055.8418633032 560.098839047537  1034.9221402174 545.174695139271  C 1004.1822456337 523.244834566521  987.321051497519 489.558800714808  966.591486936468 489.558800714808  C 903.583673547161 489.558800714808  889.641187034946 554.747494403579  825.756496073659 570.446306419832  C 819.701649878726 571.934204236527  789.728266205716 562.223094095556  770.128634109662 561.472946390819  C 748.88871915988 560.660019221047  725.574022576635 567.801324321389  719.136427309331 569.453238828844  C 655.74325362715 585.720198606678  667.981779330112 528.855825289861  620.242450484447 522.670210863559  C 573.093918716663 516.561146380802  491.996645246725 561.992798406087  467.537500535921 531.055159957387  C 457.016399388958 517.747334715927  282.689721386747 470.908935001141  207.073549111966 433.2903539802  C 176.097790639911 417.880104496377  157.364325260234 385.205773636322  140.340935826482 371.562807098306  C 101.290251674158 340.26662021084  80.8986649818615 333.922568126941  66.0175338144419 321.37299684243  C 20.2915973685223 282.811351728018  0.355570200077788 281.597972917161  0.355570200077788 222.433536715653  Z " fill-rule="nonzero" fill="#ffff80" stroke="none" fill-opacity="0.486274509803922" transform="matrix(1 0 0 1 27 206 )" />
  </g>
</svg>