<?xml version="1.0" encoding="utf-8"?>
<svg version="1.1" xmlns:xlink="http://www.w3.org/1999/xlink" width="504px" height="360px" xmlns="http://www.w3.org/2000/svg">
  <g transform="matrix(1 0 0 1 -132 -279 )">
    <path d="M 0.136986301369859 154.356164383562  C 0.136986301369859 111.366978593623  21.5400803499843 84.7927476832663  41.2328767123288 58.4657534246576  C 45.0366934239157 53.3804898143439  85.1104242936622 17.0175696486386  106.986301369863 11.8904109589041  C 194.657534246575 -8.65753424657532  180.958904109589 4.15068493150687  223.424657534247 11  C 265.890410958904 17.8493150684931  283.698630136986 63.9452054794521  308.459719606606 86.4155202821817  C 333.220809076226 108.885835084911  362.053189021694 122.715122708772  382.07473916922 130.07579819113  C 421.773730584917 144.670641778899  445.555913981039 138.577325544152  462.495946941783 161.802942137954  C 485.917215499863 193.914650830078  469.536104016717 210.432709204082  487.576271186441 231.024573780123  C 505.616438356164 251.616438356164  521.646581527743 288.410409721849  452.191780821918 302.301369863014  C 424.794520547945 307.780821917808  380.004335972162 340.266377785099  360.41095890411 351.616438356164  C 326.211306358153 371.427628972146  277.188592327869 349.508545501868  234.383561643836 333.808219178082  C 213.196040324829 326.036913016523  126.164383561644 280.383561643836  106.986301369863 269.424657534247  C 87.8082191780824 258.465753424658  0.136986301369859 180.221675518228  0.136986301369859 154.356164383562  Z " fill-rule="nonzero" fill="#ec808d" stroke="none" fill-opacity="0.411764705882353" transform="matrix(1 0 0 1 132 279 )" />
  </g>
</svg>