<?xml version="1.0" encoding="utf-8"?>
<svg version="1.1" xmlns:xlink="http://www.w3.org/1999/xlink" width="1179px" height="546px" xmlns="http://www.w3.org/2000/svg">
  <g transform="matrix(1 0 0 1 -48 -215 )">
    <path d="M 0 215.561904761905  C 0 124.95919845562  41.7849179809804 103.297968892741  95.508382411207 47.8119929453151  C 147.473468765279 -5.8579176259351  258.614751185688 49.5537651708982  363.282698397467 47.8119929453151  C 389.301238275709 47.3790201841463  417.355695573504 66.0145754744722  454.18822569811 86.2941176470588  C 458.514882172496 88.6763219686674  468.483661709229 102.213056674114  479.751748642428 118.465753424657  C 483.259530348921 123.525255776807  485.418186371182 145.432647829682  512.685445484815 153.941176470588  C 561.427316811549 169.150684931507  608.2094210539 176.058823529412  656.024517800595 176.058823529412  C 700.609792499244 176.058823529412  736.777253830685 34.4428933708814  768.053078471834 7.49578961583231  C 770.333706752227 5.53081099085335  772.58832471439 4.17556134915159  774.818299587371 3.52941176470586  C 789.931812688495 -0.849826014216177  804.405922894459 -5.86643011766807  822.788360042222 21.5882352941176  C 852.526233818324 66.0025514165088  865.327847615392 124.529411764706  903.511563189713 153.941176470588  C 987.740347544836 218.820069204152  1018.06270991268 203.941176470588  1076.04538911813 226  C 1156.21216946234 256.49850204866  1183.5254774014 299.529411764706  1177.86863064965 352.470588235294  C 1172.2117838979 405.411764705882  1132.10474042798 403.941176470588  1161.80318587468 451  C 1174.23057236219 470.691878778544  1187.39910755713 494.564426696334  1138.27070338739 501.862551440318  C 1108.5722579407 506.2743161462  1111.40068131657 548.058823529412  1056.246425487 536.294117647059  C 1001.09216965742 524.529411764706  976.355102354624 464.543327454427  944.471781622069 464.543327454427  C 886.805896446896 464.543327454427  857.328317598232 529.182370694314  798.859898282314 543.647058823529  C 793.318394036278 545.017989175734  765.886213672873 536.985294316264  747.948277516553 536.294117647059  C 728.509124961667 535.545096767623  707.1710949025 542.125005553401  701.279291814605 543.647058823529  C 643.260717961559 558.635231161237  654.461637021229 486.111112113279  610.769743786585 480.411764705882  C 567.618558674033 474.782949454583  493.39687395944 530.368102761755  471.011424369857 501.862551440318  C 448.389333810159 473.055662355196  189.90057710813 418.351970629911  170.825677465309 379.628571428571  C 147.381672119019 332.035577761398  0 270.075272850504  0 215.561904761905  Z " fill-rule="nonzero" fill="#f8c5cd" stroke="none" fill-opacity="0.56078431372549" transform="matrix(1 0 0 1 48 215 )" />
  </g>
</svg>