<?xml version="1.0" encoding="utf-8"?>
<svg version="1.1" xmlns:xlink="http://www.w3.org/1999/xlink" width="1198px" height="564px" xmlns="http://www.w3.org/2000/svg">
  <g transform="matrix(1 0 0 1 -39 -206 )">
    <path d="M 0.34895221548996 226.49258089789  C 0.34895221548996 201.506229143376  0.226425818245767 181.474428797378  5.29984690642749 164.493466592645  C 20.0184703249611 115.22959047599  59.9952514908989 91.6431550898578  102.930766405917 47.2504926283802  C 158.776214892661 -10.4902413441555  234.47779721802 45.8050944059061  346.961560150717 43.9312100329364  C 374.922969058427 43.4653966050045  410.410538580841 52.580118871635  449.993445259663 74.3978494623656  C 456.090658400896 77.7585767265126  473.444257457919 96.5331760654593  484.082958181125 101.279569892473  C 492.744112635403 105.143693069369  494.703582632257 122.827063928822  505.776284585693 137.838709677419  C 509.649294673511 143.089483667687  518.536060053538 145.50022609375  525.403579904111 150.741935483871  C 535.344988638619 158.329824073717  559.495826870235 163.439835928485  561.458425765499 164.016626862695  C 600.041327709548 175.355809876881  624.157384866116 176.813988271883  653.423012812195 176.813988271883  C 679.867644588548 176.813988271883  704.219336128211 140.291751503039  721.590605929611 101.41300248869  C 737.989167813685 64.7112772276046  750.456346118349 33.5376344086021  767.015392883717 13.7495954144933  C 775.211074181899 3.95576709758203  784.690481215841 0.204301075268859  799.152698818887 0.20430107526883  C 813.614916421931 0.204301075268802  832.729575550634 16.3590391047119  842.176971866147 30.4844307697792  C 874.135446576512 78.2675402346355  882.652850435975 126.467588870932  923.687838939773 158.110214384359  C 1014.20619593345 227.910123605152  1050.63562227141 211.902677757184  1112.94801222162 235.634646892254  C 1199.10104527071 268.446437979826  1201.91785465695 314.74121067582  1195.83859710083 371.697936599989  C 1189.75933954471 428.654662524156  1157.29492580088 427.072531248485  1189.2110279705 477.700732069968  C 1195.11310977751 487.063146734577  1195.44102014203 494.578930243825  1193.70122201592 500.729424104575  C 1191.50416378962 508.49641323381  1183.72426770351 514.086142766617  1154.25965173018 518.467964538835  C 1132.31548115657 521.731385466489  1138.97936480672 544.031803263044  1126.0200835384 553.534439567905  C 1120.1310905638 557.85265423435  1110.18991231067 559.528125899139  1091.6706107752 555.573531500846  C 1067.66792151442 550.448019595718  1048.09199633366 549.211414623039  1027.51620173433 534.417498846607  C 997.281683124062 512.678998313759  973.972762474606 481.286908911014  953.584000118984 481.286908911014  C 891.612059996531 481.286908911014  877.898793453628 547.906765831122  815.064391971824 563.468589958926  C 809.109089832951 564.94350437408  779.628480392117 554.317133414094  760.351073966759 553.573531500846  C 739.460351583792 552.767697936396  716.528957794537 559.846687983506  710.197199128783 561.484187879203  C 647.84623418844 577.609202109238  659.883553708876 505.241027512463  612.929078230891 499.109388779235  C 566.55568689415 493.053632014477  504.743269042618 556.118279569892  462.734657800198 518.421170778003  C 444.664653589065 502.20575935471  284.706851888576 463.204299646272  210.333839266349 425.913978494624  C 179.867334462938 410.638198901585  157.660851683351 382.844466711049  140.91733347631 369.320548746663  C 102.508657951008 338.297452495213  85.3344303400485 325.008758631941  70.6979508297438 312.568694950262  C 46.1565087974578 291.710051892899  20.043787014215 271.535090040808  20.043787014215 271.535090040808  C 20.043787014215 271.535090040808  0.34895221548996 253.137708402375  0.34895221548996 226.49258089789  Z " fill-rule="nonzero" fill="#caf982" stroke="none" fill-opacity="0.486274509803922" transform="matrix(1 0 0 1 39 206 )" />
  </g>
</svg>