<?xml version="1.0" encoding="utf-8"?>
<svg version="1.1" xmlns:xlink="http://www.w3.org/1999/xlink" width="35px" height="31px" xmlns="http://www.w3.org/2000/svg">
  <g transform="matrix(1 0 0 1 -764 -699 )">
    <path d="M 0.0117512758528114 13.2917808219178  C 0.0117512758528114 9.58993426778421  1.84780101041532 7.30159771717015  3.53713403169487 5.03455098934551  C 3.86344183783591 4.5966532895685  7.3011393389171 1.46540183085499  9.17774644104218 1.02389649923896  C 16.6985629868386 -0.745509893455097  15.5234354015579 0.357420091324203  19.166330915928 0.947222222222222  C 22.8092264302981 1.53702435312024  24.336892291163 5.50639269406393  26.4610053584099 7.44133646874342  C 28.5851184256567 9.37628024342291  34.0528471662638 16.1122146118721  34.7579237174322 18.5893835616438  C 35.7327616824579 22.0143142787673  32.5984111740825 29.300715864828  30.9176067687349 30.2780821917808  C 27.9838130454298 31.984045828157  23.7784331653809 30.0965691959942  20.1064329841526 28.744596651446  C 18.2888760082574 28.0754008430895  10.8229250604351 24.1441400304414  9.17774644104218 23.2004566210046  C 7.53256782164922 22.2567732115677  0.0117512758528114 15.5190887251807  0.0117512758528114 13.2917808219178  Z " fill-rule="nonzero" fill="#ec808d" stroke="none" fill-opacity="0.411764705882353" transform="matrix(1 0 0 1 764 699 )" />
  </g>
</svg>