<?xml version="1.0" encoding="utf-8"?>
<svg version="1.1" xmlns:xlink="http://www.w3.org/1999/xlink" width="72px" height="63px" xmlns="http://www.w3.org/2000/svg">
  <g transform="matrix(1 0 0 1 -885 -393 )">
    <path d="M 0.0241740531829263 27.0123287671233  C 0.0241740531829263 19.489221253884  3.80119064999724 14.8387308445716  7.27639000805802 10.2315068493151  C 7.94765178069101 9.34158571751018  15.019486640058 2.97807468851176  18.8799355358582 2.08082191780821  C 34.3513295729251 -1.51506849315068  31.9339242546334 0.726369863013703  39.4278807413376 1.925  C 46.9218372280419 3.1236301369863  50.0644641418211 11.1904109589041  54.4340681658717 15.1227160493818  C 58.8036721899223 19.0550211398595  70.0515713134569 32.7441780821918  71.5020145044319 37.7784246575342  C 73.5073954610562 44.7387677278174  67.0595887009697 59.5466161123924  63.6019339242546 61.5328767123288  C 57.5667011220269 64.9998350701255  48.9156339402122 61.1639954628269  41.361804995971 58.4164383561644  C 37.622830645558 57.0564597778915  22.2643029814666 49.0671232876712  18.8799355358582 47.1493150684932  C 15.4955680902498 45.2315068493151  0.0241740531829263 31.5387932156899  0.0241740531829263 27.0123287671233  Z " fill-rule="nonzero" fill="#ec808d" stroke="none" fill-opacity="0.411764705882353" transform="matrix(1 0 0 1 885 393 )" />
  </g>
</svg>