<?xml version="1.0" encoding="utf-8"?>
<svg version="1.1" xmlns:xlink="http://www.w3.org/1999/xlink" width="57px" height="37px" xmlns="http://www.w3.org/2000/svg">
  <g transform="matrix(1 0 0 1 -956 -462 )">
    <path d="M 0.491379310344828 7.44077134986225  C 2.43093874198555 -1.60932147795822  9.45983566577398 3.39283944369452  11.8692470298712 0.193947128963347  C 12.3346435659043 -0.423943790205888  41.5349040019218 0.85973437739904  44.5644204432539 3.59001633157757  C 47.5939368845861 6.32029828575615  55.3922854620862 15.8249672541113  56.3979009526642 19.3203503083985  C 57.7882636825108 24.1530625833704  53.3178960055543 34.4344624987839  50.9206485806495 35.8135649202707  C 46.7363250353166 38.2207468714125  40.7384016266682 35.5574429267893  35.5012110584537 33.6497563628547  C 32.9089202682701 32.7054946931996  20.6965687933066 29.2631910129975  19.914170954495 28.6418732782369  C 17.714228700166 26.8948552392558  8.59765833024339 27.2920859955805  6.11990595611282 24.5223877359292  C 4.26167946422039 22.4452121737675  -1.4481801212959 16.4908641776827  0.491379310344828 7.44077134986225  Z " fill-rule="nonzero" fill="#ec808d" stroke="none" fill-opacity="0.411764705882353" transform="matrix(1 0 0 1 956 462 )" />
  </g>
</svg>