<?xml version="1.0" encoding="utf-8"?>
<svg version="1.1" xmlns:xlink="http://www.w3.org/1999/xlink" width="21px" height="19px" xmlns="http://www.w3.org/2000/svg">
  <g transform="matrix(1 0 0 1 -1100 -633 )">
    <path d="M 0.00705076551168685 8.14657534246575  C 0.00705076551168685 5.87770164799678  1.10868060624919 4.47517279439461  2.12228041901692 3.08569254185693  C 2.31806510270154 2.81730362909037  4.38068360335026 0.898149509233706  5.50664786462531 0.627549467275492  C 10.0191377921031 -0.456925418569253  9.31406124093474 0.219063926940641  11.4997985495568 0.580555555555555  C 13.6855358581789 0.942047184170471  14.6021353746978 3.37488584474886  15.8766032150459 4.56081912600403  C 17.151071055394 5.74675240725921  20.4317082997583 9.87522831050228  20.8547542304593 11.3934931506849  C 21.4396570094747 13.4926442353735  19.5590467044495 17.9585032719914  18.5505640612409 18.5575342465753  C 16.7902878272579 19.6031248624188  14.2670598992285 18.4462843459319  12.0638597904915 17.6176560121766  C 10.9733256049544 17.2075037425387  6.49375503626108 14.7980213089802  5.50664786462531 14.2196347031964  C 4.51954069298953 13.6412480974125  0.00705076551168685 9.51169954123981  0.00705076551168685 8.14657534246575  Z " fill-rule="nonzero" fill="#ec808d" stroke="none" fill-opacity="0.411764705882353" transform="matrix(1 0 0 1 1100 633 )" />
  </g>
</svg>