<?xml version="1.0" encoding="utf-8"?>
<svg version="1.1" xmlns:xlink="http://www.w3.org/1999/xlink" width="12px" height="10px" xmlns="http://www.w3.org/2000/svg">
  <g transform="matrix(1 0 0 1 -1105 -660 )">
    <path d="M 0.00402900886382106 4.28767123287671  C 0.00402900886382106 3.0935271831562  0.63353177499954 2.35535410231295  1.21273166800967 1.62404870624049  C 1.32460863011517 1.48279138373177  2.503247773343 0.47271026801774  3.14665592264303 0.33028919330289  C 5.72522159548751 -0.24048706240487  5.32232070910556 0.115296803652969  6.57131345688961 0.305555555555556  C 7.82030620467365 0.495814307458142  8.34407735697019 1.77625570776256  9.07234469431195 2.40043111894949  C 9.80061203165371 3.02460653013642  11.6752618855761 5.19748858447489  11.9170024174053 5.99657534246575  C 12.2512325768427 7.10139170282816  11.1765981168283 9.45184382736387  10.6003223207091 9.76712328767123  C 9.59445018700449 10.3174341381152  8.15260565670203 9.70857070838522  6.89363416599516 9.27245053272451  C 6.27047177425966 9.05658091712563  3.71071716357776 7.78843226788432  3.14665592264303 7.48401826484018  C 2.58259468170831 7.17960426179605  0.00402900886382106 5.00615765328411  0.00402900886382106 4.28767123287671  Z " fill-rule="nonzero" fill="#ec808d" stroke="none" fill-opacity="0.411764705882353" transform="matrix(1 0 0 1 1105 660 )" />
  </g>
</svg>