<?xml version="1.0" encoding="utf-8"?>
<svg version="1.1" xmlns:xlink="http://www.w3.org/1999/xlink" width="40px" height="40px" xmlns="http://www.w3.org/2000/svg">
  <g transform="matrix(1 0 0 1 -32 -489 )">
    <path d="M 11.09375 0.0892857142857162  C 11.1979166666667 0.0297619047619069  11.3095238095238 0  11.4285714285714 0  C 11.6220238095238 0  11.7894345238095 0.0706845238095255  11.9308035714286 0.212053571428572  C 12.0721726190476 0.353422619047619  12.1428571428571 0.52083333333333  12.1428571428571 0.714285714285716  L 12.1428571428571 33.5714285714286  C 12.1428571428571 33.8690476190476  12.016369047619 34.077380952381  11.7633928571429 34.1964285714286  L 1.04910714285714 39.9107142857143  C 0.944940476190476 39.9702380952381  0.833333333333333 40  0.714285714285714 40  C 0.520833333333333 40  0.353422619047619 39.9293154761905  0.212053571428571 39.7879464285714  C 0.0706845238095238 39.6465773809524  0 39.4791666666667  0 39.2857142857143  L 0 6.42857142857143  C 0 6.13095238095238  0.126488095238095 5.92261904761905  0.379464285714286 5.80357142857143  L 11.09375 0.0892857142857162  Z M 38.9508928571429 0.0892857142857162  C 39.0550595238095 0.0297619047619069  39.1666666666667 0  39.2857142857143 0  C 39.4791666666667 0  39.6465773809524 0.0706845238095255  39.7879464285714 0.212053571428572  C 39.9293154761905 0.353422619047619  40 0.52083333333333  40 0.714285714285716  L 40 33.5714285714286  C 40 33.8690476190476  39.8735119047619 34.077380952381  39.6205357142857 34.1964285714286  L 28.90625 39.9107142857143  C 28.8020833333333 39.9702380952381  28.6904761904762 40  28.5714285714286 40  C 28.3779761904762 40  28.2105654761905 39.9293154761905  28.0691964285714 39.7879464285714  C 27.9278273809524 39.6465773809524  27.8571428571429 39.4791666666667  27.8571428571429 39.2857142857143  L 27.8571428571429 6.42857142857143  C 27.8571428571429 6.13095238095238  27.983630952381 5.92261904761905  28.2366071428571 5.80357142857143  L 38.9508928571429 0.0892857142857162  Z M 13.7834821428571 0.212053571428572  C 13.9248511904762 0.0706845238095255  14.0922619047619 0  14.2857142857143 0  C 14.4047619047619 0  14.5089285714286 0.0223214285714279  14.5982142857143 0.0669642857142838  L 26.0267857142857 5.78125  C 26.2946428571429 5.93005952380952  26.4285714285714 6.14583333333333  26 6.42857142857143  L 26 39.2857142857143  C 26.4285714285714 39.4791666666667  26.3578869047619 39.6465773809524  26.2165178571429 39.7879464285714  C 26.0751488095238 39.9293154761905  25.9077380952381 40  25.7142857142857 40  C 25.5952380952381 40  25.4910714285714 39.9776785714286  25.4017857142857 39.9330357142857  L 13.9732142857143 34.21875  C 13.7053571428571 34.0699404761905  13.5714285714286 33.8541666666667  14 33.5714285714286  L 14 0.714285714285716  C 13.5714285714286 0.52083333333333  13.6421130952381 0.353422619047619  13.7834821428571 0.212053571428572  Z " fill-rule="nonzero" fill="#ffffff" stroke="none" fill-opacity="0.698039215686274" transform="matrix(1 0 0 1 32 489 )" />
  </g>
</svg>