<?xml version="1.0" encoding="utf-8"?>
<svg version="1.1" xmlns:xlink="http://www.w3.org/1999/xlink" width="42px" height="45px" xmlns="http://www.w3.org/2000/svg">
  <g transform="matrix(1 0 0 1 -30 -396 )">
    <path d="M 3.23076923076923 34.5535714285714  L 3.23076923076923 41.7857142857143  L 10.5 41.7857142857143  L 10.5 34.5535714285714  L 3.23076923076923 34.5535714285714  Z M 12.1153846153846 34.5535714285714  L 12.1153846153846 41.7857142857143  L 20.1923076923077 41.7857142857143  L 20.1923076923077 34.5535714285714  L 12.1153846153846 34.5535714285714  Z M 3.23076923076923 24.9107142857143  L 3.23076923076923 32.9464285714286  L 10.5 32.9464285714286  L 10.5 24.9107142857143  L 3.23076923076923 24.9107142857143  Z M 12.1153846153846 24.9107142857143  L 12.1153846153846 32.9464285714286  L 20.1923076923077 32.9464285714286  L 20.1923076923077 24.9107142857143  L 12.1153846153846 24.9107142857143  Z M 3.23076923076923 16.0714285714286  L 3.23076923076923 23.3035714285714  L 10.5 23.3035714285714  L 10.5 16.0714285714286  L 3.23076923076923 16.0714285714286  Z M 21.8076923076923 34.5535714285714  L 21.8076923076923 41.7857142857143  L 29.8846153846154 41.7857142857143  L 29.8846153846154 34.5535714285714  L 21.8076923076923 34.5535714285714  Z M 12.1153846153846 16.0714285714286  L 12.1153846153846 23.3035714285714  L 20.1923076923077 23.3035714285714  L 20.1923076923077 16.0714285714286  L 12.1153846153846 16.0714285714286  Z M 31.5 34.5535714285714  L 31.5 41.7857142857143  L 38.7692307692308 41.7857142857143  L 38.7692307692308 34.5535714285714  L 31.5 34.5535714285714  Z M 21.8076923076923 24.9107142857143  L 21.8076923076923 32.9464285714286  L 29.8846153846154 32.9464285714286  L 29.8846153846154 24.9107142857143  L 21.8076923076923 24.9107142857143  Z M 12.6832932692308 11.8150111607143  C 12.8431490384615 11.6559709821429  12.9230769230769 11.4676339285714  12.9230769230769 11.25  L 12.9230769230769 4.01785714285714  C 12.9230769230769 3.80022321428571  12.8431490384615 3.61188616071428  12.6832932692308 3.45284598214286  C 12.5234375 3.29380580357142  12.3341346153846 3.21428571428571  12.1153846153846 3.21428571428571  L 10.5 3.21428571428571  C 10.28125 3.21428571428571  10.0919471153846 3.29380580357142  9.93209134615385 3.45284598214286  C 9.77223557692307 3.61188616071428  9.69230769230769 3.80022321428571  9.69230769230769 4.01785714285714  L 9.69230769230769 11.25  C 9.69230769230769 11.4676339285714  9.77223557692307 11.6559709821429  9.93209134615385 11.8150111607143  C 10.0919471153846 11.9740513392857  10.28125 12.0535714285714  10.5 12.0535714285714  L 12.1153846153846 12.0535714285714  C 12.3341346153846 12.0535714285714  12.5234375 11.9740513392857  12.6832932692308 11.8150111607143  Z M 31.5 24.9107142857143  L 31.5 32.9464285714286  L 38.7692307692308 32.9464285714286  L 38.7692307692308 24.9107142857143  L 31.5 24.9107142857143  Z M 21.8076923076923 16.0714285714286  L 21.8076923076923 23.3035714285714  L 29.8846153846154 23.3035714285714  L 29.8846153846154 16.0714285714286  L 21.8076923076923 16.0714285714286  Z M 31.5 16.0714285714286  L 31.5 23.3035714285714  L 38.7692307692308 23.3035714285714  L 38.7692307692308 16.0714285714286  L 31.5 16.0714285714286  Z M 32.0679086538462 11.8150111607143  C 32.2277644230769 11.6559709821429  32.3076923076923 11.4676339285714  32.3076923076923 11.25  L 32.3076923076923 4.01785714285714  C 32.3076923076923 3.80022321428571  32.2277644230769 3.61188616071428  32.0679086538462 3.45284598214286  C 31.9080528846154 3.29380580357142  31.71875 3.21428571428571  31.5 3.21428571428571  L 29.8846153846154 3.21428571428571  C 29.6658653846154 3.21428571428571  29.4765625 3.29380580357142  29.3167067307692 3.45284598214286  C 29.1568509615385 3.61188616071428  29.0769230769231 3.80022321428571  29.0769230769231 4.01785714285714  L 29.0769230769231 11.25  C 29.0769230769231 11.4676339285714  29.1568509615385 11.6559709821429  29.3167067307692 11.8150111607143  C 29.4765625 11.9740513392857  29.6658653846154 12.0535714285714  29.8846153846154 12.0535714285714  L 31.5 12.0535714285714  C 31.71875 12.0535714285714  31.9080528846154 11.9740513392857  32.0679086538462 11.8150111607143  Z M 41.0408653846154 7.3828125  C 41.6802884615385 8.01897321428572  42 8.77232142857143  42 9.64285714285714  L 42 41.7857142857143  C 42 42.65625  41.6802884615385 43.4095982142857  41.0408653846154 44.0457589285714  C 40.4014423076923 44.6819196428571  39.6442307692308 45  38.7692307692308 45  L 3.23076923076923 45  C 2.35576923076923 45  1.59855769230769 44.6819196428571  0.959134615384615 44.0457589285714  C 0.319711538461538 43.4095982142857  0 42.65625  0 41.7857142857143  L 0 9.64285714285714  C 0 8.77232142857143  0.319711538461538 8.01897321428572  0.959134615384615 7.3828125  C 1.59855769230769 6.74665178571428  2.35576923076923 6.42857142857143  3.23076923076923 6.42857142857143  L 6.46153846153846 6.42857142857143  L 6.46153846153846 4.01785714285714  C 6.46153846153846 2.91294642857143  6.85697115384615 1.96707589285714  7.64783653846154 1.18024553571429  C 8.43870192307693 0.393415178571429  9.38942307692308 0  10.5 0  L 12.1153846153846 0  C 13.2259615384615 0  14.1766826923077 0.393415178571429  14.9675480769231 1.18024553571429  C 15.7584134615385 1.96707589285714  16.1538461538462 2.91294642857143  16.1538461538462 4.01785714285714  L 16.1538461538462 6.42857142857143  L 25.8461538461538 6.42857142857143  L 25.8461538461538 4.01785714285714  C 25.8461538461538 2.91294642857143  26.2415865384615 1.96707589285714  27.0324519230769 1.18024553571429  C 27.8233173076923 0.393415178571429  28.7740384615385 0  29.8846153846154 0  L 31.5 0  C 32.6105769230769 0  33.5612980769231 0.393415178571429  34.3521634615385 1.18024553571429  C 35.1430288461539 1.96707589285714  35.5384615384615 2.91294642857143  35.5384615384615 4.01785714285714  L 35.5384615384615 6.42857142857143  L 38.7692307692308 6.42857142857143  C 39.6442307692308 6.42857142857143  40.4014423076923 6.74665178571428  41.0408653846154 7.3828125  Z " fill-rule="nonzero" fill="#ffffff" stroke="none" fill-opacity="0.701960784313725" transform="matrix(1 0 0 1 30 396 )" />
  </g>
</svg>