<?xml version="1.0" encoding="utf-8"?>
<svg version="1.1" xmlns:xlink="http://www.w3.org/1999/xlink" width="1361px" height="697px" xmlns="http://www.w3.org/2000/svg">
  <defs>
    <filter x="13px" y="190px" width="1361px" height="697px" filterUnits="userSpaceOnUse" id="filter569">
      <feOffset dx="5" dy="5" in="SourceAlpha" result="shadowOffsetInner" />
      <feGaussianBlur stdDeviation="2.5" in="shadowOffsetInner" result="shadowGaussian" />
      <feComposite in2="shadowGaussian" operator="atop" in="SourceAlpha" result="shadowComposite" />
      <feColorMatrix type="matrix" values="0 0 0 0 0.980392156862745  0 0 0 0 0.803921568627451  0 0 0 0 0.568627450980392  0 0 0 1 0  " in="shadowComposite" />
    </filter>
    <g id="widget570">
      <path d="M 14.5 192  A 0.5 0.5 0 0 1 15 191.5 L 1362 191.5  A 0.5 0.5 0 0 1 1362.5 192 L 1362.5 875  A 0.5 0.5 0 0 1 1362 875.5 L 15 875.5  A 0.5 0.5 0 0 1 14.5 875 L 14.5 192  Z " fill-rule="nonzero" fill="#f2f2f2" stroke="none" fill-opacity="0" />
      <path d="M 14 192  A 1 1 0 0 1 15 191 L 1362 191  A 1 1 0 0 1 1363 192 L 1363 875  A 1 1 0 0 1 1362 876 L 15 876  A 1 1 0 0 1 14 875 L 14 192  Z " stroke-width="2" stroke="#facd91" fill="none" />
    </g>
  </defs>
  <g transform="matrix(1 0 0 1 -13 -190 )">
    <use xlink:href="#widget570" filter="url(#filter569)" />
    <use xlink:href="#widget570" />
  </g>
</svg>