<?xml version="1.0" encoding="utf-8"?>
<svg version="1.1" xmlns:xlink="http://www.w3.org/1999/xlink" width="34px" height="26px" xmlns="http://www.w3.org/2000/svg">
  <g transform="matrix(1 0 0 1 -486 -56 )">
    <path d="M 29.4568965517241 9.60227272727273  C 30.1408045977012 8.91287878787878  30.4827586206897 8.07575757575757  30.4827586206897 7.09090909090909  C 30.4827586206897 6.1060606060606  30.1408045977012 5.26893939393939  29.4568965517241 4.57954545454546  C 28.7729885057471 3.89015151515151  27.9425287356322 3.54545454545454  26.9655172413793 3.54545454545454  L 25.7931034482759 3.54545454545454  L 25.7931034482759 10.6363636363636  L 26.9655172413793 10.6363636363636  C 27.9425287356322 10.6363636363636  28.7729885057471 10.2916666666667  29.4568965517241 9.60227272727273  Z M 1.3739224137931 24.6150568181818  C 0.457974137931034 23.6917613636364  0 22.5776515151515  0 21  L 32.8275862068966 21  C 32.8275862068966 22.5776515151515  32.3696120689655 23.6917613636364  31.4536637931034 24.6150568181818  C 30.5377155172414 25.5383522727273  29.4324712643678 26  28.1379310344828 26  L 4.68965517241379 26  C 3.39511494252874 26  2.28987068965517 25.5383522727273  1.3739224137931 24.6150568181818  Z M 31.9391163793103 2.07741477272727  C 33.3130387931034 3.46235795454546  34 5.13352272727273  34 7.09090909090909  C 34 9.04829545454546  33.3130387931034 10.7194602272727  31.9391163793103 12.1044034090909  C 30.5651939655172 13.4893465909091  28.9073275862069 14.1818181818182  26.9655172413793 14.1818181818182  L 25.7931034482759 14.1818181818182  L 25.7931034482759 14.7727272727273  C 25.7931034482759 15.905303030303  25.3900862068966 16.8778409090909  24.5840517241379 17.6903409090909  C 23.7780172413793 18.5028409090909  22.8132183908046 18.9090909090909  21.6896551724138 19  L 8.79310344827586 19  C 7.66954022988506 18.9090909090909  6.70474137931035 18.5028409090909  5.89870689655172 17.6903409090909  C 5.0926724137931 16.8778409090909  4.68965517241379 15.905303030303  5 14.7727272727273  L 5 1.18181818181818  C 4.68965517241379 0.861742424242423  4.80567528735632 0.584753787878784  5.03771551724138 0.350852272727274  C 5.26975574712644 0.116950757575755  5.54454022988506 0  5.86206896551724 0  L 26.9655172413793 0  C 28.9073275862069 0  30.5651939655172 0.69247159090909  31.9391163793103 2.07741477272727  Z " fill-rule="nonzero" fill="#ffffff" stroke="none" transform="matrix(1 0 0 1 486 56 )" />
  </g>
</svg>