<?xml version="1.0" encoding="utf-8"?>
<svg version="1.1" xmlns:xlink="http://www.w3.org/1999/xlink" width="69px" height="55px" xmlns="http://www.w3.org/2000/svg">
  <g transform="matrix(1 0 0 1 -686 -222 )">
    <path d="M 59.0817843866171 31.4224473889322  C 59.1102850061958 31.4796050922317  59.1245353159851 31.5653416471811  59 31.6796570537802  L 59 52.2564302416212  C 59.1245353159851 52.9994803845155  58.8537794299876 53.6425045466355  58.3122676579926 54.1855027279813  C 57.7707558859975 54.7285009093271  57.1294919454771 55  56.3884758364312 55  L 40 55  L 40 38  L 29 38  L 29 55  L 12.6115241635688 55  C 11.8705080545229 55  11.2292441140025 54.7285009093271  10.6877323420074 54.1855027279813  C 10.1462205700124 53.6425045466355  9.87546468401487 52.9994803845155  10 52.2564302416212  L 10 31.6796570537802  C 9.87546468401487 31.6510782021304  9.88258983890954 31.6082099246558  9.89684014869889 31.5510522213562  C 9.91109045848823 31.4938945180566  9.9182156133829 31.451026240582  9.9182156133829 31.4224473889322  L 34.5 11.1028838659392  L 59.0817843866171 31.4224473889322  Z M 68.957249070632 27.7143413873733  C 68.9857496902107 28.1001558846454  68.8859975216853 28.4359573915303  68.6579925650558 28.7217459080281  L 66.0074349442379 31.8939984411535  C 65.7794299876084 32.1512081060016  65.4801734820322 32.3083917900753  65.1096654275093 32.3655494933749  L 64.9814126394052 32.3655494933749  C 64.6109045848823 32.3655494933749  64.3116480793061 32.2655235126007  64.0836431226766 32.0654715510522  L 34.5 7.33047544816836  L 4.91635687732342 32.0654715510522  C 4.57434944237918 32.2941023642504  4.23234200743494 32.3941283450247  3.89033457249071 32.3655494933749  C 3.51982651796778 32.3083917900753  3.22057001239157 32.1512081060016  2.99256505576208 31.8939984411535  L 0.342007434944238 28.7217459080281  C 0.114002478314746 28.4359573915303  0.0142503097893433 28.1001558846454  0.0427509293680297 27.7143413873733  C 0.0712515489467164 27.3285268901013  0.228004956629492 27.0213042348662  0.513011152416357 26.792673421668  L 31.2509293680297 1.11457521434139  C 32.1629491945477 0.371525071447124  33.2459727385378 0  34.5 0  C 35.7540272614622 0  36.8370508054523 0.371525071447124  37.7490706319703 1.11457521434139  L 48.1802973977695 9.85970381917381  L 48.1802973977695 1.5003897116134  C 48.1802973977695 1.10028578851649  48.3085501858736 0.771628994544035  48.5650557620818 0.514419329696028  C 48.82156133829 0.257209664848014  49.1493184634449 0.128604832424007  49.5483271375465 0.128604832424007  L 57.7565055762082 0.128604832424007  C 58.1555142503098 0.128604832424007  58.4832713754647 0.257209664848014  58.7397769516729 0.514419329696028  C 58.996282527881 0.771628994544035  59.1245353159851 1.10028578851649  59 1.5003897116134  L 59 18.9906469212783  L 68.4869888475836 26.792673421668  C 68.7719950433705 27.0213042348662  68.9287484510533 27.3285268901013  68.957249070632 27.7143413873733  Z " fill-rule="nonzero" fill="#ffffff" stroke="none" transform="matrix(1 0 0 1 686 222 )" />
  </g>
</svg>