<?xml version="1.0" encoding="utf-8"?>
<svg version="1.1" xmlns:xlink="http://www.w3.org/1999/xlink" width="60px" height="60px" xmlns="http://www.w3.org/2000/svg">
  <g transform="matrix(1 0 0 1 -711 -26 )">
    <path d="M 52.5588025659302 0.599144079885876  C 55.295794725588 -0.31383737517833  57.4055595153243 -0.14265335235379  58.888096935139 1.11269614835949  C 60.1425516749822 2.59629101283879  60.3136136849608 4.70756062767475  59.4012829650748 7.44650499286734  C 58.4889522451889 10.1854493580599  56.9493941553813 12.6390870185449  54.7826086956522 14.8074179743224  L 47.8973627940128 21.69757489301  L 54.7398431931575 51.4835948644793  C 54.8823948681397 52.0256776034237  54.7113328581611 52.4964336661912  54.2266571632217 52.8958630527817  L 48.7526728439059 57.0042796005706  C 48.5531004989309 57.1754636233952  48.2822523164647 57.2610556348074  47.9401282965075 57.2610556348074  C 47.8260869565217 57.2610556348074  47.7263007840342 57.246790299572  47.6407697790449 57.2182596291013  C 47.2131147540984 57.132667617689  46.9137562366358 56.904422253923  46.7426942266572 56.5335235378031  L 34.8111190306486 34.793152639087  L 23.7348538845331 45.8773181169758  L 26.0014255167498 54.1797432239658  C 26.143977191732 54.6647646219686  26.0299358517463 55.1069900142653  25.6593014967926 55.5064194008559  L 21.5538132573058 59.6148359486448  C 21.2972202423378 59.8716119828816  20.9693513898788 60  20.5702066999287 60  L 20.4846756949394 60  C 20.0570206699929 59.9429386590585  19.7148966500356 59.7574893009986  19.4583036350677 59.4436519258203  L 11.375623663578 48.6590584878745  L 0.59871703492516 40.5706134094151  C 0.285103349964362 40.3708987161198  0.0997861724875267 40.0427960057061  0.0427655024946543 39.586305278174  C 0.0142551674982181 39.2154065620542  0.142551674982181 38.8587731811698  0.427655024946543 38.5164051355207  L 4.53314326443336 34.3651925820257  C 4.78973627940128 34.1084165477889  5.1176051318603 33.9800285306705  5.51674982181041 33.9800285306705  C 5.68781183178902 33.9800285306705  5.80185317177477 33.9942938659058  5.85887384176764 34.0228245363766  L 14.1553813257306 36.2910128388017  L 25.231646471846 25.206847360913  L 3.50677120456165 13.2667617689016  C 3.10762651461155 13.0385164051355  2.86528866714184 12.6961483594864  2.77975766215253 12.2396576319544  C 2.72273699215966 11.7831669044223  2.85103349964362 11.398002853067  3.16464718460442 11.0841654778887  L 8.63863150392017 5.60627674750357  C 9.03777619387028 5.23537803138373  9.46543121881682 5.12125534950071  9.9215965787598 5.2639087018545  L 38.3606557377049 12.0684736091298  L 45.2031361368496 5.22111269614836  C 47.3699215965788 3.05278174037089  49.8218104062723 1.51212553495007  52.5588025659302 0.599144079885876  Z " fill-rule="nonzero" fill="#ffffff" stroke="none" transform="matrix(1 0 0 1 711 26 )" />
  </g>
</svg>