<?xml version="1.0" encoding="utf-8"?>
<svg version="1.1" xmlns:xlink="http://www.w3.org/1999/xlink" width="38px" height="33px" xmlns="http://www.w3.org/2000/svg">
  <g transform="matrix(1 0 0 1 -617 -80 )">
    <path d="M 33.32421875 16.5  L 33.84375 16.5  C 34.994140625 16.5  35.9744466145833 16.9020647321429  36.78466796875 17.7061941964286  C 37.5948893229167 18.5103236607143  38 19.4832589285714  38 20.625  L 38 27.6964285714286  C 38 27.8683035714286  37.9443359375 28.0094866071429  37.8330078125 28.1199776785714  C 37.7216796875 28.23046875  37.5794270833333 28.2857142857143  37.40625 28.2857142857143  L 35.625 28.2857142857143  L 35.625 29.4642857142857  C 35.625 30.4464285714286  35.2786458333333 31.28125  34.5859375 31.96875  C 33.8932291666667 32.65625  33.0520833333333 33  32.0625 33  C 31.0729166666667 33  30.2317708333333 32.65625  29.5390625 31.96875  C 28.8463541666667 31.28125  28.5 30.4464285714286  28.5 29.4642857142857  L 28.5 28  L 9.5 28  L 9.5 29.4642857142857  C 9.5 30.4464285714286  9.15364583333333 31.28125  8.4609375 31.96875  C 7.76822916666667 32.65625  6.92708333333333 33  5.9375 33  C 4.94791666666667 33  4.10677083333333 32.65625  3.4140625 31.96875  C 2.72135416666667 31.28125  2.375 30.4464285714286  2.375 29.4642857142857  L 2.375 28.2857142857143  L 0.59375 28.2857142857143  C 0.420572916666667 28.2857142857143  0.2783203125 28.23046875  0.1669921875 28.1199776785714  C 0.0556640625 28.0094866071429  0 27.8683035714286  0 27.6964285714286  L 0 20.625  C 0 19.4832589285714  0.405110677083333 18.5103236607143  1.21533203125 17.7061941964286  C 2.02555338541667 16.9020647321429  3.005859375 16.5  4.15625 16.5  L 4.67578125 16.5  L 6.6240234375 8.78404017857143  C 6.90852864583333 7.63002232142857  7.5517578125 6.66322544642857  8.5537109375 5.88364955357143  C 9.5556640625 5.10407366071428  10.6627604166667 4.71428571428572  11.875 4.71428571428572  L 14.25 4.71428571428572  L 14.25 0.589285714285716  C 14.25 0.417410714285711  14.3056640625 0.276227678571428  14.4169921875 0.165736607142856  C 14.5283203125 0.0552455357142841  14.6705729166667 0  14.84375 0  L 23.15625 0  C 23.3294270833333 0  23.4716796875 0.0552455357142841  23.5830078125 0.165736607142856  C 23.6943359375 0.276227678571428  23.75 0.417410714285711  23.75 0.589285714285716  L 23.75 4.71428571428572  L 26.125 4.71428571428572  C 27.3372395833333 4.71428571428572  28.4443359375 5.10407366071428  29.4462890625 5.88364955357143  C 30.4482421875 6.66322544642857  31.0914713541667 7.63002232142857  31.3759765625 8.78404017857143  L 33.32421875 16.5  Z M 3.8408203125 24.4737723214286  C 4.42220052083333 25.05078125  5.12109375 25.3392857142857  5.9375 25.3392857142857  C 6.75390625 25.3392857142857  7.45279947916667 25.05078125  8.0341796875 24.4737723214286  C 8.61555989583333 23.8967633928571  8.90625 23.203125  8.90625 22.3928571428571  C 8.90625 21.5825892857143  8.61555989583333 20.8889508928571  8.0341796875 20.3119419642857  C 7.45279947916667 19.7349330357143  6.75390625 19.4464285714286  5.9375 19.4464285714286  C 5.12109375 19.4464285714286  4.42220052083333 19.7349330357143  3.8408203125 20.3119419642857  C 3.25944010416667 20.8889508928571  2.96875 21.5825892857143  2.96875 22.3928571428571  C 2.96875 23.203125  3.25944010416667 23.8967633928571  3.8408203125 24.4737723214286  Z M 11.2255859375 9.92578125  L 9.57421875 16  L 28.42578125 16  L 26.7744140625 9.92578125  C 26.7496744791667 9.82756696428571  26.6630859375 9.72014508928571  26.5146484375 9.603515625  C 26.3662109375 9.48688616071428  26.236328125 9.42857142857143  26.125 10  L 11.875 10  C 11.763671875 9.42857142857143  11.6337890625 9.48688616071428  11.4853515625 9.603515625  C 11.3369140625 9.72014508928571  11.2503255208333 9.82756696428571  11.2255859375 9.92578125  Z M 29.9658203125 24.4737723214286  C 30.5472005208333 25.05078125  31.24609375 25.3392857142857  32.0625 25.3392857142857  C 32.87890625 25.3392857142857  33.5777994791667 25.05078125  34.1591796875 24.4737723214286  C 34.7405598958333 23.8967633928571  35.03125 23.203125  35.03125 22.3928571428571  C 35.03125 21.5825892857143  34.7405598958333 20.8889508928571  34.1591796875 20.3119419642857  C 33.5777994791667 19.7349330357143  32.87890625 19.4464285714286  32.0625 19.4464285714286  C 31.24609375 19.4464285714286  30.5472005208333 19.7349330357143  29.9658203125 20.3119419642857  C 29.3844401041667 20.8889508928571  29.09375 21.5825892857143  29.09375 22.3928571428571  C 29.09375 23.203125  29.3844401041667 23.8967633928571  29.9658203125 24.4737723214286  Z " fill-rule="nonzero" fill="#ffffff" stroke="none" transform="matrix(1 0 0 1 617 80 )" />
  </g>
</svg>