<?xml version="1.0" encoding="utf-8"?>
<svg version="1.1" xmlns:xlink="http://www.w3.org/1999/xlink" width="39px" height="45px" xmlns="http://www.w3.org/2000/svg">
  <g transform="matrix(1 0 0 1 -387 -120 )">
    <path d="M 8.7978515625 32.8083147321429  C 9.4326171875 32.1805245535714  9.75 31.4229910714286  9.75 30.5357142857143  C 9.75 29.6484375  9.4326171875 28.8909040178571  8.7978515625 28.2631138392857  C 8.1630859375 27.6353236607143  7.39713541666667 27.3214285714286  6.5 27.3214285714286  C 5.60286458333333 27.3214285714286  4.8369140625 27.6353236607143  4.2021484375 28.2631138392857  C 3.5673828125 28.8909040178571  3.25 29.6484375  3.25 30.5357142857143  C 3.25 31.4229910714286  3.5673828125 32.1805245535714  4.2021484375 32.8083147321429  C 4.8369140625 33.4361049107143  5.60286458333333 33.75  6.5 33.75  C 7.39713541666667 33.75  8.1630859375 33.4361049107143  8.7978515625 32.8083147321429  Z M 34.7978515625 32.8083147321429  C 35.4326171875 32.1805245535714  35.75 31.4229910714286  35.75 30.5357142857143  C 35.75 29.6484375  35.4326171875 28.8909040178571  34.7978515625 28.2631138392857  C 34.1630859375 27.6353236607143  33.3971354166667 27.3214285714286  32.5 27.3214285714286  C 31.6028645833333 27.3214285714286  30.8369140625 27.6353236607143  30.2021484375 28.2631138392857  C 29.5673828125 28.8909040178571  29.25 29.6484375  29.25 30.5357142857143  C 29.25 31.4229910714286  29.5673828125 32.1805245535714  30.2021484375 32.8083147321429  C 30.8369140625 33.4361049107143  31.6028645833333 33.75  32.5 33.75  C 33.3971354166667 33.75  34.1630859375 33.4361049107143  34.7978515625 32.8083147321429  Z M 34.2265625 21.9224330357143  C 34.5481770833333 21.5373883928571  34.6666666666667 21.09375  34.58203125 20.5915178571429  L 32.75390625 10.9486607142857  C 32.6692708333333 10.5636160714286  32.4788411458333 10.2497209821429  32.1826171875 10.0069754464286  C 31.8863932291667 9.76422991071428  31.5436197916667 9.64285714285714  31.154296875 10  L 7.845703125 10  C 7.45638020833333 9.64285714285714  7.11360677083333 9.76422991071428  6.8173828125 10.0069754464286  C 6.52115885416667 10.2497209821429  6.33072916666667 10.5636160714286  6.24609375 10.9486607142857  L 4.41796875 20.5915178571429  C 4.33333333333333 21.09375  4.45182291666667 21.5373883928571  4.7734375 21.9224330357143  C 5.09505208333333 22.3074776785714  5.509765625 22.5  6.017578125 22  L 32.982421875 22  C 33.490234375 22.5  33.9049479166667 22.3074776785714  34.2265625 21.9224330357143  Z M 28.48828125 6.07700892857143  C 28.7252604166667 5.84263392857142  28.84375 5.55803571428571  28.84375 5.22321428571429  C 28.84375 4.88839285714285  28.7252604166667 4.60379464285714  28.48828125 4.36941964285714  C 28.2513020833333 4.13504464285714  27.9635416666667 4.01785714285714  27.625 4  L 11.375 4  C 11.0364583333333 4.01785714285714  10.7486979166667 4.13504464285714  10.51171875 4.36941964285714  C 10.2747395833333 4.60379464285714  10.15625 4.88839285714285  10.15625 5.22321428571429  C 10.15625 5.55803571428571  10.2747395833333 5.84263392857142  10.51171875 6.07700892857143  C 10.7486979166667 6.31138392857143  11.0364583333333 6.42857142857143  11.375 7  L 27.625 7  C 27.9635416666667 6.42857142857143  28.2513020833333 6.31138392857143  28.48828125 6.07700892857143  Z M 38.416015625 17.8292410714286  C 38.8053385416667 19.5368303571429  39 21.4034598214286  39 23.4291294642857  L 39 38.5714285714286  L 35.75 38.5714285714286  L 35.75 41.7857142857143  C 35.75 42.6729910714286  35.4326171875 43.4305245535714  34.7978515625 44.0583147321429  C 34.1630859375 44.6861049107143  33.3971354166667 45  32.5 45  C 31.6028645833333 45  30.8369140625 44.6861049107143  30.2021484375 44.0583147321429  C 29.5673828125 43.4305245535714  29.25 42.6729910714286  29.25 41.7857142857143  L 29.25 38  L 9.75 38  L 9.75 41.7857142857143  C 9.75 42.6729910714286  9.4326171875 43.4305245535714  8.7978515625 44.0583147321429  C 8.1630859375 44.6861049107143  7.39713541666667 45  6.5 45  C 5.60286458333333 45  4.8369140625 44.6861049107143  4.2021484375 44.0583147321429  C 3.5673828125 43.4305245535714  3.25 42.6729910714286  3.25 41.7857142857143  L 3.25 38.5714285714286  L 0 38.5714285714286  L 0 23.4291294642857  C 0 21.5541294642857  0.211588541666667 19.6875  0.634765625 17.8292410714286  L 3.25 6.42857142857143  C 3.40234375 5.12276785714286  4.2275390625 3.97600446428571  5.7255859375 2.98828125  C 7.2236328125 2.00055803571428  9.17024739583333 1.25558035714286  11.5654296875 0.753348214285713  C 13.9606119791667 0.251116071428569  16.60546875 0  19.5 0  C 22.39453125 0  25.0393880208333 0.251116071428569  27.4345703125 0.753348214285713  C 29.8297526041667 1.25558035714286  31.7763671875 2.00055803571428  33.2744140625 2.98828125  C 34.7724609375 3.97600446428571  35.59765625 5.12276785714286  35.75 6.42857142857143  L 38.416015625 17.8292410714286  Z " fill-rule="nonzero" fill="#ffffff" stroke="none" transform="matrix(1 0 0 1 387 120 )" />
  </g>
</svg>