<?xml version="1.0" encoding="utf-8"?>
<svg version="1.1" xmlns:xlink="http://www.w3.org/1999/xlink" width="467px" height="374px" xmlns="http://www.w3.org/2000/svg">
  <g transform="matrix(1 0 0 1 -542 -435 )">
    <path d="M 433.555989583333 278.186848958333  C 435.096440972222 276.644748263889  435.866666666667 274.818576388889  435 272.708333333333  L 435 38.9583333333333  C 435.866666666667 36.8480902777777  435.096440972222 35.0219184027777  433.555989583333 33.4798177083333  C 432.015538194445 31.9377170138889  430.191319444445 31.1666666666667  428.083333333333 32  L 38.9166666666667 32  C 36.8086805555556 31.1666666666667  34.9844618055556 31.9377170138889  33.4440104166667 33.4798177083333  C 31.9035590277778 35.0219184027777  31.1333333333333 36.8480902777777  32 38.9583333333333  L 32 272.708333333333  C 31.1333333333333 274.818576388889  31.9035590277778 276.644748263889  33.4440104166667 278.186848958333  C 34.9844618055556 279.728949652778  36.8086805555556 280.5  38.9166666666667 280  L 428.083333333333 280  C 430.191319444445 280.5  432.015538194445 279.728949652778  433.555989583333 278.186848958333  Z M 455.568229166667 11.4440104166667  C 463.189409722222 19.0733506944444  467 28.2447916666667  467 38.9583333333333  L 467 272.708333333333  C 467 283.421875  463.189409722222 292.593315972222  455.568229166667 300.22265625  C 447.947048611111 307.851996527778  438.785416666667 311.666666666667  428.083333333333 311  L 249 311  L 249 342  L 334.683333333333 342  C 336.953472222222 342.833333333333  338.818229166667 343.563802083333  340.277604166667 345.024739583333  C 341.736979166667 346.485677083333  342.466666666667 348.352430555556  342 350.625  L 342 366.208333333333  C 342.466666666667 368.480902777778  341.736979166667 370.34765625  340.277604166667 371.80859375  C 338.818229166667 373.26953125  336.953472222222 374  334.683333333333 374  L 132.316666666667 374  C 130.046527777778 374  128.181770833333 373.26953125  126.722395833333 371.80859375  C 125.263020833333 370.34765625  124.533333333333 368.480902777778  125 366.208333333333  L 125 350.625  C 124.533333333333 348.352430555556  125.263020833333 346.485677083333  126.722395833333 345.024739583333  C 128.181770833333 343.563802083333  130.046527777778 342.833333333333  132.316666666667 342  L 218 342  L 218 311  L 38.9166666666667 311  C 28.2145833333333 311.666666666667  19.0529513888889 307.851996527778  11.4317708333333 300.22265625  C 3.81059027777778 292.593315972222  0 283.421875  0 272.708333333333  L 0 38.9583333333333  C 0 28.2447916666667  3.81059027777778 19.0733506944444  11.4317708333333 11.4440104166667  C 19.0529513888889 3.81467013888885  28.2145833333333 0  38.9166666666667 0  L 428.083333333333 0  C 438.785416666667 0  447.947048611111 3.81467013888885  455.568229166667 11.4440104166667  Z " fill-rule="nonzero" fill="#000000" stroke="none" transform="matrix(1 0 0 1 542 435 )" />
  </g>
</svg>