<?xml version="1.0" encoding="utf-8"?>
<svg version="1.1" xmlns:xlink="http://www.w3.org/1999/xlink" width="38px" height="44px" xmlns="http://www.w3.org/2000/svg">
  <g transform="matrix(1 0 0 1 -523 -98 )">
    <path d="M 11.0833333333333 0  L 26.9166666666667 0  C 29.9678819444444 0  32.5779079861111 0.765252976190478  34.7467447916667 2.29575892857143  C 36.9155815972222 3.82626488095238  38 5.68005952380952  38 7.85714285714286  L 38 29.8571428571429  C 38 31.985119047619  36.9650607638889 33.8020833333333  34.8951822916667 35.3080357142857  C 32.8253038194444 36.8139880952381  30.3059895833333 37.6078869047619  27.3372395833333 37.6897321428571  L 32.6067708333333 42.6495535714286  C 32.8706597222222 42.8950892857143  32.9366319444444 43.1815476190476  32.8046875 43.5089285714286  C 32.6727430555556 43.8363095238095  32.4253472222222 44  32.0625 44  L 5.9375 44  C 5.57465277777778 44  5.32725694444444 43.8363095238095  5.1953125 43.5089285714286  C 5.06336805555556 43.1815476190476  5.12934027777778 42.8950892857143  5.39322916666667 42.6495535714286  L 10.6627604166667 37.6897321428571  C 7.69401041666667 37.6078869047619  5.17469618055556 36.8139880952381  3.10481770833333 35.3080357142857  C 1.03493923611111 33.8020833333333  0 31.985119047619  0 29.8571428571429  L 0 7.85714285714286  C 0 5.68005952380952  1.08441840277778 3.82626488095238  3.25325520833333 2.29575892857143  C 5.42209201388889 0.765252976190478  8.03211805555556 0  11.0833333333333 0  Z M 4.32942708333333 31.0602678571429  C 5.10460069444444 31.8296130952381  6.03645833333333 32.2142857142857  7.125 32.2142857142857  C 8.21354166666667 32.2142857142857  9.14539930555556 31.8296130952381  9.92057291666667 31.0602678571429  C 10.6957465277778 30.2909226190476  11.0833333333333 29.3660714285714  11.0833333333333 28.2857142857143  C 11.0833333333333 27.2053571428571  10.6957465277778 26.280505952381  9.92057291666667 25.5111607142857  C 9.14539930555556 24.7418154761905  8.21354166666667 24.3571428571429  7.125 24.3571428571429  C 6.03645833333333 24.3571428571429  5.10460069444444 24.7418154761905  4.32942708333333 25.5111607142857  C 3.55425347222222 26.280505952381  3.16666666666667 27.2053571428571  3.16666666666667 28.2857142857143  C 3.16666666666667 29.3660714285714  3.55425347222222 30.2909226190476  4.32942708333333 31.0602678571429  Z M 4 19  L 18 19  L 18 7  L 4 7  L 4 19  Z M 28.0794270833333 31.0602678571429  C 28.8546006944444 31.8296130952381  29.7864583333333 32.2142857142857  30.875 32.2142857142857  C 31.9635416666667 32.2142857142857  32.8953993055556 31.8296130952381  33.6705729166667 31.0602678571429  C 34.4457465277778 30.2909226190476  34.8333333333333 29.3660714285714  34.8333333333333 28.2857142857143  C 34.8333333333333 27.2053571428571  34.4457465277778 26.280505952381  33.6705729166667 25.5111607142857  C 32.8953993055556 24.7418154761905  31.9635416666667 24.3571428571429  30.875 24.3571428571429  C 29.7864583333333 24.3571428571429  28.8546006944444 24.7418154761905  28.0794270833333 25.5111607142857  C 27.3042534722222 26.280505952381  26.9166666666667 27.2053571428571  26.9166666666667 28.2857142857143  C 26.9166666666667 29.3660714285714  27.3042534722222 30.2909226190476  28.0794270833333 31.0602678571429  Z M 20 19  L 34.8333333333333 19  L 34.8333333333333 7  L 20 7  L 20 19  Z " fill-rule="nonzero" fill="#ffffff" stroke="none" transform="matrix(1 0 0 1 523 98 )" />
  </g>
</svg>