<?xml version="1.0" encoding="utf-8"?>
<svg version="1.1" xmlns:xlink="http://www.w3.org/1999/xlink" width="68px" height="57px" xmlns="http://www.w3.org/2000/svg">
  <g transform="matrix(1 0 0 1 -452 -202 )">
    <path d="M 24.6009615384615 48.1747159090909  C 25.636217948718 49.2002840909091  26.1538461538462 50.4147727272727  26.1538461538462 51.8181818181818  C 26.1538461538462 53.2215909090909  25.636217948718 54.4360795454545  24.6009615384615 55.4616477272727  C 23.5657051282051 56.4872159090909  22.3397435897436 57  20.9230769230769 57  C 19.5064102564103 57  18.2804487179487 56.4872159090909  17.2451923076923 55.4616477272727  C 16.2099358974359 54.4360795454545  15.6923076923077 53.2215909090909  15.6923076923077 51.8181818181818  C 15.6923076923077 50.4147727272727  16.2099358974359 49.2002840909091  17.2451923076923 48.1747159090909  C 18.2804487179487 47.1491477272727  19.5064102564103 46.6363636363636  20.9230769230769 46.6363636363636  C 22.3397435897436 46.6363636363636  23.5657051282051 47.1491477272727  24.6009615384615 48.1747159090909  Z M 61.2163461538462 48.1747159090909  C 62.2516025641026 49.2002840909091  62.7692307692308 50.4147727272727  62.7692307692308 51.8181818181818  C 62.7692307692308 53.2215909090909  62.2516025641026 54.4360795454545  61.2163461538462 55.4616477272727  C 60.1810897435897 56.4872159090909  58.9551282051282 57  57.5384615384615 57  C 56.1217948717949 57  54.8958333333333 56.4872159090909  53.8605769230769 55.4616477272727  C 52.8253205128205 54.4360795454545  52.3076923076923 53.2215909090909  52.3076923076923 51.8181818181818  C 52.3076923076923 50.4147727272727  52.8253205128205 49.2002840909091  53.8605769230769 48.1747159090909  C 54.8958333333333 47.1491477272727  56.1217948717949 46.6363636363636  57.5384615384615 46.6363636363636  C 58.9551282051282 46.6363636363636  60.1810897435897 47.1491477272727  61.2163461538462 48.1747159090909  Z M 67.2235576923077 5.95099431818182  C 67.7411858974359 6.4637784090909  68 7.07102272727272  68 7.77272727272727  L 68 28.5  C 68 29.1477272727273  67.7752403846154 29.7212357954545  67.3257211538461 30.2205255681818  C 66.8762019230769 30.7198153409091  66.3245192307692 31.0099431818182  65.6706730769231 31.0909090909091  L 23.0072115384615 36.0298295454545  C 23.3613782051282 37.6491477272727  23.5384615384615 38.59375  23.5384615384615 38.8636363636364  C 23.5384615384615 39.2954545454545  23.2115384615385 40.1590909090909  22.5576923076923 41  L 60.1538461538462 41  C 60.8621794871795 41.4545454545455  61.4751602564103 41.7109375  61.9927884615385 42.2237215909091  C 62.5104166666667 42.7365056818182  62.7692307692308 43.34375  62.7692307692308 44.0454545454545  C 62.7692307692308 44.7471590909091  62.5104166666667 45.3544034090909  61.9927884615385 45.8671875  C 61.4751602564103 46.3799715909091  60.8621794871795 46.6363636363636  60.1538461538462 46  L 18.3076923076923 46  C 17.599358974359 46.6363636363636  16.9863782051282 46.3799715909091  16.46875 45.8671875  C 15.9511217948718 45.3544034090909  15.6923076923077 44.7471590909091  15.6923076923077 44.0454545454545  C 15.6923076923077 43.7485795454545  15.801282051282 43.3235085227273  16.0192307692308 42.7702414772727  C 16.2371794871795 42.2169744318182  16.4551282051282 41.7311789772727  16.6730769230769 41.3128551136364  C 16.8910256410256 40.89453125  17.1838942307692 40.3547585227273  17.5516826923077 39.6935369318182  C 17.9194711538462 39.0323153409091  18.130608974359 38.6342329545455  18.1850961538462 38.4992897727273  L 10.9519230769231 5.18181818181818  L 2.61538461538462 5.18181818181818  C 1.90705128205128 5.18181818181818  1.29407051282051 4.92542613636363  0.776442307692308 4.41264204545454  C 0.258814102564103 3.89985795454545  0 3.29261363636363  0 2.59090909090909  C 0 1.88920454545454  0.258814102564103 1.28196022727272  0.776442307692308 0.769176136363639  C 1.29407051282051 0.25639204545454  1.90705128205128 0  2.61538461538462 0  L 13.0769230769231 0  C 13.5128205128205 0  13.9010416666667 0.0877130681818143  14.2415865384615 0.263139204545456  C 14.5821314102564 0.438565340909091  14.8477564102564 0.647727272727272  15.0384615384615 0.890625  C 15.2291666666667 1.13352272727273  15.40625 1.46413352272726  15.5697115384615 1.88245738636364  C 15.7331730769231 2.30078125  15.8421474358974 2.65163352272727  15.8966346153846 2.93501420454546  C 15.9511217948718 3.21839488636364  16.0260416666667 3.61647727272727  16.1213942307692 4.12926136363636  C 16.2167467948718 4.64204545454545  16.2780448717949 4.99289772727272  16.3052884615385 6  L 65.3846153846154 6  C 66.0929487179487 5.18181818181818  66.7059294871795 5.43821022727272  67.2235576923077 5.95099431818182  Z " fill-rule="nonzero" fill="#ffffff" stroke="none" transform="matrix(1 0 0 1 452 202 )" />
  </g>
</svg>