<?xml version="1.0" encoding="utf-8"?>
<svg version="1.1" xmlns:xlink="http://www.w3.org/1999/xlink" width="66px" height="84px" xmlns="http://www.w3.org/2000/svg">
  <g transform="matrix(1 0 0 1 -689 -9 )">
    <path d="M 3 0  L 63 0  C 63.8125 0  64.515625 0.296875000000007  65.109375 0.890625000000003  C 65.703125 1.48437499999999  66 2.1875  66 3  L 66 81  C 66 81.8125  65.703125 82.515625  65.109375 83.109375  C 64.515625 83.703125  63.8125 84  63 84  L 3 84  C 2.1875 84  1.484375 83.703125  0.890625 83.109375  C 0.296875 82.515625  0 81.8125  0 81  L 0 3  C 0 2.1875  0.296875 1.48437499999999  0.890625 0.890625000000003  C 1.484375 0.296875000000007  2.1875 0  3 0  Z M 24.421875 12.421875  C 24.140625 12.703125  24 13.0625  24 13.5  L 24 16.5  C 24 16.9375  24.140625 17.296875  24.421875 17.578125  C 24.703125 17.859375  25.0625 18  25.5 18  L 28.5 18  C 28.9375 18  29.296875 17.859375  29.578125 17.578125  C 29.859375 17.296875  30 16.9375  30 16.5  L 30 13.5  C 30 13.0625  29.859375 12.703125  29.578125 12.421875  C 29.296875 12.140625  28.9375 12  28.5 12  L 25.5 12  C 25.0625 12  24.703125 12.140625  24.421875 12.421875  Z M 24.421875 24.421875  C 24.140625 24.703125  24 25.0625  24 25.5  L 24 28.5  C 24 28.9375  24.140625 29.296875  24.421875 29.578125  C 24.703125 29.859375  25.0625 30  25.5 30  L 28.5 30  C 28.9375 30  29.296875 29.859375  29.578125 29.578125  C 29.859375 29.296875  30 28.9375  30 28.5  L 30 25.5  C 30 25.0625  29.859375 24.703125  29.578125 24.421875  C 29.296875 24.140625  28.9375 24  28.5 24  L 25.5 24  C 25.0625 24  24.703125 24.140625  24.421875 24.421875  Z M 24.421875 36.421875  C 24.140625 36.703125  24 37.0625  24 37.5  L 24 40.5  C 24 40.9375  24.140625 41.296875  24.421875 41.578125  C 24.703125 41.859375  25.0625 42  25.5 42  L 28.5 42  C 28.9375 42  29.296875 41.859375  29.578125 41.578125  C 29.859375 41.296875  30 40.9375  30 40.5  L 30 37.5  C 30 37.0625  29.859375 36.703125  29.578125 36.421875  C 29.296875 36.140625  28.9375 36  28.5 36  L 25.5 36  C 25.0625 36  24.703125 36.140625  24.421875 36.421875  Z M 24.421875 48.421875  C 24.140625 48.703125  24 49.0625  24 49.5  L 24 52.5  C 24 52.9375  24.140625 53.296875  24.421875 53.578125  C 24.703125 53.859375  25.0625 54  25.5 54  L 28.5 54  C 28.9375 54  29.296875 53.859375  29.578125 53.578125  C 29.859375 53.296875  30 52.9375  30 52.5  L 30 49.5  C 30 49.0625  29.859375 48.703125  29.578125 48.421875  C 29.296875 48.140625  28.9375 48  28.5 48  L 25.5 48  C 25.0625 48  24.703125 48.140625  24.421875 48.421875  Z M 17.578125 65.578125  C 17.859375 65.296875  18 64.9375  18 64.5  L 18 61.5  C 18 61.0625  17.859375 60.703125  17.578125 60.421875  C 17.296875 60.140625  16.9375 60  16.5 60  L 13.5 60  C 13.0625 60  12.703125 60.140625  12.421875 60.421875  C 12.140625 60.703125  12 61.0625  12 61.5  L 12 64.5  C 12 64.9375  12.140625 65.296875  12.421875 65.578125  C 12.703125 65.859375  13.0625 66  13.5 66  L 16.5 66  C 16.9375 66  17.296875 65.859375  17.578125 65.578125  Z M 17.578125 53.578125  C 17.859375 53.296875  18 52.9375  18 52.5  L 18 49.5  C 18 49.0625  17.859375 48.703125  17.578125 48.421875  C 17.296875 48.140625  16.9375 48  16.5 48  L 13.5 48  C 13.0625 48  12.703125 48.140625  12.421875 48.421875  C 12.140625 48.703125  12 49.0625  12 49.5  L 12 52.5  C 12 52.9375  12.140625 53.296875  12.421875 53.578125  C 12.703125 53.859375  13.0625 54  13.5 54  L 16.5 54  C 16.9375 54  17.296875 53.859375  17.578125 53.578125  Z M 17.578125 41.578125  C 17.859375 41.296875  18 40.9375  18 40.5  L 18 37.5  C 18 37.0625  17.859375 36.703125  17.578125 36.421875  C 17.296875 36.140625  16.9375 36  16.5 36  L 13.5 36  C 13.0625 36  12.703125 36.140625  12.421875 36.421875  C 12.140625 36.703125  12 37.0625  12 37.5  L 12 40.5  C 12 40.9375  12.140625 41.296875  12.421875 41.578125  C 12.703125 41.859375  13.0625 42  13.5 42  L 16.5 42  C 16.9375 42  17.296875 41.859375  17.578125 41.578125  Z M 17.578125 29.578125  C 17.859375 29.296875  18 28.9375  18 28.5  L 18 25.5  C 18 25.0625  17.859375 24.703125  17.578125 24.421875  C 17.296875 24.140625  16.9375 24  16.5 24  L 13.5 24  C 13.0625 24  12.703125 24.140625  12.421875 24.421875  C 12.140625 24.703125  12 25.0625  12 25.5  L 12 28.5  C 12 28.9375  12.140625 29.296875  12.421875 29.578125  C 12.703125 29.859375  13.0625 30  13.5 30  L 16.5 30  C 16.9375 30  17.296875 29.859375  17.578125 29.578125  Z M 17.578125 17.578125  C 17.859375 17.296875  18 16.9375  18 16.5  L 18 13.5  C 18 13.0625  17.859375 12.703125  17.578125 12.421875  C 17.296875 12.140625  16.9375 12  16.5 12  L 13.5 12  C 13.0625 12  12.703125 12.140625  12.421875 12.421875  C 12.140625 12.703125  12 13.0625  12 13.5  L 12 16.5  C 12 16.9375  12.140625 17.296875  12.421875 17.578125  C 12.703125 17.859375  13.0625 18  13.5 18  L 16.5 18  C 16.9375 18  17.296875 17.859375  17.578125 17.578125  Z M 41.578125 77.578125  C 41.859375 77.296875  42 76.9375  42 76.5  L 42 67.5  C 42 67.0625  41.859375 66.703125  41.578125 66.421875  C 41.296875 66.140625  40.9375 66  40.5 66  L 25.5 66  C 25.0625 66  24.703125 66.140625  24.421875 66.421875  C 24.140625 66.703125  24 67.0625  24 67.5  L 24 76.5  C 24 76.9375  24.140625 77.296875  24.421875 77.578125  C 24.703125 77.859375  25.0625 78  25.5 78  L 40.5 78  C 40.9375 78  41.296875 77.859375  41.578125 77.578125  Z M 41.578125 53.578125  C 41.859375 53.296875  42 52.9375  42 52.5  L 42 49.5  C 42 49.0625  41.859375 48.703125  41.578125 48.421875  C 41.296875 48.140625  40.9375 48  40.5 48  L 37.5 48  C 37.0625 48  36.703125 48.140625  36.421875 48.421875  C 36.140625 48.703125  36 49.0625  36 49.5  L 36 52.5  C 36 52.9375  36.140625 53.296875  36.421875 53.578125  C 36.703125 53.859375  37.0625 54  37.5 54  L 40.5 54  C 40.9375 54  41.296875 53.859375  41.578125 53.578125  Z M 41.578125 41.578125  C 41.859375 41.296875  42 40.9375  42 40.5  L 42 37.5  C 42 37.0625  41.859375 36.703125  41.578125 36.421875  C 41.296875 36.140625  40.9375 36  40.5 36  L 37.5 36  C 37.0625 36  36.703125 36.140625  36.421875 36.421875  C 36.140625 36.703125  36 37.0625  36 37.5  L 36 40.5  C 36 40.9375  36.140625 41.296875  36.421875 41.578125  C 36.703125 41.859375  37.0625 42  37.5 42  L 40.5 42  C 40.9375 42  41.296875 41.859375  41.578125 41.578125  Z M 41.578125 29.578125  C 41.859375 29.296875  42 28.9375  42 28.5  L 42 25.5  C 42 25.0625  41.859375 24.703125  41.578125 24.421875  C 41.296875 24.140625  40.9375 24  40.5 24  L 37.5 24  C 37.0625 24  36.703125 24.140625  36.421875 24.421875  C 36.140625 24.703125  36 25.0625  36 25.5  L 36 28.5  C 36 28.9375  36.140625 29.296875  36.421875 29.578125  C 36.703125 29.859375  37.0625 30  37.5 30  L 40.5 30  C 40.9375 30  41.296875 29.859375  41.578125 29.578125  Z M 41.578125 17.578125  C 41.859375 17.296875  42 16.9375  42 16.5  L 42 13.5  C 42 13.0625  41.859375 12.703125  41.578125 12.421875  C 41.296875 12.140625  40.9375 12  40.5 12  L 37.5 12  C 37.0625 12  36.703125 12.140625  36.421875 12.421875  C 36.140625 12.703125  36 13.0625  36 13.5  L 36 16.5  C 36 16.9375  36.140625 17.296875  36.421875 17.578125  C 36.703125 17.859375  37.0625 18  37.5 18  L 40.5 18  C 40.9375 18  41.296875 17.859375  41.578125 17.578125  Z M 53.578125 65.578125  C 53.859375 65.296875  54 64.9375  54 64.5  L 54 61.5  C 54 61.0625  53.859375 60.703125  53.578125 60.421875  C 53.296875 60.140625  52.9375 60  52.5 60  L 49.5 60  C 49.0625 60  48.703125 60.140625  48.421875 60.421875  C 48.140625 60.703125  48 61.0625  48 61.5  L 48 64.5  C 48 64.9375  48.140625 65.296875  48.421875 65.578125  C 48.703125 65.859375  49.0625 66  49.5 66  L 52.5 66  C 52.9375 66  53.296875 65.859375  53.578125 65.578125  Z M 53.578125 53.578125  C 53.859375 53.296875  54 52.9375  54 52.5  L 54 49.5  C 54 49.0625  53.859375 48.703125  53.578125 48.421875  C 53.296875 48.140625  52.9375 48  52.5 48  L 49.5 48  C 49.0625 48  48.703125 48.140625  48.421875 48.421875  C 48.140625 48.703125  48 49.0625  48 49.5  L 48 52.5  C 48 52.9375  48.140625 53.296875  48.421875 53.578125  C 48.703125 53.859375  49.0625 54  49.5 54  L 52.5 54  C 52.9375 54  53.296875 53.859375  53.578125 53.578125  Z M 53.578125 41.578125  C 53.859375 41.296875  54 40.9375  54 40.5  L 54 37.5  C 54 37.0625  53.859375 36.703125  53.578125 36.421875  C 53.296875 36.140625  52.9375 36  52.5 36  L 49.5 36  C 49.0625 36  48.703125 36.140625  48.421875 36.421875  C 48.140625 36.703125  48 37.0625  48 37.5  L 48 40.5  C 48 40.9375  48.140625 41.296875  48.421875 41.578125  C 48.703125 41.859375  49.0625 42  49.5 42  L 52.5 42  C 52.9375 42  53.296875 41.859375  53.578125 41.578125  Z M 53.578125 29.578125  C 53.859375 29.296875  54 28.9375  54 28.5  L 54 25.5  C 54 25.0625  53.859375 24.703125  53.578125 24.421875  C 53.296875 24.140625  52.9375 24  52.5 24  L 49.5 24  C 49.0625 24  48.703125 24.140625  48.421875 24.421875  C 48.140625 24.703125  48 25.0625  48 25.5  L 48 28.5  C 48 28.9375  48.140625 29.296875  48.421875 29.578125  C 48.703125 29.859375  49.0625 30  49.5 30  L 52.5 30  C 52.9375 30  53.296875 29.859375  53.578125 29.578125  Z M 53.578125 17.578125  C 53.859375 17.296875  54 16.9375  54 16.5  L 54 13.5  C 54 13.0625  53.859375 12.703125  53.578125 12.421875  C 53.296875 12.140625  52.9375 12  52.5 12  L 49.5 12  C 49.0625 12  48.703125 12.140625  48.421875 12.421875  C 48.140625 12.703125  48 13.0625  48 13.5  L 48 16.5  C 48 16.9375  48.140625 17.296875  48.421875 17.578125  C 48.703125 17.859375  49.0625 18  49.5 18  L 52.5 18  C 52.9375 18  53.296875 17.859375  53.578125 17.578125  Z " fill-rule="nonzero" fill="#ffffff" stroke="none" transform="matrix(1 0 0 1 689 9 )" />
  </g>
</svg>