<?xml version="1.0" encoding="utf-8"?>
<svg version="1.1" xmlns:xlink="http://www.w3.org/1999/xlink" width="431px" height="149px" xmlns="http://www.w3.org/2000/svg">
  <g transform="matrix(1 0 0 1 -46 -29 )">
    <path d="M 0.166666666666686 145.555555555556  C 0.166666666666686 145.555555555556  92.8056862643249 143.608691803144  126.555555555556 124.722222222222  C 142.2943379679 115.914779659809  10.0954271644844 78.4302193900652  29.3333333333334 66.3888888888889  C 38.3845505886916 60.7235790857774  98.9164171683491 49.2162916356036  109.888888888889 44.1666666666667  C 139.875477708871 30.3665830122996  225.461052219466 29.8839660574325  252.944444444445 21.9444444444444  C 285.595342856789 12.5121112191198  365.680358998751 66.7294709447407  397.388888888889 58.0555555555556  C 421.975787450271 51.3297729808725  398.546175271979 65.0480041616036  415.444444444445 58.0555555555556  C 451.886900672639 42.9757861630186  390.780954838718 15.1460230400722  389.055555555556 5.27777777777783  C 387.094471534308 -5.93844231138342  271 5.27777777777783  271 5.27777777777783  " stroke-width="2" stroke="#02a7f0" fill="none" transform="matrix(1 0 0 1 47 30 )" />
  </g>
</svg>