<?xml version="1.0" encoding="utf-8"?>
<svg version="1.1" xmlns:xlink="http://www.w3.org/1999/xlink" width="24px" height="24px" viewBox="100 2382.5  24 24" xmlns="http://www.w3.org/2000/svg">
  <path d="M 112 2382.5  C 118.72 2382.5  124 2387.78  124 2394.5  C 124 2401.22  118.72 2406.5  112 2406.5  C 105.28 2406.5  100 2401.22  100 2394.5  C 100 2387.78  105.28 2382.5  112 2382.5  Z " fill-rule="nonzero" fill="#ffffff" stroke="none" />
  <path d="M 112 2383  C 118.44 2383  123.5 2388.06  123.5 2394.5  C 123.5 2400.94  118.44 2406  112 2406  C 105.56 2406  100.5 2400.94  100.5 2394.5  C 100.5 2388.06  105.56 2383  112 2383  Z " stroke-width="1" stroke="#797979" fill="none" />
  <path d="M 112 2400.5  C 108.64 2400.5  106 2397.86  106 2394.5  C 106 2391.14  108.64 2388.5  112 2388.5  C 115.36 2388.5  118 2391.14  118 2394.5  C 118 2397.86  115.36 2400.5  112 2400.5  " fill-rule="nonzero" fill="#797979" stroke="none" />
</svg>