<?xml version="1.0" encoding="utf-8"?>
<svg version="1.1" xmlns:xlink="http://www.w3.org/1999/xlink" width="24px" height="24px" viewBox="109 2596.5  24 24" xmlns="http://www.w3.org/2000/svg">
  <path d="M 121 2596.5  C 127.72 2596.5  133 2601.78  133 2608.5  C 133 2615.22  127.72 2620.5  121 2620.5  C 114.28 2620.5  109 2615.22  109 2608.5  C 109 2601.78  114.28 2596.5  121 2596.5  Z " fill-rule="nonzero" fill="#f0f0f0" stroke="none" />
  <path d="M 121 2597  C 127.44 2597  132.5 2602.06  132.5 2608.5  C 132.5 2614.94  127.44 2620  121 2620  C 114.56 2620  109.5 2614.94  109.5 2608.5  C 109.5 2602.06  114.56 2597  121 2597  Z " stroke-width="1" stroke="#797979" fill="none" />
  <path d="M 121 2614.5  C 117.64 2614.5  115 2611.86  115 2608.5  C 115 2605.14  117.64 2602.5  121 2602.5  C 124.36 2602.5  127 2605.14  127 2608.5  C 127 2611.86  124.36 2614.5  121 2614.5  " fill-rule="nonzero" fill="#797979" stroke="none" />
</svg>