<?xml version="1.0" encoding="utf-8"?>
<svg version="1.1" xmlns:xlink="http://www.w3.org/1999/xlink" width="24px" height="41px" xmlns="http://www.w3.org/2000/svg">
  <g transform="matrix(1 0 0 1 -1055 -619 )">
    <path d="M 9 24.5496651785714  C 9.96875 24.7784598214286  10.96875 24.8928571428571  12 24.8928571428571  C 13.03125 24.8928571428571  14.03125 24.7784598214286  15 24.5496651785714  L 15 39.5357142857143  C 15 39.9322916666667  14.8515625 40.2754836309524  14.5546875 40.5652901785714  C 14.2578125 40.8550967261905  13.90625 41  13.5 41  L 10.5 41  C 10.09375 41  9.7421875 40.8550967261905  9.4453125 40.5652901785714  C 9.1484375 40.2754836309524  9 39.9322916666667  9 39.5357142857143  L 9 24.5496651785714  Z M 3.515625 3.43191964285714  C 5.859375 1.14397321428571  8.6875 0  12 0  C 15.3125 0  18.140625 1.14397321428571  20.484375 3.43191964285714  C 22.828125 5.71986607142857  24 8.48065476190476  24 11.7142857142857  C 24 14.9479166666667  22.828125 17.7087053571429  20.484375 19.9966517857143  C 18.140625 22.2845982142857  15.3125 23.4285714285714  12 23.4285714285714  C 8.6875 23.4285714285714  5.859375 22.2845982142857  3.515625 19.9966517857143  C 1.171875 17.7087053571429  0 14.9479166666667  0 11.7142857142857  C 0 8.48065476190476  1.171875 5.71986607142857  3.515625 3.43191964285714  Z M 7.23046875 7.05831473214286  C 8.55078125 5.76943824404761  10.140625 5.125  12 5.125  C 12.21875 5.125  12.3984375 5.05636160714286  12.5390625 4.91908482142857  C 12.6796875 4.78180803571429  12.75 4.60639880952381  12.75 4.39285714285714  C 12.75 4.17931547619047  12.6796875 4.00390625  12.5390625 3.86662946428571  C 12.3984375 3.72935267857143  12.21875 3.66071428571429  12 3.66071428571429  C 9.71875 3.66071428571429  7.7734375 4.44624255952381  6.1640625 6.01729910714286  C 4.5546875 7.5883556547619  3.75 9.48735119047619  3.75 11.7142857142857  C 3.75 11.9278273809524  3.8203125 12.1032366071429  3.9609375 12.2405133928571  C 4.1015625 12.3777901785714  4.28125 12.4464285714286  4.5 12.4464285714286  C 4.71875 12.4464285714286  4.8984375 12.3777901785714  5.0390625 12.2405133928571  C 5.1796875 12.1032366071429  5.25 11.9278273809524  5.25 11.7142857142857  C 5.25 9.89918154761905  5.91015625 8.34719122023809  7.23046875 7.05831473214286  Z " fill-rule="nonzero" fill="#000000" stroke="none" transform="matrix(1 0 0 1 1055 619 )" />
  </g>
</svg>