<?xml version="1.0" encoding="utf-8"?>
<svg version="1.1" xmlns:xlink="http://www.w3.org/1999/xlink" width="323px" height="52px" xmlns="http://www.w3.org/2000/svg">
  <g transform="matrix(1 0 0 1 -893 -634 )">
    <path d="M 1054.5 637  C 1143.26 637  1213 647.12  1213 660  C 1213 672.88  1143.26 683  1054.5 683  C 965.74 683  896 672.88  896 660  C 896 647.12  965.74 637  1054.5 637  Z " fill-rule="nonzero" fill="#ffffff" stroke="none" fill-opacity="0" />
    <path d="M 1054.5 636  C 1143.82 636  1214 646.56  1214 660  C 1214 673.44  1143.82 684  1054.5 684  C 965.18 684  895 673.44  895 660  C 895 646.56  965.18 636  1054.5 636  Z " stroke-width="4" stroke="#000000" fill="none" />
  </g>
</svg>