<?xml version="1.0" encoding="utf-8"?>
<svg version="1.1" xmlns:xlink="http://www.w3.org/1999/xlink" width="147px" height="147px" xmlns="http://www.w3.org/2000/svg">
  <defs>
    <filter x="46px" y="51px" width="147px" height="147px" filterUnits="userSpaceOnUse" id="filter17">
      <feOffset dx="5" dy="5" in="SourceAlpha" result="shadowOffsetInner" />
      <feGaussianBlur stdDeviation="2.5" in="shadowOffsetInner" result="shadowGaussian" />
      <feComposite in2="shadowGaussian" operator="atop" in="SourceAlpha" result="shadowComposite" />
      <feColorMatrix type="matrix" values="0 0 0 0 0.850980392156863  0 0 0 0 0  0 0 0 0 0.105882352941176  0 0 0 1 0  " in="shadowComposite" />
    </filter>
    <g id="widget18">
      <path d="M 114.5 51  C 152.86 51  183 81.14  183 119.5  C 183 157.86  152.86 188  114.5 188  C 76.14 188  46 157.86  46 119.5  C 46 81.14  76.14 51  114.5 51  Z " fill-rule="nonzero" fill="#ffffff" stroke="none" fill-opacity="0" />
      <path d="M 114.5 51.5  C 152.58 51.5  182.5 81.42  182.5 119.5  C 182.5 157.58  152.58 187.5  114.5 187.5  C 76.42 187.5  46.5 157.58  46.5 119.5  C 46.5 81.42  76.42 51.5  114.5 51.5  Z " stroke-width="1" stroke="#d9001b" fill="none" />
    </g>
  </defs>
  <g transform="matrix(1 0 0 1 -46 -51 )">
    <use xlink:href="#widget18" filter="url(#filter17)" />
    <use xlink:href="#widget18" />
  </g>
</svg>