<?xml version="1.0" encoding="utf-8"?>
<svg version="1.1" xmlns:xlink="http://www.w3.org/1999/xlink" width="73px" height="73px" xmlns="http://www.w3.org/2000/svg">
  <defs>
    <filter x="63px" y="69px" width="73px" height="73px" filterUnits="userSpaceOnUse" id="filter21">
      <feOffset dx="2" dy="2" in="SourceAlpha" result="shadowOffsetInner" />
      <feGaussianBlur stdDeviation="1" in="shadowOffsetInner" result="shadowGaussian" />
      <feComposite in2="shadowGaussian" operator="atop" in="SourceAlpha" result="shadowComposite" />
      <feColorMatrix type="matrix" values="0 0 0 0 0.925490196078431  0 0 0 0 0.501960784313725  0 0 0 0 0.552941176470588  0 0 0 1 0  " in="shadowComposite" />
    </filter>
    <g id="widget22">
      <path d="M 97.5 72  C 115.14 72  129 85.86  129 103.5  C 129 121.14  115.14 135  97.5 135  C 79.86 135  66 121.14  66 103.5  C 66 85.86  79.86 72  97.5 72  Z " fill-rule="nonzero" fill="#ffffff" stroke="none" fill-opacity="0" />
      <path d="M 97.5 71  C 115.7 71  130 85.3  130 103.5  C 130 121.7  115.7 136  97.5 136  C 79.3 136  65 121.7  65 103.5  C 65 85.3  79.3 71  97.5 71  Z " stroke-width="4" stroke="#d9001b" fill="none" />
    </g>
  </defs>
  <g transform="matrix(1 0 0 1 -63 -69 )">
    <use xlink:href="#widget22" filter="url(#filter21)" />
    <use xlink:href="#widget22" />
  </g>
</svg>