<?xml version="1.0" encoding="utf-8"?>
<svg version="1.1" xmlns:xlink="http://www.w3.org/1999/xlink" width="194px" height="194px" xmlns="http://www.w3.org/2000/svg">
  <defs>
    <filter x="6px" y="12px" width="194px" height="194px" filterUnits="userSpaceOnUse" id="filter27">
      <feOffset dx="5" dy="5" in="SourceAlpha" result="shadowOffsetInner" />
      <feGaussianBlur stdDeviation="2.5" in="shadowOffsetInner" result="shadowGaussian" />
      <feComposite in2="shadowGaussian" operator="atop" in="SourceAlpha" result="shadowComposite" />
      <feColorMatrix type="matrix" values="0 0 0 0 0.850980392156863  0 0 0 0 0  0 0 0 0 0.105882352941176  0 0 0 1 0  " in="shadowComposite" />
    </filter>
    <g id="widget28">
      <path d="M 98 12  C 149.52 12  190 52.48  190 104  C 190 155.52  149.52 196  98 196  C 46.48 196  6 155.52  6 104  C 6 52.48  46.48 12  98 12  Z " fill-rule="nonzero" fill="#ffffff" stroke="none" fill-opacity="0" />
      <path d="M 98 12.5  C 149.24 12.5  189.5 52.76  189.5 104  C 189.5 155.24  149.24 195.5  98 195.5  C 46.76 195.5  6.5 155.24  6.5 104  C 6.5 52.76  46.76 12.5  98 12.5  Z " stroke-width="1" stroke="#d9001b" fill="none" />
    </g>
  </defs>
  <g transform="matrix(1 0 0 1 -6 -12 )">
    <use xlink:href="#widget28" filter="url(#filter27)" />
    <use xlink:href="#widget28" />
  </g>
</svg>