<?xml version="1.0" encoding="utf-8"?>
<svg version="1.1" xmlns:xlink="http://www.w3.org/1999/xlink" width="37px" height="37px" xmlns="http://www.w3.org/2000/svg">
  <defs>
    <filter x="90px" y="98px" width="37px" height="37px" filterUnits="userSpaceOnUse" id="filter31">
      <feOffset dx="1" dy="1" in="SourceAlpha" result="shadowOffsetInner" />
      <feGaussianBlur stdDeviation="0.5" in="shadowOffsetInner" result="shadowGaussian" />
      <feComposite in2="shadowGaussian" operator="atop" in="SourceAlpha" result="shadowComposite" />
      <feColorMatrix type="matrix" values="0 0 0 0 0.925490196078431  0 0 0 0 0.501960784313725  0 0 0 0 0.552941176470588  0 0 0 1 0  " in="shadowComposite" />
    </filter>
    <g id="widget32">
      <path d="M 107.5 100.5  C 115.9 100.5  122.5 107.1  122.5 115.5  C 122.5 123.9  115.9 130.5  107.5 130.5  C 99.1 130.5  92.5 123.9  92.5 115.5  C 92.5 107.1  99.1 100.5  107.5 100.5  Z " fill-rule="nonzero" fill="#ffffff" stroke="none" fill-opacity="0" />
      <path d="M 107.5 99.5  C 116.46 99.5  123.5 106.54  123.5 115.5  C 123.5 124.46  116.46 131.5  107.5 131.5  C 98.54 131.5  91.5 124.46  91.5 115.5  C 91.5 106.54  98.54 99.5  107.5 99.5  Z " stroke-width="3" stroke="#ec808d" fill="none" stroke-opacity="0.819607843137255" />
    </g>
  </defs>
  <g transform="matrix(1 0 0 1 -90 -98 )">
    <use xlink:href="#widget32" filter="url(#filter31)" />
    <use xlink:href="#widget32" />
  </g>
</svg>