<?xml version="1.0" encoding="utf-8"?>
<svg version="1.1" xmlns:xlink="http://www.w3.org/1999/xlink" width="64px" height="64px" xmlns="http://www.w3.org/2000/svg">
  <defs>
    <filter x="77px" y="86px" width="64px" height="64px" filterUnits="userSpaceOnUse" id="filter33">
      <feOffset dx="2" dy="2" in="SourceAlpha" result="shadowOffsetInner" />
      <feGaussianBlur stdDeviation="1" in="shadowOffsetInner" result="shadowGaussian" />
      <feComposite in2="shadowGaussian" operator="atop" in="SourceAlpha" result="shadowComposite" />
      <feColorMatrix type="matrix" values="0 0 0 0 0.925490196078431  0 0 0 0 0.501960784313725  0 0 0 0 0.552941176470588  0 0 0 0.819607843137255 0  " in="shadowComposite" />
    </filter>
    <g id="widget34">
      <path d="M 107 87.5  C 122.96 87.5  135.5 100.04  135.5 116  C 135.5 131.96  122.96 144.5  107 144.5  C 91.04 144.5  78.5 131.96  78.5 116  C 78.5 100.04  91.04 87.5  107 87.5  Z " fill-rule="nonzero" fill="#ffffff" stroke="none" fill-opacity="0" />
      <path d="M 107 87  C 123.24 87  136 99.76  136 116  C 136 132.24  123.24 145  107 145  C 90.76 145  78 132.24  78 116  C 78 99.76  90.76 87  107 87  Z " stroke-width="2" stroke="#ec808d" fill="none" stroke-opacity="0.819607843137255" />
    </g>
  </defs>
  <g transform="matrix(1 0 0 1 -77 -86 )">
    <use xlink:href="#widget34" filter="url(#filter33)" />
    <use xlink:href="#widget34" />
  </g>
</svg>