<?xml version="1.0" encoding="utf-8"?>
<svg version="1.1" xmlns:xlink="http://www.w3.org/1999/xlink" width="37px" height="37px" xmlns="http://www.w3.org/2000/svg">
  <defs>
    <filter x="52px" y="32px" width="37px" height="37px" filterUnits="userSpaceOnUse" id="filter41">
      <feOffset dx="1" dy="1" in="SourceAlpha" result="shadowOffsetInner" />
      <feGaussianBlur stdDeviation="0.5" in="shadowOffsetInner" result="shadowGaussian" />
      <feComposite in2="shadowGaussian" operator="atop" in="SourceAlpha" result="shadowComposite" />
      <feColorMatrix type="matrix" values="0 0 0 0 0.96078431372549  0 0 0 0 0.603921568627451  0 0 0 0 0.137254901960784  0 0 0 0.819607843137255 0  " in="shadowComposite" />
    </filter>
    <g id="widget42">
      <path d="M 69.5 33.5  C 78.46 33.5  85.5 40.54  85.5 49.5  C 85.5 58.46  78.46 65.5  69.5 65.5  C 60.54 65.5  53.5 58.46  53.5 49.5  C 53.5 40.54  60.54 33.5  69.5 33.5  Z " fill-rule="nonzero" fill="#ffffff" stroke="none" fill-opacity="0" />
      <path d="M 69.5 33  C 78.74 33  86 40.26  86 49.5  C 86 58.74  78.74 66  69.5 66  C 60.26 66  53 58.74  53 49.5  C 53 40.26  60.26 33  69.5 33  Z " stroke-width="2" stroke="#f59a23" fill="none" stroke-opacity="0.819607843137255" />
    </g>
  </defs>
  <g transform="matrix(1 0 0 1 -52 -32 )">
    <use xlink:href="#widget42" filter="url(#filter41)" />
    <use xlink:href="#widget42" />
  </g>
</svg>