<?xml version="1.0" encoding="utf-8"?>
<svg version="1.1" xmlns:xlink="http://www.w3.org/1999/xlink" width="33px" height="40px" xmlns="http://www.w3.org/2000/svg">
  <g transform="matrix(1 0 0 1 -467 -2514 )">
    <path d="M 9.16666666666667 12.7272727272727  L 9.16666666666667 18.1818181818182  L 23.8333333333333 18.1818181818182  L 23.8333333333333 12.7272727272727  C 23.8333333333333 10.719696969697  23.1171875 9.00568181818182  21.6848958333333 7.58522727272727  C 20.2526041666667 6.16477272727273  18.5243055555556 5.45454545454545  16.5 5.45454545454545  C 14.4756944444444 5.45454545454545  12.7473958333333 6.16477272727273  11.3151041666667 7.58522727272727  C 9.8828125 9.00568181818182  9.16666666666667 10.719696969697  9.16666666666667 12.7272727272727  Z M 32.1979166666667 18.9772727272727  C 32.7326388888889 19.5075757575758  33 20.1515151515151  33 20.9090909090909  L 33 37.2727272727273  C 33 38.030303030303  32.7326388888889 38.6742424242424  32.1979166666667 39.2045454545455  C 31.6631944444444 39.7348484848485  31.0138888888889 40  30.25 40  L 2.75 40  C 1.98611111111111 40  1.33680555555556 39.7348484848485  0.802083333333333 39.2045454545455  C 0.267361111111111 38.6742424242424  0 38.030303030303  0 37.2727272727273  L 0 20.9090909090909  C 0 20.1515151515151  0.267361111111111 19.5075757575758  0.802083333333333 18.9772727272727  C 1.33680555555556 18.4469696969697  1.98611111111111 18.1818181818182  2.75 18.1818181818182  L 3.66666666666667 18.1818181818182  L 3.66666666666667 12.7272727272727  C 3.66666666666667 9.24242424242424  4.92708333333333 6.25  7.44791666666667 3.75  C 9.96875 1.25  12.9861111111111 0  16.5 0  C 20.0138888888889 0  23.03125 1.25  25.5520833333333 3.75  C 28.0729166666667 6.25  29.3333333333333 9.24242424242424  29.3333333333333 12.7272727272727  L 29.3333333333333 18.1818181818182  L 30.25 18.1818181818182  C 31.0138888888889 18.1818181818182  31.6631944444444 18.4469696969697  32.1979166666667 18.9772727272727  Z " fill-rule="nonzero" fill="#f2f2f2" stroke="none" transform="matrix(1 0 0 1 467 2514 )" />
  </g>
</svg>