<?xml version="1.0" encoding="utf-8"?>
<svg version="1.1" xmlns:xlink="http://www.w3.org/1999/xlink" width="24px" height="24px" viewBox="200 686.5  24 24" xmlns="http://www.w3.org/2000/svg">
  <path d="M 212 686.5  C 218.72 686.5  224 691.78  224 698.5  C 224 705.22  218.72 710.5  212 710.5  C 205.28 710.5  200 705.22  200 698.5  C 200 691.78  205.28 686.5  212 686.5  Z " fill-rule="nonzero" fill="#f0f0f0" stroke="none" />
  <path d="M 212 687  C 218.44 687  223.5 692.06  223.5 698.5  C 223.5 704.94  218.44 710  212 710  C 205.56 710  200.5 704.94  200.5 698.5  C 200.5 692.06  205.56 687  212 687  Z " stroke-width="1" stroke="#02a7f0" fill="none" />
  <path d="M 212 704.5  C 208.64 704.5  206 701.86  206 698.5  C 206 695.14  208.64 692.5  212 692.5  C 215.36 692.5  218 695.14  218 698.5  C 218 701.86  215.36 704.5  212 704.5  " fill-rule="nonzero" fill="#02a7f0" stroke="none" />
</svg>