<?xml version="1.0" encoding="utf-8"?>
<svg version="1.1" xmlns:xlink="http://www.w3.org/1999/xlink" width="24px" height="24px" viewBox="100 686.5  24 24" xmlns="http://www.w3.org/2000/svg">
  <path d="M 112 686.5  C 118.72 686.5  124 691.78  124 698.5  C 124 705.22  118.72 710.5  112 710.5  C 105.28 710.5  100 705.22  100 698.5  C 100 691.78  105.28 686.5  112 686.5  Z " fill-rule="nonzero" fill="#f0f0f0" stroke="none" />
  <path d="M 112 687  C 118.44 687  123.5 692.06  123.5 698.5  C 123.5 704.94  118.44 710  112 710  C 105.56 710  100.5 704.94  100.5 698.5  C 100.5 692.06  105.56 687  112 687  Z " stroke-width="1" stroke="#02a7f0" fill="none" />
  <path d="M 112 704.5  C 108.64 704.5  106 701.86  106 698.5  C 106 695.14  108.64 692.5  112 692.5  C 115.36 692.5  118 695.14  118 698.5  C 118 701.86  115.36 704.5  112 704.5  " fill-rule="nonzero" fill="#02a7f0" stroke="none" />
</svg>