<?xml version="1.0" encoding="utf-8"?>
<svg version="1.1" xmlns:xlink="http://www.w3.org/1999/xlink" width="24px" height="24px" viewBox="1070 1032.5  24 24" xmlns="http://www.w3.org/2000/svg">
  <path d="M 1082 1032.5  C 1088.72 1032.5  1094 1037.78  1094 1044.5  C 1094 1051.22  1088.72 1056.5  1082 1056.5  C 1075.28 1056.5  1070 1051.22  1070 1044.5  C 1070 1037.78  1075.28 1032.5  1082 1032.5  Z " fill-rule="nonzero" fill="#ffffff" stroke="none" />
  <path d="M 1082 1033  C 1088.44 1033  1093.5 1038.06  1093.5 1044.5  C 1093.5 1050.94  1088.44 1056  1082 1056  C 1075.56 1056  1070.5 1050.94  1070.5 1044.5  C 1070.5 1038.06  1075.56 1033  1082 1033  Z " stroke-width="1" stroke="#797979" fill="none" />
  <path d="M 1082 1050.5  C 1078.64 1050.5  1076 1047.86  1076 1044.5  C 1076 1041.14  1078.64 1038.5  1082 1038.5  C 1085.36 1038.5  1088 1041.14  1088 1044.5  C 1088 1047.86  1085.36 1050.5  1082 1050.5  " fill-rule="nonzero" fill="#797979" stroke="none" />
</svg>