<?xml version="1.0" encoding="utf-8"?>
<svg version="1.1" xmlns:xlink="http://www.w3.org/1999/xlink" width="24px" height="24px" viewBox="324 919  24 24" xmlns="http://www.w3.org/2000/svg">
  <path d="M 336 919  C 342.72 919  348 924.28  348 931  C 348 937.72  342.72 943  336 943  C 329.28 943  324 937.72  324 931  C 324 924.28  329.28 919  336 919  Z " fill-rule="nonzero" fill="#f0f0f0" stroke="none" />
  <path d="M 336 919.5  C 342.44 919.5  347.5 924.56  347.5 931  C 347.5 937.44  342.44 942.5  336 942.5  C 329.56 942.5  324.5 937.44  324.5 931  C 324.5 924.56  329.56 919.5  336 919.5  Z " stroke-width="1" stroke="#797979" fill="none" />
  <path d="M 336 937  C 332.64 937  330 934.36  330 931  C 330 927.64  332.64 925  336 925  C 339.36 925  342 927.64  342 931  C 342 934.36  339.36 937  336 937  " fill-rule="nonzero" fill="#797979" stroke="none" />
</svg>