<?xml version="1.0" encoding="utf-8"?>
<svg version="1.1" xmlns:xlink="http://www.w3.org/1999/xlink" width="24px" height="24px" viewBox="224 919  24 24" xmlns="http://www.w3.org/2000/svg">
  <path d="M 236 919  C 242.72 919  248 924.28  248 931  C 248 937.72  242.72 943  236 943  C 229.28 943  224 937.72  224 931  C 224 924.28  229.28 919  236 919  Z " fill-rule="nonzero" fill="#ffffff" stroke="none" />
  <path d="M 236 919.5  C 242.44 919.5  247.5 924.56  247.5 931  C 247.5 937.44  242.44 942.5  236 942.5  C 229.56 942.5  224.5 937.44  224.5 931  C 224.5 924.56  229.56 919.5  236 919.5  Z " stroke-width="1" stroke="#797979" fill="none" />
  <path d="M 236 937  C 232.64 937  230 934.36  230 931  C 230 927.64  232.64 925  236 925  C 239.36 925  242 927.64  242 931  C 242 934.36  239.36 937  236 937  " fill-rule="nonzero" fill="#797979" stroke="none" />
</svg>