<?xml version="1.0" encoding="utf-8"?>
<svg version="1.1" xmlns:xlink="http://www.w3.org/1999/xlink" width="24px" height="24px" viewBox="992 1032.5  24 24" xmlns="http://www.w3.org/2000/svg">
  <path d="M 1004 1032.5  C 1010.72 1032.5  1016 1037.78  1016 1044.5  C 1016 1051.22  1010.72 1056.5  1004 1056.5  C 997.28 1056.5  992 1051.22  992 1044.5  C 992 1037.78  997.28 1032.5  1004 1032.5  Z " fill-rule="nonzero" fill="#f0f0f0" stroke="none" />
  <path d="M 1004 1033  C 1010.44 1033  1015.5 1038.06  1015.5 1044.5  C 1015.5 1050.94  1010.44 1056  1004 1056  C 997.56 1056  992.5 1050.94  992.5 1044.5  C 992.5 1038.06  997.56 1033  1004 1033  Z " stroke-width="1" stroke="#797979" fill="none" />
  <path d="M 1004 1050.5  C 1000.64 1050.5  998 1047.86  998 1044.5  C 998 1041.14  1000.64 1038.5  1004 1038.5  C 1007.36 1038.5  1010 1041.14  1010 1044.5  C 1010 1047.86  1007.36 1050.5  1004 1050.5  " fill-rule="nonzero" fill="#797979" stroke="none" />
</svg>