<?xml version="1.0" encoding="utf-8"?>
<svg version="1.1" xmlns:xlink="http://www.w3.org/1999/xlink" width="24px" height="24px" viewBox="1070 1094.5  24 24" xmlns="http://www.w3.org/2000/svg">
  <path d="M 1082 1094.5  C 1088.72 1094.5  1094 1099.78  1094 1106.5  C 1094 1113.22  1088.72 1118.5  1082 1118.5  C 1075.28 1118.5  1070 1113.22  1070 1106.5  C 1070 1099.78  1075.28 1094.5  1082 1094.5  Z " fill-rule="nonzero" fill="#f0f0f0" stroke="none" />
  <path d="M 1082 1095  C 1088.44 1095  1093.5 1100.06  1093.5 1106.5  C 1093.5 1112.94  1088.44 1118  1082 1118  C 1075.56 1118  1070.5 1112.94  1070.5 1106.5  C 1070.5 1100.06  1075.56 1095  1082 1095  Z " stroke-width="1" stroke="#797979" fill="none" />
  <path d="M 1082 1112.5  C 1078.64 1112.5  1076 1109.86  1076 1106.5  C 1076 1103.14  1078.64 1100.5  1082 1100.5  C 1085.36 1100.5  1088 1103.14  1088 1106.5  C 1088 1109.86  1085.36 1112.5  1082 1112.5  " fill-rule="nonzero" fill="#797979" stroke="none" />
</svg>