<?xml version="1.0" encoding="utf-8"?>
<svg version="1.1" xmlns:xlink="http://www.w3.org/1999/xlink" width="50px" height="50px" xmlns="http://www.w3.org/2000/svg">
  <defs>
    <filter x="91px" y="96px" width="50px" height="50px" filterUnits="userSpaceOnUse" id="filter11">
      <feOffset dx="2" dy="2" in="SourceAlpha" result="shadowOffsetInner" />
      <feGaussianBlur stdDeviation="1" in="shadowOffsetInner" result="shadowGaussian" />
      <feComposite in2="shadowGaussian" operator="atop" in="SourceAlpha" result="shadowComposite" />
      <feColorMatrix type="matrix" values="0 0 0 0 0.925490196078431  0 0 0 0 0.501960784313725  0 0 0 0 0.552941176470588  0 0 0 1 0  " in="shadowComposite" />
    </filter>
    <g id="widget12">
      <path d="M 114 99  C 125.2 99  134 107.8  134 119  C 134 130.2  125.2 139  114 139  C 102.8 139  94 130.2  94 119  C 94 107.8  102.8 99  114 99  Z " fill-rule="nonzero" fill="#ffffff" stroke="none" fill-opacity="0" />
      <path d="M 114 98  C 125.76 98  135 107.24  135 119  C 135 130.76  125.76 140  114 140  C 102.24 140  93 130.76  93 119  C 93 107.24  102.24 98  114 98  Z " stroke-width="4" stroke="#d9001b" fill="none" />
    </g>
  </defs>
  <g transform="matrix(1 0 0 1 -91 -96 )">
    <use xlink:href="#widget12" filter="url(#filter11)" />
    <use xlink:href="#widget12" />
  </g>
</svg>