<?xml version="1.0" encoding="utf-8"?>
<svg version="1.1" xmlns:xlink="http://www.w3.org/1999/xlink" width="88px" height="88px" xmlns="http://www.w3.org/2000/svg">
  <defs>
    <filter x="75px" y="80px" width="88px" height="88px" filterUnits="userSpaceOnUse" id="filter13">
      <feOffset dx="5" dy="5" in="SourceAlpha" result="shadowOffsetInner" />
      <feGaussianBlur stdDeviation="2.5" in="shadowOffsetInner" result="shadowGaussian" />
      <feComposite in2="shadowGaussian" operator="atop" in="SourceAlpha" result="shadowComposite" />
      <feColorMatrix type="matrix" values="0 0 0 0 0.925490196078431  0 0 0 0 0.501960784313725  0 0 0 0 0.552941176470588  0 0 0 1 0  " in="shadowComposite" />
    </filter>
    <g id="widget14">
      <path d="M 114 82  C 134.72 82  151 98.28  151 119  C 151 139.72  134.72 156  114 156  C 93.28 156  77 139.72  77 119  C 77 98.28  93.28 82  114 82  Z " fill-rule="nonzero" fill="#ffffff" stroke="none" fill-opacity="0" />
      <path d="M 114 81.5  C 135 81.5  151.5 98  151.5 119  C 151.5 140  135 156.5  114 156.5  C 93 156.5  76.5 140  76.5 119  C 76.5 98  93 81.5  114 81.5  Z " stroke-width="3" stroke="#d9001b" fill="none" />
    </g>
  </defs>
  <g transform="matrix(1 0 0 1 -75 -80 )">
    <use xlink:href="#widget14" filter="url(#filter13)" />
    <use xlink:href="#widget14" />
  </g>
</svg>