<?xml version="1.0" encoding="utf-8"?>
<svg version="1.1" xmlns:xlink="http://www.w3.org/1999/xlink" width="119px" height="119px" xmlns="http://www.w3.org/2000/svg">
  <defs>
    <filter x="60px" y="65px" width="119px" height="119px" filterUnits="userSpaceOnUse" id="filter15">
      <feOffset dx="5" dy="5" in="SourceAlpha" result="shadowOffsetInner" />
      <feGaussianBlur stdDeviation="2.5" in="shadowOffsetInner" result="shadowGaussian" />
      <feComposite in2="shadowGaussian" operator="atop" in="SourceAlpha" result="shadowComposite" />
      <feColorMatrix type="matrix" values="0 0 0 0 0.925490196078431  0 0 0 0 0.501960784313725  0 0 0 0 0.552941176470588  0 0 0 1 0  " in="shadowComposite" />
    </filter>
    <g id="widget16">
      <path d="M 114.5 66  C 144.46 66  168 89.54  168 119.5  C 168 149.46  144.46 173  114.5 173  C 84.54 173  61 149.46  61 119.5  C 61 89.54  84.54 66  114.5 66  Z " fill-rule="nonzero" fill="#ffffff" stroke="none" fill-opacity="0" />
      <path d="M 114.5 66  C 144.46 66  168 89.54  168 119.5  C 168 149.46  144.46 173  114.5 173  C 84.54 173  61 149.46  61 119.5  C 61 89.54  84.54 66  114.5 66  Z " stroke-width="2" stroke="#d9001b" fill="none" />
    </g>
  </defs>
  <g transform="matrix(1 0 0 1 -60 -65 )">
    <use xlink:href="#widget16" filter="url(#filter15)" />
    <use xlink:href="#widget16" />
  </g>
</svg>