<?xml version="1.0" encoding="utf-8"?>
<svg version="1.1" xmlns:xlink="http://www.w3.org/1999/xlink" width="36px" height="30px" xmlns="http://www.w3.org/2000/svg">
  <g transform="matrix(1 0 0 1 -1253 -616 )">
    <path d="M 13.0240384615385 25.3551136363636  C 13.5721153846154 25.8948863636364  13.8461538461538 26.5340909090909  13.8461538461538 27.2727272727273  C 13.8461538461538 28.0113636363636  13.5721153846154 28.6505681818182  13.0240384615385 29.1903409090909  C 12.4759615384615 29.7301136363636  11.8269230769231 30  11.0769230769231 30  C 10.3269230769231 30  9.67788461538462 29.7301136363636  9.12980769230769 29.1903409090909  C 8.58173076923077 28.6505681818182  8.30769230769231 28.0113636363636  8.30769230769231 27.2727272727273  C 8.30769230769231 26.5340909090909  8.58173076923077 25.8948863636364  9.12980769230769 25.3551136363636  C 9.67788461538462 24.8153409090909  10.3269230769231 24.5454545454545  11.0769230769231 24.5454545454545  C 11.8269230769231 24.5454545454545  12.4759615384615 24.8153409090909  13.0240384615385 25.3551136363636  Z M 32.4086538461538 25.3551136363636  C 32.9567307692308 25.8948863636364  33.2307692307692 26.5340909090909  33.2307692307692 27.2727272727273  C 33.2307692307692 28.0113636363636  32.9567307692308 28.6505681818182  32.4086538461538 29.1903409090909  C 31.8605769230769 29.7301136363636  31.2115384615385 30  30.4615384615385 30  C 29.7115384615385 30  29.0625 29.7301136363636  28.5144230769231 29.1903409090909  C 27.9663461538462 28.6505681818182  27.6923076923077 28.0113636363636  27.6923076923077 27.2727272727273  C 27.6923076923077 26.5340909090909  27.9663461538462 25.8948863636364  28.5144230769231 25.3551136363636  C 29.0625 24.8153409090909  29.7115384615385 24.5454545454545  30.4615384615385 24.5454545454545  C 31.2115384615385 24.5454545454545  31.8605769230769 24.8153409090909  32.4086538461538 25.3551136363636  Z M 35.5889423076923 3.13210227272727  C 35.8629807692308 3.40198863636363  36 3.7215909090909  36 4.09090909090909  L 36 15  C 36 15.3409090909091  35.8810096153846 15.6427556818182  35.6430288461538 15.9055397727273  C 35.4050480769231 16.1683238636364  35.1129807692308 16.3210227272727  34.7668269230769 16.3636363636364  L 12.1802884615385 18.9630681818182  C 12.3677884615385 19.8153409090909  12.4615384615385 20.3125  12.4615384615385 20.4545454545455  C 12.4615384615385 20.6818181818182  12.2884615384615 21.1363636363636  11.9423076923077 21.8181818181818  L 31.8461538461538 21.8181818181818  C 32.2211538461538 21.8181818181818  32.5456730769231 21.953125  32.8197115384615 22.2230113636364  C 33.09375 22.4928977272727  33.2307692307692 22.8125  33.2307692307692 23.1818181818182  C 33.2307692307692 23.5511363636364  33.09375 23.8707386363636  32.8197115384615 24.140625  C 32.5456730769231 24.4105113636364  32.2211538461538 24.5454545454545  31.8461538461538 24  L 9.69230769230769 24  C 9.31730769230769 24.5454545454545  8.99278846153846 24.4105113636364  8.71875 24.140625  C 8.44471153846154 23.8707386363636  8.30769230769231 23.5511363636364  8.30769230769231 23.1818181818182  C 8.30769230769231 23.0255681818182  8.36538461538461 22.8018465909091  8.48076923076923 22.5106534090909  C 8.59615384615385 22.2194602272727  8.71153846153846 21.9637784090909  8.82692307692308 21.7436079545455  C 8.94230769230769 21.5234375  9.09735576923077 21.2393465909091  9.29206730769231 20.8913352272727  C 9.48677884615385 20.5433238636364  9.59855769230769 20.3338068181818  9.62740384615385 20.2627840909091  L 5.79807692307692 2.72727272727273  L 1.38461538461538 2.72727272727273  C 1.00961538461538 2.72727272727273  0.685096153846154 2.59232954545454  0.411057692307692 2.32244318181818  C 0.137019230769231 2.05255681818182  0 1.73295454545454  0 1.36363636363636  C 0 0.99431818181818  0.137019230769231 0.674715909090905  0.411057692307692 0.404829545454547  C 0.685096153846154 0.134943181818179  1.00961538461538 0  1.38461538461538 0  L 6.92307692307692 0  C 7.15384615384615 0  7.359375 0.0461647727272707  7.53966346153846 0.138494318181819  C 7.71995192307692 0.230823863636364  7.86057692307692 0.340909090909091  7.96153846153846 0.46875  C 8.0625 0.596590909090909  8.15625 0.770596590909086  8.24278846153846 0.990767045454547  C 8.32932692307693 1.2109375  8.38701923076923 1.39559659090909  8.41586538461539 1.54474431818182  C 8.44471153846154 1.69389204545455  8.484375 1.90340909090909  8.53485576923077 2.17329545454545  C 8.58533653846154 2.44318181818181  8.61778846153846 2.62784090909091  8.63221153846154 3  L 34.6153846153846 3  C 34.9903846153846 2.72727272727273  35.3149038461538 2.86221590909091  35.5889423076923 3.13210227272727  Z " fill-rule="nonzero" fill="#ffffff" stroke="none" transform="matrix(1 0 0 1 1253 616 )" />
  </g>
</svg>