<?xml version="1.0" encoding="utf-8"?>
<svg version="1.1" xmlns:xlink="http://www.w3.org/1999/xlink" width="33px" height="20px" xmlns="http://www.w3.org/2000/svg">
  <g transform="matrix(1 0 0 1 -809 -614 )">
    <path d="M 4.125 1  L 4.125 12  L 31.96875 12  C 32.248046875 12  32.48974609375 12.0989583333333  32.69384765625 12.296875  C 32.89794921875 12.4947916666667  33 12.7291666666667  33 13  L 33 20  L 28.875 20  L 28.875 16  L 4.125 16  L 4.125 20  L 0 20  L 0 1  C 0 0.729166666666665  0.10205078125 0.494791666666665  0.30615234375 0.296875000000001  C 0.51025390625 0.0989583333333321  0.751953125 0  1.03125 0  L 3.09375 0  C 3.373046875 0  3.61474609375 0.0989583333333321  3.81884765625 0.296875000000001  C 4.02294921875 0.494791666666665  4.125 0.729166666666665  4.125 1  Z M 12.19775390625 9.828125  C 13.00341796875 9.046875  13.40625 8.10416666666667  13.40625 7  C 13.40625 5.89583333333333  13.00341796875 4.953125  12.19775390625 4.171875  C 11.39208984375 3.390625  10.419921875 3  9.28125 3  C 8.142578125 3  7.17041015625 3.390625  6.36474609375 4.171875  C 5.55908203125 4.953125  5.15625 5.89583333333333  5.15625 7  C 5.15625 8.10416666666667  5.55908203125 9.046875  6.36474609375 9.828125  C 7.17041015625 10.609375  8.142578125 11  9.28125 11  C 10.419921875 11  11.39208984375 10.609375  12.19775390625 9.828125  Z M 14.4375 11  L 33 11  L 33 10  C 33 8.34375  32.395751953125 6.9296875  31.187255859375 5.7578125  C 29.978759765625 4.5859375  28.5205078125 4  26.8125 4  L 15.46875 4  C 15.189453125 4  14.94775390625 4.09895833333333  14.74365234375 4.296875  C 14.53955078125 4.49479166666667  14.4375 4.72916666666667  14.4375 5  L 14.4375 11  Z " fill-rule="nonzero" fill="#ffffff" stroke="none" transform="matrix(1 0 0 1 809 614 )" />
  </g>
</svg>