<?xml version="1.0" encoding="utf-8"?>
<svg version="1.1" xmlns:xlink="http://www.w3.org/1999/xlink" width="154px" height="154px" xmlns="http://www.w3.org/2000/svg">
  <defs>
    <filter x="26px" y="32px" width="154px" height="154px" filterUnits="userSpaceOnUse" id="filter25">
      <feOffset dx="5" dy="5" in="SourceAlpha" result="shadowOffsetInner" />
      <feGaussianBlur stdDeviation="2.5" in="shadowOffsetInner" result="shadowGaussian" />
      <feComposite in2="shadowGaussian" operator="atop" in="SourceAlpha" result="shadowComposite" />
      <feColorMatrix type="matrix" values="0 0 0 0 0.925490196078431  0 0 0 0 0.501960784313725  0 0 0 0 0.552941176470588  0 0 0 1 0  " in="shadowComposite" />
    </filter>
    <g id="widget26">
      <path d="M 98 33  C 137.76 33  169 64.24  169 104  C 169 143.76  137.76 175  98 175  C 58.24 175  27 143.76  27 104  C 27 64.24  58.24 33  98 33  Z " fill-rule="nonzero" fill="#ffffff" stroke="none" fill-opacity="0" />
      <path d="M 98 33  C 137.76 33  169 64.24  169 104  C 169 143.76  137.76 175  98 175  C 58.24 175  27 143.76  27 104  C 27 64.24  58.24 33  98 33  Z " stroke-width="2" stroke="#d9001b" fill="none" />
    </g>
  </defs>
  <g transform="matrix(1 0 0 1 -26 -32 )">
    <use xlink:href="#widget26" filter="url(#filter25)" />
    <use xlink:href="#widget26" />
  </g>
</svg>