<?xml version="1.0" encoding="utf-8"?>
<svg version="1.1" xmlns:xlink="http://www.w3.org/1999/xlink" width="101px" height="101px" xmlns="http://www.w3.org/2000/svg">
  <defs>
    <filter x="60px" y="69px" width="101px" height="101px" filterUnits="userSpaceOnUse" id="filter35">
      <feOffset dx="3" dy="3" in="SourceAlpha" result="shadowOffsetInner" />
      <feGaussianBlur stdDeviation="1.5" in="shadowOffsetInner" result="shadowGaussian" />
      <feComposite in2="shadowGaussian" operator="atop" in="SourceAlpha" result="shadowComposite" />
      <feColorMatrix type="matrix" values="0 0 0 0 0.925490196078431  0 0 0 0 0.501960784313725  0 0 0 0 0.552941176470588  0 0 0 0.819607843137255 0  " in="shadowComposite" />
    </filter>
    <g id="widget36">
      <path d="M 107.5 69.5  C 133.82 69.5  154.5 90.18  154.5 116.5  C 154.5 142.82  133.82 163.5  107.5 163.5  C 81.18 163.5  60.5 142.82  60.5 116.5  C 60.5 90.18  81.18 69.5  107.5 69.5  Z " fill-rule="nonzero" fill="#ffffff" stroke="none" fill-opacity="0" />
      <path d="M 107.5 69.5  C 133.82 69.5  154.5 90.18  154.5 116.5  C 154.5 142.82  133.82 163.5  107.5 163.5  C 81.18 163.5  60.5 142.82  60.5 116.5  C 60.5 90.18  81.18 69.5  107.5 69.5  Z " stroke-width="1" stroke="#ec808d" fill="none" stroke-opacity="0.819607843137255" />
    </g>
  </defs>
  <g transform="matrix(1 0 0 1 -60 -69 )">
    <use xlink:href="#widget36" filter="url(#filter35)" />
    <use xlink:href="#widget36" />
  </g>
</svg>