<?xml version="1.0" encoding="utf-8"?>
<svg version="1.1" xmlns:xlink="http://www.w3.org/1999/xlink" width="64px" height="64px" xmlns="http://www.w3.org/2000/svg">
  <defs>
    <filter x="39px" y="20px" width="64px" height="64px" filterUnits="userSpaceOnUse" id="filter43">
      <feOffset dx="2" dy="2" in="SourceAlpha" result="shadowOffsetInner" />
      <feGaussianBlur stdDeviation="1" in="shadowOffsetInner" result="shadowGaussian" />
      <feComposite in2="shadowGaussian" operator="atop" in="SourceAlpha" result="shadowComposite" />
      <feColorMatrix type="matrix" values="0 0 0 0 0.96078431372549  0 0 0 0 0.603921568627451  0 0 0 0 0.137254901960784  0 0 0 0.819607843137255 0  " in="shadowComposite" />
    </filter>
    <g id="widget44">
      <path d="M 69 20.5  C 85.52 20.5  98.5 33.48  98.5 50  C 98.5 66.52  85.52 79.5  69 79.5  C 52.48 79.5  39.5 66.52  39.5 50  C 39.5 33.48  52.48 20.5  69 20.5  Z " fill-rule="nonzero" fill="#ffffff" stroke="none" fill-opacity="0" />
      <path d="M 69 20.5  C 85.52 20.5  98.5 33.48  98.5 50  C 98.5 66.52  85.52 79.5  69 79.5  C 52.48 79.5  39.5 66.52  39.5 50  C 39.5 33.48  52.48 20.5  69 20.5  Z " stroke-width="1" stroke="#f59a23" fill="none" stroke-opacity="0.819607843137255" />
    </g>
  </defs>
  <g transform="matrix(1 0 0 1 -39 -20 )">
    <use xlink:href="#widget44" filter="url(#filter43)" />
    <use xlink:href="#widget44" />
  </g>
</svg>