<?xml version="1.0" encoding="utf-8"?>
<svg version="1.1" xmlns:xlink="http://www.w3.org/1999/xlink" width="654px" height="632px" xmlns="http://www.w3.org/2000/svg">
  <defs>
    <filter x="0px" y="0px" width="654px" height="632px" filterUnits="userSpaceOnUse" id="filter199">
      <feOffset dx="5" dy="5" in="SourceAlpha" result="shadowOffsetInner" />
      <feGaussianBlur stdDeviation="2.5" in="shadowOffsetInner" result="shadowGaussian" />
      <feComposite in2="shadowGaussian" operator="atop" in="SourceAlpha" result="shadowComposite" />
      <feColorMatrix type="matrix" values="0 0 0 0 0.980392156862745  0 0 0 0 0.803921568627451  0 0 0 0 0.568627450980392  0 0 0 1 0  " in="shadowComposite" />
    </filter>
    <g id="widget200">
      <path d="M 1.5 2  A 0.5 0.5 0 0 1 2 1.5 L 642 1.5  A 0.5 0.5 0 0 1 642.5 2 L 642.5 620  A 0.5 0.5 0 0 1 642 620.5 L 2 620.5  A 0.5 0.5 0 0 1 1.5 620 L 1.5 2  Z " fill-rule="nonzero" fill="#f2f2f2" stroke="none" fill-opacity="0" />
      <path d="M 1 2  A 1 1 0 0 1 2 1 L 642 1  A 1 1 0 0 1 643 2 L 643 620  A 1 1 0 0 1 642 621 L 2 621  A 1 1 0 0 1 1 620 L 1 2  Z " stroke-width="2" stroke="#facd91" fill="none" />
    </g>
  </defs>
  <g>
    <use xlink:href="#widget200" filter="url(#filter199)" />
    <use xlink:href="#widget200" />
  </g>
</svg>