<?xml version="1.0" encoding="utf-8"?>
<svg version="1.1" xmlns:xlink="http://www.w3.org/1999/xlink" width="49px" height="22px" xmlns="http://www.w3.org/2000/svg">
  <defs>
    <mask fill="white" id="clip4">
      <path d="M 0 19.25  L 0 2.75  C 0 1.20999999999999  0.770000000000016 0  1.75 0  L 47.25 0  C 48.23 0  49 1.20999999999999  49 2.75  L 49 19.25  C 49 20.79  48.23 22  47.25 22  L 1.75 22  C 0.770000000000016 22  0 20.79  0 19.25  Z " fill-rule="evenodd" />
    </mask>
  </defs>
  <g transform="matrix(1 0 0 1 -185 -16 )">
    <path d="M 0 19.25  L 0 2.75  C 0 1.20999999999999  0.770000000000016 0  1.75 0  L 47.25 0  C 48.23 0  49 1.20999999999999  49 2.75  L 49 19.25  C 49 20.79  48.23 22  47.25 22  L 1.75 22  C 0.770000000000016 22  0 20.79  0 19.25  Z " fill-rule="nonzero" fill="#02a7f0" stroke="none" transform="matrix(1 0 0 1 185 16 )" />
    <path d="M 0 19.25  L 0 2.75  C 0 1.20999999999999  0.770000000000016 0  1.75 0  L 47.25 0  C 48.23 0  49 1.20999999999999  49 2.75  L 49 19.25  C 49 20.79  48.23 22  47.25 22  L 1.75 22  C 0.770000000000016 22  0 20.79  0 19.25  Z " stroke-width="2" stroke="#02a7f0" fill="none" transform="matrix(1 0 0 1 185 16 )" mask="url(#clip4)" />
  </g>
</svg>