<?xml version="1.0" encoding="utf-8"?>
<svg version="1.1" xmlns:xlink="http://www.w3.org/1999/xlink" width="10px" height="10px" xmlns="http://www.w3.org/2000/svg">
  <g transform="matrix(1 0 0 1 -350 -150 )">
    <path d="M 355 151.5  C 356.96 151.5  358.5 153.04  358.5 155  C 358.5 156.96  356.96 158.5  355 158.5  C 353.04 158.5  351.5 156.96  351.5 155  C 351.5 153.04  353.04 151.5  355 151.5  Z " fill-rule="nonzero" fill="#ffffff" stroke="none" />
    <path d="M 355 151  C 357.24 151  359 152.76  359 155  C 359 157.24  357.24 159  355 159  C 352.76 159  351 157.24  351 155  C 351 152.76  352.76 151  355 151  Z " stroke-width="2" stroke="#81d3f8" fill="none" stroke-opacity="0.819607843137255" />
  </g>
</svg>