<?xml version="1.0" encoding="utf-8"?>
<svg version="1.1" xmlns:xlink="http://www.w3.org/1999/xlink" width="42px" height="42px" xmlns="http://www.w3.org/2000/svg">
  <g transform="matrix(1 0 0 1 -1247 -11 )">
    <path d="M 12.84375 1.6640625  C 15.4375 0.5546875  18.15625 0  21 0  C 23.84375 0  26.5625 0.5546875  29.15625 1.6640625  C 31.75 2.7734375  33.984375 4.265625  35.859375 6.140625  C 37.734375 8.015625  39.2265625 10.25  40.3359375 12.84375  C 41.4453125 15.4375  42 18.15625  42 21  C 42 23.828125  41.44921875 26.5390625  40.34765625 29.1328125  C 39.24609375 31.7265625  37.7578125 33.9609375  35.8828125 35.8359375  C 34.0078125 37.7109375  31.7734375 39.20703125  29.1796875 40.32421875  C 26.5859375 41.44140625  23.859375 42  21 42  C 18.140625 42  15.4140625 41.4453125  12.8203125 40.3359375  C 10.2265625 39.2265625  7.99609375 37.73046875  6.12890625 35.84765625  C 4.26171875 33.96484375  2.7734375 31.73046875  1.6640625 29.14453125  C 0.5546875 26.55859375  0 23.84375  0 21  C 0 18.15625  0.5546875 15.4375  1.6640625 12.84375  C 2.7734375 10.25  4.265625 8.015625  6.140625 6.140625  C 8.015625 4.265625  10.25 2.7734375  12.84375 1.6640625  Z M 28.3359375 24  C 32.0859375 24  34.4765625 26.5546875  35.5078125 31.6640625  C 37.8359375 28.4609375  39 24.90625  39 21  C 39 18.5625  38.5234375 16.234375  37.5703125 14.015625  C 36.6171875 11.796875  35.3359375 9.8828125  33.7265625 8.2734375  C 32.1171875 6.6640625  30.203125 5.3828125  27.984375 4.4296875  C 25.765625 3.4765625  23.4375 3  21 3  C 18.5625 3  16.234375 3.4765625  14.015625 4.4296875  C 11.796875 5.3828125  9.8828125 6.6640625  8.2734375 8.2734375  C 6.6640625 9.8828125  5.3828125 11.796875  4.4296875 14.015625  C 3.4765625 16.234375  3 18.5625  3 21  C 3 24.90625  4.1640625 28.4609375  6.4921875 31.6640625  C 7.5234375 26.5546875  9.9140625 24  13.6640625 24  C 15.7109375 26  18.15625 27  21 27  C 23.84375 27  26.2890625 26  28.3359375 24  Z M 27.36328125 22.86328125  C 29.12109375 21.10546875  30 18.984375  30 16.5  C 30 14.015625  29.12109375 11.89453125  27.36328125 10.13671875  C 25.60546875 8.37890625  23.484375 7.5  21 7.5  C 18.515625 7.5  16.39453125 8.37890625  14.63671875 10.13671875  C 12.87890625 11.89453125  12 14.015625  12 16.5  C 12 18.984375  12.87890625 21.10546875  14.63671875 22.86328125  C 16.39453125 24.62109375  18.515625 25.5  21 25.5  C 23.484375 25.5  25.60546875 24.62109375  27.36328125 22.86328125  Z " fill-rule="nonzero" fill="#000000" stroke="none" transform="matrix(1 0 0 1 1247 11 )" />
  </g>
</svg>