<?xml version="1.0" encoding="utf-8"?>
<svg version="1.1" xmlns:xlink="http://www.w3.org/1999/xlink" width="37px" height="22px" xmlns="http://www.w3.org/2000/svg">
  <defs>
    <mask fill="white" id="clip3">
      <path d="M 0 19.25  L 0 2.75  C 0 1.20999999999999  0.581428571428583 0  1.32142857142857 0  L 35.6785714285714 0  C 36.4185714285714 0  37 1.20999999999999  37 2.75  L 37 19.25  C 37 20.79  36.4185714285714 22  35.6785714285714 22  L 1.32142857142857 22  C 0.581428571428583 22  0 20.79  0 19.25  Z " fill-rule="evenodd" />
    </mask>
  </defs>
  <g transform="matrix(1 0 0 1 -143 -16 )">
    <path d="M 0 19.25  L 0 2.75  C 0 1.20999999999999  0.581428571428583 0  1.32142857142857 0  L 35.6785714285714 0  C 36.4185714285714 0  37 1.20999999999999  37 2.75  L 37 19.25  C 37 20.79  36.4185714285714 22  35.6785714285714 22  L 1.32142857142857 22  C 0.581428571428583 22  0 20.79  0 19.25  Z " fill-rule="nonzero" fill="#02a7f0" stroke="none" transform="matrix(1 0 0 1 143 16 )" />
    <path d="M 0 19.25  L 0 2.75  C 0 1.20999999999999  0.581428571428583 0  1.32142857142857 0  L 35.6785714285714 0  C 36.4185714285714 0  37 1.20999999999999  37 2.75  L 37 19.25  C 37 20.79  36.4185714285714 22  35.6785714285714 22  L 1.32142857142857 22  C 0.581428571428583 22  0 20.79  0 19.25  Z " stroke-width="2" stroke="#02a7f0" fill="none" transform="matrix(1 0 0 1 143 16 )" mask="url(#clip3)" />
  </g>
</svg>