<?xml version="1.0" encoding="utf-8"?>
<svg version="1.1" xmlns:xlink="http://www.w3.org/1999/xlink" width="24px" height="24px" viewBox="100 2437.5  24 24" xmlns="http://www.w3.org/2000/svg">
  <path d="M 112 2437.5  C 118.72 2437.5  124 2442.78  124 2449.5  C 124 2456.22  118.72 2461.5  112 2461.5  C 105.28 2461.5  100 2456.22  100 2449.5  C 100 2442.78  105.28 2437.5  112 2437.5  Z " fill-rule="nonzero" fill="#f0f0f0" stroke="none" />
  <path d="M 112 2438  C 118.44 2438  123.5 2443.06  123.5 2449.5  C 123.5 2455.94  118.44 2461  112 2461  C 105.56 2461  100.5 2455.94  100.5 2449.5  C 100.5 2443.06  105.56 2438  112 2438  Z " stroke-width="1" stroke="#797979" fill="none" />
  <path d="M 112 2455.5  C 108.64 2455.5  106 2452.86  106 2449.5  C 106 2446.14  108.64 2443.5  112 2443.5  C 115.36 2443.5  118 2446.14  118 2449.5  C 118 2452.86  115.36 2455.5  112 2455.5  " fill-rule="nonzero" fill="#797979" stroke="none" />
</svg>