<?xml version="1.0" encoding="utf-8"?>
<svg version="1.1" xmlns:xlink="http://www.w3.org/1999/xlink" width="24px" height="24px" viewBox="100 2639.5  24 24" xmlns="http://www.w3.org/2000/svg">
  <path d="M 112 2639.5  C 118.72 2639.5  124 2644.78  124 2651.5  C 124 2658.22  118.72 2663.5  112 2663.5  C 105.28 2663.5  100 2658.22  100 2651.5  C 100 2644.78  105.28 2639.5  112 2639.5  Z " fill-rule="nonzero" fill="#ffffff" stroke="none" />
  <path d="M 112 2640  C 118.44 2640  123.5 2645.06  123.5 2651.5  C 123.5 2657.94  118.44 2663  112 2663  C 105.56 2663  100.5 2657.94  100.5 2651.5  C 100.5 2645.06  105.56 2640  112 2640  Z " stroke-width="1" stroke="#797979" fill="none" />
  <path d="M 112 2657.5  C 108.64 2657.5  106 2654.86  106 2651.5  C 106 2648.14  108.64 2645.5  112 2645.5  C 115.36 2645.5  118 2648.14  118 2651.5  C 118 2654.86  115.36 2657.5  112 2657.5  " fill-rule="nonzero" fill="#797979" stroke="none" />
</svg>