<?xml version="1.0" encoding="utf-8"?>
<svg version="1.1" xmlns:xlink="http://www.w3.org/1999/xlink" width="24px" height="24px" viewBox="0 764.5  24 24" xmlns="http://www.w3.org/2000/svg">
  <path d="M 12 764.5  C 18.72 764.5  24 769.78  24 776.5  C 24 783.22  18.72 788.5  12 788.5  C 5.28 788.5  0 783.22  0 776.5  C 0 769.78  5.28 764.5  12 764.5  Z " fill-rule="nonzero" fill="#ffffff" stroke="none" />
  <path d="M 12 765  C 18.44 765  23.5 770.06  23.5 776.5  C 23.5 782.94  18.44 788  12 788  C 5.56 788  0.5 782.94  0.5 776.5  C 0.5 770.06  5.56 765  12 765  Z " stroke-width="1" stroke="#797979" fill="none" />
  <path d="M 12 782.5  C 8.64 782.5  6 779.86  6 776.5  C 6 773.14  8.64 770.5  12 770.5  C 15.36 770.5  18 773.14  18 776.5  C 18 779.86  15.36 782.5  12 782.5  " fill-rule="nonzero" fill="#797979" stroke="none" />
</svg>