<?xml version="1.0" encoding="utf-8"?>
<svg version="1.1" xmlns:xlink="http://www.w3.org/1999/xlink" width="24px" height="24px" viewBox="0 163.5  24 24" xmlns="http://www.w3.org/2000/svg">
  <path d="M 12 163.5  C 18.72 163.5  24 168.78  24 175.5  C 24 182.22  18.72 187.5  12 187.5  C 5.28 187.5  0 182.22  0 175.5  C 0 168.78  5.28 163.5  12 163.5  Z " fill-rule="nonzero" fill="#ffffff" stroke="none" />
  <path d="M 12 164  C 18.44 164  23.5 169.06  23.5 175.5  C 23.5 181.94  18.44 187  12 187  C 5.56 187  0.5 181.94  0.5 175.5  C 0.5 169.06  5.56 164  12 164  Z " stroke-width="1" stroke="#797979" fill="none" />
  <path d="M 12 181.5  C 8.64 181.5  6 178.86  6 175.5  C 6 172.14  8.64 169.5  12 169.5  C 15.36 169.5  18 172.14  18 175.5  C 18 178.86  15.36 181.5  12 181.5  " fill-rule="nonzero" fill="#797979" stroke="none" />
</svg>