<?xml version="1.0" encoding="utf-8"?>
<svg version="1.1" xmlns:xlink="http://www.w3.org/1999/xlink" width="60px" height="60px" xmlns="http://www.w3.org/2000/svg">
  <g transform="matrix(1 0 0 1 -330 -199 )">
    <path d="M 360 199  C 376.8 199  390 212.2  390 229  C 390 245.8  376.8 259  360 259  C 343.2 259  330 245.8  330 229  C 330 212.2  343.2 199  360 199  Z " fill-rule="nonzero" fill="#ffffff" stroke="none" />
    <path d="M 360 199.5  C 376.52 199.5  389.5 212.48  389.5 229  C 389.5 245.52  376.52 258.5  360 258.5  C 343.48 258.5  330.5 245.52  330.5 229  C 330.5 212.48  343.48 199.5  360 199.5  Z " stroke-width="1" stroke="#797979" fill="none" />
  </g>
</svg>